<svg clip-rule="evenodd" fill-rule="evenodd" stroke-linejoin="round" stroke-miterlimit="1.41421" viewBox="0 0 806 806" xmlns="http://www.w3.org/2000/svg">
  <g fill-rule="nonzero" transform="matrix(8.33333 0 0 8.33333 -3781.52 -1374.31)">
    <path d="m502.121 164.918c-26.696 0-48.339 21.64-48.339 48.336 0 11.49 4.013 22.042 10.709 30.335 3.785-12.48 16.902-20.551 18.974-21.761l5.144-9.154c-.42-1.113-1.204-3.343-1.899-6.13-.099-.238-.176-.451-.223-.631-1.087-4.098-1.385-6.835-1.14-9.409.002-2.102.231-4.19.801-6.124 2.656-8.997 10.504-15.073 20.991-11.951.924.275 2.203.779 3.653 1.409 1.034.383 2.013.827 2.93 1.328 5.399 2.529 11.5 5.755 11.5 5.755s.086 3.646-3.179 5.573c.366 2.691.006 5.604-1.09 8.625l1.294 8.659c.09.49-.15 1.078-.614 1.505-.488.449-1.127.629-1.729.492h-1.344l-.866 3.727-.153.144c-.187.175-.788.554-2.337.294-1.545-.256-2.612.127-3.244.504l3.897 2.069-2.25 3.447c-.75 2.042-2.945 3.157-5.044 2.544l-.064-.019-4.82-2.506-3.173 6.9.853 3.318c.007.003.012.003.012.003s.385.641 1.007 1.766l.378-.323 9.479 7.489 6.15 17.65c18.697-6.678 32.075-24.54 32.075-45.528 0-26.696-21.641-48.336-48.339-48.336" fill="#ddeee7"/>
    <path d="m519.598 200.807c1.03-2.782 1.405-5.393 1.131-7.81-1.983.118-9.316-.508-12.49.511-2.045.658-3.929 4.579-3.929 4.579s-4.366-2.497-5.844 2.56c-.929 3.179.313 4.97.313 4.97s-4.996 4.186-6.641 5.558c-.52.432-1.292.978-1.95 1.427-.018.064-.037.126-.063.185l-.033.068-5.479 9.749c1.269 1.317 2.587 2.463 3.898 3.457 1.125.721 2.556 1.584 4.385 2.615 1.174.663 2.348 1.302 3.433 1.88 1.415.594 2.625.995 3.503 1.251l-.786-3.061 3.983-8.663 5.984 3.111c1.396.374 2.845-.393 3.316-1.767l.029-.081 1.516-2.323-4.215-2.236.524-.651c.071-.087 1.769-2.142 5.25-1.558.533.088.862.075 1.046.048l.984-4.234h2.626l.095.028c.137.041.275.015.414-.075.176-.116.268-.284.285-.35l-1.347-9.021z" fill="#fff"/>
    <path d="m488.609 212.673-5.144 9.154c.181-.105.277-.159.277-.159.287.322.578.633.871.937l5.479-9.749.034-.069c.024-.059.045-.121.062-.185-.702.478-1.276.846-1.276.846s-.115-.276-.303-.775" fill="#0a322b"/>
    <path d="m520.954 201.119c1.095-3.021 1.456-5.936 1.09-8.626-.269.158-.558.307-.872.439-.078.032-.231.053-.443.065.276 2.417-.1 5.028-1.131 7.81l-.061.166 1.347 9.022c-.017.066-.11.234-.286.35-.138.09-.277.116-.414.075l-.095-.028h-2.626l-.983 4.234c-.184.027-.514.04-1.047-.049-3.481-.583-5.178 1.472-5.249 1.559l-.523.651 4.213 2.236-1.516 2.323-.027.081c-.473 1.374-1.92 2.141-3.317 1.767l-5.984-3.111-3.984 8.663.787 3.061c.893.262 1.447.374 1.526.39l-.852-3.318 3.173-6.901 4.82 2.507.064.019c2.098.612 4.294-.504 5.043-2.545l2.25-3.448-3.897-2.067c.633-.378 1.699-.762 3.245-.505 1.549.259 2.15-.119 2.337-.293l.153-.145.866-3.726h1.343c.603.137 1.241-.043 1.73-.492.464-.428.704-1.016.614-1.506z" fill="#0a322b"/>
    <path d="m513.722 181.166c-1.017-.477-2.009-.927-2.93-1.328-1.451-.63-2.728-1.134-3.653-1.41-10.487-3.121-18.336 2.955-20.99 11.952-.571 1.933-.801 4.022-.804 6.124-.003 3.529.629 7.095 1.365 10.04.695 2.787 1.48 5.017 1.899 6.13.188.499.302.774.302.774s.574-.367 1.277-.846c.658-.449 1.43-.995 1.95-1.427 1.645-1.371 6.641-5.558 6.641-5.558s-1.242-1.79-.313-4.97c1.478-5.057 5.844-2.56 5.844-2.56s1.884-3.921 3.929-4.578c3.174-1.02 10.507-.394 12.49-.51.213-.013.363-.035.442-.067.316-.131.603-.281.872-.438 3.264-1.927 3.178-5.573 3.178-5.573s-6.099-3.226-11.499-5.755" fill="#0a322b"/>
    <path d="m502.138 238.217-.071-.066-.052-.085c-.036-.062-.367-.625-.516-1.366-.218-1.09.076-2.044.824-2.687l.055-.047c-.621-1.125-1.008-1.766-1.008-1.766s-.004-.002-.01-.003c-.08-.016-.633-.127-1.528-.389-.878-.257-2.087-.657-3.503-1.252-1.084-.577-2.259-1.217-3.433-1.88-1.829-1.031-3.26-1.894-4.385-2.614-1.311-.995-2.628-2.14-3.898-3.457-.293-.304-.677-.784-.965-1.105 0 0-.086.12-.266.225-2.073 1.211-15.105 9.383-18.89 21.865 6.621 8.202 15.868 14.194 26.463 16.701l3.266.652c2.571.422 5.21.646 7.9.646 2.204 0 4.37-.15 6.494-.435l-1.686-1.726c-1.051-1.113-2.25-3.167-2.589-5.275l-2.224-9.263.386-.27c.09-.063.908-.606 1.977-.306.953.268 1.743 1.104 2.347 2.484l.036.102c.286 1.097.776 2.881.949 3.3.133.325.469.826.864 1.064.028-1.201-.121-3.865-1.561-7.404-.557-1.37-3.782-4.538-4.976-5.643" fill="#00a183"/>
    <path d="m502.897 235.516c-.265.671.124 1.504.261 1.762.732.682 4.497 4.245 5.237 6.062 2.136 5.249 1.623 8.697 1.601 8.842l-.08.495-.497.078c-1.418.224-2.502-1.093-2.887-2.032-.249-.608-.871-2.955-.993-3.42-.414-.928-.904-1.501-1.416-1.654-.149-.045-.29-.049-.411-.035l1.989 8.295c.286 1.817 1.354 3.639 2.224 4.563l2.371 2.425c2.322-.395 4.586-.956 6.782-1.67l-6.016-17.26z" fill="#fff"/>
    <path d="m502.755 233.643-.378.323-.054.047c-.749.643-1.043 1.597-.824 2.687.149.742.479 1.304.517 1.366l.05.085.072.066c1.194 1.106 4.419 4.273 4.975 5.643 1.441 3.538 1.589 6.204 1.563 7.404-.397-.237-.734-.739-.865-1.064-.173-.419-.663-2.203-.95-3.299l-.035-.103c-.604-1.38-1.394-2.216-2.347-2.484-1.069-.299-1.887.243-1.977.306l-.387.27 2.224 9.263c.34 2.108 1.539 4.162 2.59 5.276l1.685 1.725c.565-.076 1.124-.161 1.682-.257l-2.37-2.425c-.872-.924-1.941-2.746-2.226-4.563l-1.988-8.295c.12-.013.262-.009.41.035.513.153 1.002.726 1.416 1.655.122.464.744 2.81.993 3.42.385.939 1.47 2.256 2.888 2.031l.496-.078.079-.495c.024-.144.535-3.593-1.6-8.842-.74-1.818-4.505-5.38-5.237-6.062-.136-.258-.525-1.091-.26-1.762l8.165 6.451 6.015 17.26c.439-.143.875-.29 1.308-.445l-6.15-17.65z" fill="#0a322b"/>
    <g fill="#ff3494">
      <path d="m497.149 213.752.734.667-.74-.661c-.364.411-.327 1.038.081 1.401.196.174.441.257.683.251.265-.006.527-.118.719-.332l.031-.035c.354-.416.304-1.036-.109-1.393-.414-.356-1.04-.309-1.399.102"/>
      <path d="m499.84 211.138-.01.008c-.425.346-.489.971-.144 1.395.202.248.498.374.795.367.212-.006.423-.079.601-.223l.032-.026c.42-.352.476-.977.124-1.396-.352-.421-.977-.475-1.398-.125"/>
      <path d="m496.281 216.436c-.458-.301-1.072-.174-1.374.284l-.019.029c-.296.461-.165 1.076.296 1.373.173.112.368.162.56.158.318-.008.626-.168.811-.455l.011-.016c.301-.458.174-1.073-.285-1.373"/>
      <path d="m494.403 219.504c-.493-.238-1.086-.031-1.324.462l-.012.025c-.238.493-.031 1.087.463 1.325.145.07.301.103.452.098.36-.008.705-.214.872-.561l.013-.024c.237-.495.03-1.087-.464-1.325"/>
      <path d="m492.908 222.789c-.525-.154-1.077.148-1.229.674l-.009.031c-.153.526.151 1.076.678 1.228.099.029.201.042.298.038.421-.009.807-.289.93-.717l.008-.024c.152-.526-.149-1.077-.676-1.23"/>
      <path d="m513.875 206.657h-.009c-.548-.028-1.015.387-1.046.935-.031.547.388 1.015.935 1.045l.048.003h.058c.52-.012.942-.425.964-.951.022-.546-.406-1.008-.95-1.032"/>
      <path d="m517.574 207.115-.201.971.192-.972c-.537-.106-1.059.242-1.167.78-.105.537.244 1.059.781 1.165l.048.01c.066.011.132.016.195.015.461-.011.862-.344.949-.815.099-.537-.261-1.052-.797-1.154"/>
      <path d="m510.151 206.765-.047.005c-.545.066-.927.561-.861 1.106.063.511.507.882 1.011.869.032 0 .065-.001.098-.006.545-.055.943-.542.887-1.087s-.542-.946-1.088-.887"/>
      <path d="m506.45 207.544-.022.007c-.525.163-.817.719-.655 1.242.135.433.539.707.97.698.09-.003.181-.017.271-.045l.031-.01c.522-.163.812-.72.648-1.244-.163-.522-.721-.813-1.243-.648"/>
      <path d="m502.965 209.024-.013.007c-.481.26-.661.863-.401 1.345.184.339.536.528.897.52.152-.003.305-.043.448-.12l.035-.018c.48-.267.651-.872.385-1.35-.267-.479-.872-.651-1.351-.384"/>
    </g>
    <path d="m530.641 220.777c0-2.188-1.779-3.968-3.968-3.968-.365 0-.661.295-.661.66 0 .367.296.662.661.662 1.458 0 2.646 1.187 2.646 2.646 0 .412-.096.811-.283 1.185l-.225.446.369.338c.641.588.994 1.386.994 2.25 0 1.685-1.369 3.054-3.054 3.054-.401 0-.791-.077-1.164-.231l-.544-.224-.285.514c-.468.841-1.354 1.362-2.313 1.362-1.458 0-2.645-1.187-2.645-2.645 0-.365-.296-.661-.662-.661-.365 0-.661.296-.661.661 0 2.188 1.78 3.968 3.968 3.968 1.252 0 2.419-.591 3.163-1.573.37.102.754.152 1.143.152 2.415 0 4.378-1.964 4.378-4.377 0-1.061-.392-2.088-1.089-2.884.154-.427.232-.876.232-1.335" fill="#fff"/>
    <path d="m524.527 219.375-5.665-1.778c-.349-.109-.72.086-.829.434-.11.348.084.719.432.829l5.666 1.777c.065.021.132.03.198.03.281 0 .542-.18.631-.463.109-.349-.085-.72-.433-.829" fill="#fff"/>
    <path d="m517.798 220.285c-.264-.252-.683-.244-.936.021-.251.264-.243.683.022.935l3.638 3.479c.129.123.293.184.458.184.173 0 .347-.069.477-.204.252-.264.242-.683-.021-.935z" fill="#fff"/>
  </g>
</svg>
