<svg clip-rule="evenodd" fill-rule="evenodd" stroke-miterlimit="10" viewBox="0 0 867 858" xmlns="http://www.w3.org/2000/svg" xmlns:xlink="http://www.w3.org/1999/xlink"><clipPath id="a"><path clip-rule="evenodd" d="m406.771 364.559c0 26.359 21.367 47.727 47.725 47.727 26.359 0 47.727-21.368 47.727-47.727 0-26.357-21.368-47.725-47.727-47.725-26.358 0-47.725 21.368-47.725 47.725z"/></clipPath><clipPath id="b"><path clip-rule="evenodd" d="m406.771 364.559c0 26.359 21.367 47.727 47.725 47.727 26.359 0 47.727-21.368 47.727-47.727 0-26.357-21.368-47.725-47.727-47.725-26.358 0-47.725 21.368-47.725 47.725z"/></clipPath><g transform="matrix(8.33333 0 0 8.33333 -3389.76 -2618.1)"><path d="m502.222 364.56c0 26.358-21.367 47.727-47.726 47.727-26.358 0-47.725-21.369-47.725-47.727 0-26.357 21.367-47.726 47.725-47.726 26.359 0 47.726 21.369 47.726 47.726" fill="#fbcd74" fill-rule="nonzero"/><g clip-path="url(#a)" fill-rule="nonzero"><path d="m487.424 378.444c-.142-.05-14.155-4.955-15.666-5.562-.349-.14-.8-.304-1.276-.478-1.021-.371-2.289-.832-3.037-1.241-.28-.154-.456-.457-.459-.794l-.071-7.032-9.63 2.155-10.063-2.149-.071 7.079c-.003.317-.165.613-.421.771-.756.466-2.066.972-3.119 1.379-.29.112-.559.216-.792.31-1.51.607-15.524 5.512-15.663 5.561-.279.096-6.851 2.427-8.3 9.025-.799 3.639-1.212 20.923-1.419 22.037h79.703c-.206-1.113-.619-18.396-1.419-22.037-1.448-6.598-8.022-8.929-8.297-9.024" fill="#fff"/><path d="m418.24 408.769c.054-.868.118-2.354.214-4.602.239-5.643.601-14.172 1.122-16.541 1.359-6.194 7.558-8.395 7.824-8.487.141-.05 14.167-4.96 15.694-5.573.23-.093.497-.195.784-.307 1.08-.417 2.424-.936 3.239-1.439.47-.289.765-.822.77-1.391l.063-6.177 9.183 1.961c.103.023.211.022.314-.002l8.741-1.957.062 6.123c.007.603.329 1.152.842 1.432.795.436 2.092.907 3.14 1.288.471.172.915.333 1.252.469 1.459.586 14.228 5.059 15.679 5.567.001 0 .02.007.021.008.263.091 6.458 2.29 7.819 8.485.52 2.371.882 10.902 1.122 16.547.094 2.244.159 3.729.214 4.596zm79.355-4.658c-.255-6.037-.607-14.305-1.154-16.8-1.536-6.993-8.482-9.461-8.791-9.567-5.255-1.84-14.456-5.079-15.616-5.544-.36-.145-.816-.311-1.306-.489-.994-.361-2.231-.811-2.929-1.194-.038-.019-.076-.076-.077-.154l-.071-7.033c-.002-.222-.104-.432-.278-.57-.174-.137-.402-.189-.618-.141l-9.472 2.121-9.906-2.116c-.217-.045-.442.007-.615.146-.172.138-.273.346-.276.567l-.071 7.078c0 .071-.036.13-.071.152-.7.431-1.973.924-2.998 1.319-.293.113-.565.219-.801.314-1.496.601-15.491 5.5-15.628 5.548-.295.101-7.244 2.571-8.78 9.563-.546 2.493-.898 10.759-1.155 16.794-.107 2.541-.209 4.94-.268 5.266-.04.214.017.436.157.605.14.168.348.266.566.266h79.703c.219 0 .426-.099.566-.267.14-.167.198-.39.159-.604-.06-.326-.161-2.723-.27-5.26" fill="#16547a"/><path d="m496.286 387.336c-1.521-6.925-8.392-9.361-8.683-9.461-.135-.048-14.137-4.949-15.635-5.552-.358-.143-.813-.308-1.295-.484-1.001-.364-2.248-.817-2.958-1.206-.091-.05-.149-.153-.151-.271l-.063-6.297-.015-1.469-1.388.31-8.816 1.974-9.254-1.976-1.378-.295-.014 1.456-.065 6.351c-.001.109-.054.21-.138.262-.711.439-2.048.956-3.024 1.333-.289.111-.562.217-.801.312-1.498.603-15.5 5.504-15.64 5.554-.286.098-7.157 2.534-8.677 9.459-.802 3.65-1.217 10.926-1.424 12.042l-.02.111h1.179c.214-1.145.625-8.383 1.395-11.887 1.392-6.346 7.918-8.589 7.918-8.589s14.149-4.953 15.689-5.573c1.088-.436 2.981-1.105 3.998-1.732.432-.267.697-.752.703-1.279l.065-6.351 9.494 2.028 9.055-2.028.063 6.298c.006.555.301 1.061.768 1.316 1.138.624 3.277 1.308 4.374 1.748 1.54.62 15.69 5.573 15.69 5.573s6.525 2.243 7.918 8.589c.769 3.504 1.18 10.742 1.394 11.887h1.179l-.02-.111c-.207-1.116-.622-8.391-1.423-12.042" fill="#16547a"/><path d="m473.133 345.594c-.666 0-1.177.758-1.366 1.084l-.01.018-.159.32-1.919-13.31-10.881-5.692h-3.019l-10.925 4.364-1.874 14.638-.16-.32-.01-.018c-.189-.326-.7-1.084-1.365-1.084-.274 0-.768.128-1.011.982-.313 1.101.233 4.514.447 5.068l1.831 4.676c.068.173.703 1.692 1.9 1.692.084 0 .167-.008.25-.022.036.143.072.286.107.428.391 1.572.708 2.89.905 3.72.205.863.548 1.673 1.018 2.404.559.872 1.498 2.25 2.786 3.86 2.392 2.987 5.2 3.19 5.318 3.198l.017.001h4.551l.017-.001c.118-.008 2.926-.211 5.318-3.198 1.289-1.61 2.226-2.988 2.786-3.86.47-.731.812-1.541 1.018-2.404.197-.826.513-2.143.905-3.72.036-.142.071-.285.107-.428.083.014.166.022.249.022 1.197 0 1.833-1.519 1.901-1.694l1.83-4.674c.214-.554.761-3.967.448-5.068-.243-.854-.738-.982-1.01-.982" fill="#fff"/><g fill="#16547a"><path d="m473.01 351.375-1.829 4.672c-.135.342-.617 1.228-1.217 1.228-.039 0-.078-.004-.116-.01-.382-.07-.753.169-.847.546l-.107.429c-.423 1.703-.75 3.066-.907 3.727-.186.783-.497 1.515-.921 2.178-.551.857-1.474 2.212-2.743 3.796-2.116 2.644-4.522 2.902-4.785 2.923h-4.502c-.162-.011-2.624-.225-4.783-2.923-1.268-1.584-2.191-2.939-2.742-3.796-.425-.663-.734-1.395-.921-2.178-.198-.836-.517-2.161-.906-3.727l-.108-.43c-.094-.376-.464-.615-.847-.545-.038.006-.076.01-.116.01-.601 0-1.082-.884-1.215-1.224l-1.83-4.672c-.176-.456-.684-3.694-.426-4.602.061-.216.173-.447.303-.447.149 0 .451.245.726.715l.149.299c.144.29.461.453.782.398.319-.054.566-.31.607-.633l1.821-14.209 10.39-4.15h2.697l10.387 5.435 1.865 12.936c.046.318.294.57.613.622.318.05.632-.111.775-.399l.149-.3c.27-.464.576-.714.727-.714.129 0 .24.231.302.447.258.908-.25 4.146-.425 4.598m.123-6.518c-.404 0-.755.146-1.052.356l-1.674-11.611c-.034-.235-.177-.438-.387-.548l-10.88-5.693c-.106-.054-.223-.083-.342-.083h-3.019c-.093 0-.186.018-.273.052l-10.925 4.364c-.249.099-.424.325-.457.59l-1.654 12.911c-.29-.2-.633-.338-1.025-.338-.303 0-1.319.11-1.719 1.517-.381 1.341.245 4.957.47 5.538l1.831 4.678c.132.336.83 1.919 2.259 2.134.373 1.504.679 2.774.871 3.584.226.945.601 1.831 1.115 2.632.57.887 1.524 2.289 2.832 3.921 1.058 1.323 2.373 2.338 3.802 2.936 1.122.47 1.955.531 2.045.537l.018.001c.015.001.029.001.044.001h4.551c.014 0 .047-.001.061-.002.092-.006.925-.067 2.046-.537 1.429-.598 2.743-1.613 3.803-2.936 1.307-1.632 2.261-3.034 2.831-3.921.515-.802.89-1.687 1.114-2.632.153-.642.466-1.948.871-3.584 1.429-.215 2.128-1.799 2.262-2.138l1.831-4.677c.223-.579.85-4.195.468-5.534-.401-1.408-1.416-1.518-1.718-1.518"/><path d="m474.699 346.406c-.362-1.274-1.216-1.412-1.565-1.412-.303 0-.574.092-.813.232l.095-1.198h-1.162l-.47 5.94 1.48-2.982s.46-.793.87-.793c.173 0 .337.144.454.552.262.924-.252 4.28-.428 4.674l-1.83 4.674s-.522 1.319-1.365 1.319c-.134 0-.277-.033-.426-.11-.084-.044-.157-.081-.221-.113-.092.362-.182.724-.27 1.079-.386 1.554-.702 2.864-.907 3.726-.188.79-.503 1.539-.938 2.217-.567.883-1.488 2.232-2.75 3.808-2.258 2.821-4.905 2.982-4.905 2.982h-4.517s-2.647-.161-4.906-2.982c-1.261-1.576-2.183-2.925-2.75-3.808-.435-.678-.75-1.427-.938-2.217-.205-.862-.52-2.172-.907-3.726-.088-.355-.179-.717-.27-1.079-.064.032-.136.069-.22.113-.151.077-.292.11-.427.11-.843 0-1.364-1.319-1.364-1.319l-1.83-4.674c-.177-.394-.692-3.75-.429-4.674.116-.409.281-.552.455-.552.408 0 .869.793.869.793l1.481 2.982-.47-5.94h-.545c-.232 0-.44-.037-.626-.103l.103 1.301c-.239-.14-.51-.232-.812-.232-.35 0-1.204.138-1.566 1.412-.359 1.262.198 4.743.466 5.463l1.83 4.674c.032.082.202.494.508.923.594.831 1.242 1.085 1.734 1.135.386 1.551.699 2.856.895 3.679.222.932.591 1.805 1.098 2.594.567.884 1.518 2.28 2.823 3.91 2.55 3.184 5.601 3.405 5.73 3.413l.034.002h4.585l.033-.002c.129-.008 3.18-.229 5.73-3.413 1.305-1.63 2.255-3.026 2.824-3.91.506-.789.876-1.662 1.096-2.594.197-.823.51-2.127.896-3.679.492-.05 1.14-.304 1.733-1.135.307-.429.477-.841.508-.919l1.831-4.678h-.001c.269-.72.825-4.201.467-5.463"/><path d="m468.691 329.423s-2.22-5.017-5.724-5.5-11.972-.786-15.243 2.115c-3.27 2.902-5.314 5.138-5.198 7.676 0 0-1.519 7.491-.116 13.354.43 1.801.772 3.112 1.041 4.063.136.485.849.393.858-.111.062-3.582.236-9.758.729-10.903.701-1.631 1.752-4.715 5.489-4.715 3.738 0 13.375.303 15.244-1.329 0 0 3.212 2.599 4.029 7.313.495 2.853.664 6.069.721 8.377.013.513.743.589.863.091.277-1.143.567-2.564.779-4.157.484-3.654.616-11.198-.552-13.313s-2.92-2.961-2.92-2.961"/></g><path d="m487.757 377.758c-.102-.036-10.776-3.772-14.509-5.131l-.576-.21-.469.404c-3.297 2.841-8.804 4.538-14.735 4.538-.029 0-.06-.001-.09-.001s-.059.001-.09.001c-5.929 0-11.438-1.697-14.734-4.538l-.47-.404-.576.21c-3.732 1.359-14.406 5.095-14.509 5.131-.289.1-7.83 1.912-10.152 12.516-1.925 8.788-3.74 25.659-3.944 26.774h88.951c-.204-1.115-2.02-17.986-3.945-26.774-2.322-10.604-9.862-12.416-10.152-12.516" fill="#1c93c5"/><path d="m464.468 391.041c-.247-.197-.539-.328-.846-.379-.703-.118-1.41.177-1.853.77l-5.737 6.818c-.014-.021-.029-.041-.043-.061l7.952-10.842.018-.028c.605-.907.43-2.131-.399-2.784-.246-.194-.537-.324-.841-.375-.708-.118-1.42.181-1.862.781l-8.288 10.354-.073-.055 8.145-11.141.018-.027c.605-.907.43-2.13-.399-2.784-.246-.194-.537-.323-.842-.375-.708-.118-1.42.182-1.862.783l-9.047 11.427 7.13-9.638.02-.029c.604-.907.428-2.129-.399-2.782-.246-.196-.537-.325-.842-.376-.714-.119-1.431.185-1.864.784l-10.441 14.084 1.405-6.617c.265-1.204-.404-2.407-1.526-2.741l-.737-.157s-5.029 13.234-5.873 16.375c-.372 1.385-.523 2.486-.203 4.734l-7.95 10.288h18.002l.9-1.713c2.557-.506 4.867-2.023 6.378-4.198.072-.103.143-.208.212-.316l12.145-17.006c.598-.903.423-2.122-.398-2.774" fill="#fff"/><path d="m464.884 390.518c-.336-.267-.733-.445-1.151-.515-.312-.052-.624-.045-.924.017l1.68-2.292.027-.038c.796-1.195.558-2.812-.542-3.68-.334-.263-.73-.439-1.145-.509-.422-.071-.843-.032-1.235.102.271-1.032-.063-2.162-.92-2.839-.335-.264-.73-.44-1.144-.51-.954-.16-1.912.238-2.504 1.036l-.385.487c-.113-.628-.442-1.213-.966-1.627-.335-.265-.731-.442-1.146-.511-.966-.162-1.931.241-2.511 1.045l-8.613 11.618.766-3.609c.34-1.544-.533-3.093-1.987-3.526-.018-.004-.034-.008-.052-.012l-.738-.157c-.323-.07-.647.108-.764.416-.206.542-5.051 13.302-5.893 16.439-.387 1.439-.537 2.589-.259 4.716l-8.101 10.479h1.703l7.623-9.874c.114-.143.163-.327.137-.508-.298-2.096-.177-3.11.188-4.466.729-2.715 4.701-13.268 5.649-15.776l.148.032c.773.244 1.229 1.094 1.039 1.955l-1.405 6.617c-.065.306.092.618.379.748.286.129.624.041.812-.212l10.446-14.09c.286-.396.751-.595 1.211-.517.194.033.381.117.539.242.557.439.669 1.268.265 1.876l-7.139 9.651c-.217.293-.159.706.131.929.29.22.704.17.93-.116l9.047-11.428c.005-.006.01-.012.015-.019.292-.396.757-.597 1.213-.519.193.033.38.116.538.24.558.44.67 1.269.267 1.876l-8.156 11.157c-.216.294-.155.707.136.927l.072.055c.288.219.699.169.926-.115l8.288-10.353c.005-.007.011-.015.016-.022.292-.396.758-.595 1.213-.518.194.032.38.115.538.24.557.439.671 1.27.265 1.878l-7.962 10.856c-.172.237-.171.558.002.793l.036.049c.119.169.31.274.517.282.207.012.406-.079.54-.237l5.736-6.818c.009-.011.017-.021.025-.031.292-.391.754-.587 1.207-.51.194.032.382.116.541.242.549.437.663 1.258.263 1.874l-12.139 16.995c-.006.009-.013.018-.018.026-.065.102-.131.201-.199.297-1.403 2.022-3.575 3.452-5.958 3.923-.185.037-.347.151-.443.313l-1.108 2.056h1.559l.545-1.12c2.604-.594 4.962-2.188 6.504-4.409.072-.105.143-.212.215-.322l12.136-16.992c.005-.007.01-.014.014-.02.787-1.19.55-2.801-.54-3.667" fill="#16547a"/></g><path d="m426.828 385.454c0 1.414-1.146 2.56-2.559 2.56-1.414 0-2.559-1.146-2.559-2.56 0-1.413 1.145-2.559 2.559-2.559 1.413 0 2.559 1.146 2.559 2.559" fill="#ec5530" fill-rule="nonzero"/><path d="m424.27 390.996c-3.056 0-5.542-2.485-5.542-5.542 0-3.056 2.486-5.541 5.542-5.541s5.541 2.485 5.541 5.541c0 3.057-2.485 5.542-5.541 5.542z" fill="none" stroke="#ec5530"/><path d="m424.27 393.867c-4.639 0-8.413-3.774-8.413-8.413 0-4.638 3.774-8.412 8.413-8.412 4.638 0 8.412 3.774 8.412 8.412 0 4.639-3.774 8.413-8.412 8.413z" fill="none" stroke="#ec5530"/><path d="m487.411 382.108c0 1.414-1.146 2.56-2.559 2.56-1.414 0-2.559-1.146-2.559-2.56 0-1.413 1.145-2.559 2.559-2.559 1.413 0 2.559 1.146 2.559 2.559" fill="#ec5530" fill-rule="nonzero"/><path d="m484.853 387.65c-3.056 0-5.542-2.485-5.542-5.542 0-3.056 2.486-5.541 5.542-5.541s5.541 2.485 5.541 5.541c0 3.057-2.485 5.542-5.541 5.542z" fill="none" stroke="#ec5530"/><path d="m484.853 390.522c-4.639 0-8.412-3.774-8.412-8.413 0-4.638 3.773-8.412 8.412-8.412s8.412 3.774 8.412 8.412c0 4.639-3.773 8.413-8.412 8.413z" fill="none" stroke="#ec5530"/><path d="m453.715 400.531c0 1.414-1.146 2.56-2.56 2.56-1.413 0-2.559-1.146-2.559-2.56 0-1.413 1.146-2.559 2.559-2.559 1.414 0 2.56 1.146 2.56 2.559" fill="#ec5530" fill-rule="nonzero"/><path d="m451.156 406.073c-3.056 0-5.542-2.486-5.542-5.542s2.486-5.541 5.542-5.541 5.542 2.485 5.542 5.541-2.486 5.542-5.542 5.542z" fill="none" stroke="#ec5530"/><path d="m451.156 408.944c-4.639 0-8.412-3.774-8.412-8.413s3.773-8.412 8.412-8.412 8.412 3.773 8.412 8.412-3.773 8.413-8.412 8.413z" fill="none" stroke="#ec5530"/><path d="m502.222 364.56c0 26.358-21.367 47.727-47.726 47.727-26.358 0-47.725-21.369-47.725-47.727 0-26.357 21.367-47.726 47.725-47.726 26.359 0 47.726 21.369 47.726 47.726" fill="#33da97" fill-rule="nonzero"/><g clip-path="url(#b)" fill-rule="nonzero"><path d="m487.424 378.444c-.142-.05-14.155-4.955-15.666-5.562-.349-.14-.8-.304-1.276-.478-1.021-.371-2.289-.832-3.037-1.241-.28-.154-.456-.457-.459-.794l-.071-7.032-9.63 2.155-10.063-2.149-.071 7.079c-.003.317-.165.613-.421.771-.756.466-2.066.972-3.119 1.379-.29.112-.559.216-.792.31-1.51.607-15.524 5.512-15.663 5.561-.279.096-6.851 2.427-8.3 9.025-.799 3.639-1.212 20.923-1.419 22.037h79.703c-.206-1.113-.619-18.396-1.419-22.037-1.448-6.598-8.022-8.929-8.297-9.024" fill="#fff"/><path d="m418.24 408.769c.054-.868.118-2.354.214-4.602.239-5.643.601-14.172 1.122-16.541 1.359-6.194 7.558-8.395 7.824-8.487.141-.05 14.167-4.96 15.694-5.573.23-.093.497-.195.784-.307 1.08-.417 2.424-.936 3.239-1.439.47-.289.765-.822.77-1.391l.063-6.177 9.183 1.961c.103.023.211.022.314-.002l8.741-1.957.062 6.123c.007.603.329 1.152.842 1.432.795.436 2.092.907 3.14 1.288.471.172.915.333 1.252.469 1.459.586 14.228 5.059 15.679 5.567.001 0 .02.007.021.008.263.091 6.458 2.29 7.819 8.485.52 2.371.882 10.902 1.122 16.547.094 2.244.159 3.729.214 4.596zm79.355-4.658c-.255-6.037-.607-14.305-1.154-16.8-1.536-6.993-8.482-9.461-8.791-9.567-5.255-1.84-14.456-5.079-15.616-5.544-.36-.145-.816-.311-1.306-.489-.994-.361-2.231-.811-2.929-1.194-.038-.019-.076-.076-.077-.154l-.071-7.033c-.002-.222-.104-.432-.278-.57-.174-.137-.402-.189-.618-.141l-9.472 2.121-9.906-2.116c-.217-.045-.442.007-.615.146-.172.138-.273.346-.276.567l-.071 7.078c0 .071-.036.13-.071.152-.7.431-1.973.924-2.998 1.319-.293.113-.565.219-.801.314-1.496.601-15.491 5.5-15.628 5.548-.295.101-7.244 2.571-8.78 9.563-.546 2.493-.898 10.759-1.155 16.794-.107 2.541-.209 4.94-.268 5.266-.04.214.017.436.157.605.14.168.348.266.566.266h79.703c.219 0 .426-.099.566-.267.14-.167.198-.39.159-.604-.06-.326-.161-2.723-.27-5.26" fill="#16547a"/><path d="m496.286 387.336c-1.521-6.925-8.392-9.361-8.683-9.461-.135-.048-14.137-4.949-15.635-5.552-.358-.143-.813-.308-1.295-.484-1.001-.364-2.248-.817-2.958-1.206-.091-.05-.149-.153-.151-.271l-.063-6.297-.015-1.469-1.388.31-8.816 1.974-9.254-1.976-1.378-.295-.014 1.456-.065 6.351c-.001.109-.054.21-.138.262-.711.439-2.048.956-3.024 1.333-.289.111-.562.217-.801.312-1.498.603-15.5 5.504-15.64 5.554-.286.098-7.157 2.534-8.677 9.459-.802 3.65-1.217 10.926-1.424 12.042l-.02.111h1.179c.214-1.145.625-8.383 1.395-11.887 1.392-6.346 7.918-8.589 7.918-8.589s14.149-4.953 15.689-5.573c1.088-.436 2.981-1.105 3.998-1.732.432-.267.697-.752.703-1.279l.065-6.351 9.494 2.028 9.055-2.028.063 6.298c.006.555.301 1.061.768 1.316 1.138.624 3.277 1.308 4.374 1.748 1.54.62 15.69 5.573 15.69 5.573s6.525 2.243 7.918 8.589c.769 3.504 1.18 10.742 1.394 11.887h1.179l-.02-.111c-.207-1.116-.622-8.391-1.423-12.042" fill="#0a322b"/><path d="m473.133 345.594c-.666 0-1.177.758-1.366 1.084l-.01.018-.159.32-1.919-13.31-10.881-5.692h-3.019l-10.925 4.364-1.874 14.638-.16-.32-.01-.018c-.189-.326-.7-1.084-1.365-1.084-.274 0-.768.128-1.011.982-.313 1.101.233 4.514.447 5.068l1.831 4.676c.068.173.703 1.692 1.9 1.692.084 0 .167-.008.25-.022.036.143.072.286.107.428.391 1.572.708 2.89.905 3.72.205.863.548 1.673 1.018 2.404.559.872 1.498 2.25 2.786 3.86 2.392 2.987 5.2 3.19 5.318 3.198l.017.001h4.551l.017-.001c.118-.008 2.926-.211 5.318-3.198 1.289-1.61 2.226-2.988 2.786-3.86.47-.731.812-1.541 1.018-2.404.197-.826.513-2.143.905-3.72.036-.142.071-.285.107-.428.083.014.166.022.249.022 1.197 0 1.833-1.519 1.901-1.694l1.83-4.674c.214-.554.761-3.967.448-5.068-.243-.854-.738-.982-1.01-.982" fill="#fff"/><path d="m473.01 351.375-1.829 4.672c-.135.342-.617 1.228-1.217 1.228-.039 0-.078-.004-.116-.01-.382-.07-.753.169-.847.546l-.107.429c-.423 1.703-.75 3.066-.907 3.727-.186.783-.497 1.515-.921 2.178-.551.857-1.474 2.212-2.743 3.796-2.116 2.644-4.522 2.902-4.785 2.923h-4.502c-.162-.011-2.624-.225-4.783-2.923-1.268-1.584-2.191-2.939-2.742-3.796-.425-.663-.734-1.395-.921-2.178-.198-.836-.517-2.161-.906-3.727l-.108-.43c-.094-.376-.464-.615-.847-.545-.038.006-.076.01-.116.01-.601 0-1.082-.884-1.215-1.224l-1.83-4.672c-.176-.456-.684-3.694-.426-4.602.061-.216.173-.447.303-.447.149 0 .451.245.726.715l.149.299c.144.29.461.453.782.398.319-.054.566-.31.607-.633l1.821-14.209 10.39-4.15h2.697l10.387 5.435 1.865 12.936c.046.318.294.57.613.622.318.05.632-.111.775-.399l.149-.3c.27-.464.576-.714.727-.714.129 0 .24.231.302.447.258.908-.25 4.146-.425 4.598m.123-6.518c-.404 0-.755.146-1.052.356l-1.674-11.611c-.034-.235-.177-.438-.387-.548l-10.88-5.693c-.106-.054-.223-.083-.342-.083h-3.019c-.093 0-.186.018-.273.052l-10.925 4.364c-.249.099-.424.325-.457.59l-1.654 12.911c-.29-.2-.633-.338-1.025-.338-.303 0-1.319.11-1.719 1.517-.381 1.341.245 4.957.47 5.538l1.831 4.678c.132.336.83 1.919 2.259 2.134.373 1.504.679 2.774.871 3.584.226.945.601 1.831 1.115 2.632.57.887 1.524 2.289 2.832 3.921 1.058 1.323 2.373 2.338 3.802 2.936 1.122.47 1.955.531 2.045.537l.018.001c.015.001.029.001.044.001h4.551c.014 0 .047-.001.061-.002.092-.006.925-.067 2.046-.537 1.429-.598 2.743-1.613 3.803-2.936 1.307-1.632 2.261-3.034 2.831-3.921.515-.802.89-1.687 1.114-2.632.153-.642.466-1.948.871-3.584 1.429-.215 2.128-1.799 2.262-2.138l1.831-4.677c.223-.579.85-4.195.468-5.534-.401-1.408-1.416-1.518-1.718-1.518" fill="#16547a"/><path d="m474.699 346.406c-.362-1.274-1.216-1.412-1.565-1.412-.303 0-.574.092-.813.232l.095-1.198h-1.162l-.47 5.94 1.48-2.982s.46-.793.87-.793c.173 0 .337.144.454.552.262.924-.252 4.28-.428 4.674l-1.83 4.674s-.522 1.319-1.365 1.319c-.134 0-.277-.033-.426-.11-.084-.044-.157-.081-.221-.113-.092.362-.182.724-.27 1.079-.386 1.554-.702 2.864-.907 3.726-.188.79-.503 1.539-.938 2.217-.567.883-1.488 2.232-2.75 3.808-2.258 2.821-4.905 2.982-4.905 2.982h-4.517s-2.647-.161-4.906-2.982c-1.261-1.576-2.183-2.925-2.75-3.808-.435-.678-.75-1.427-.938-2.217-.205-.862-.52-2.172-.907-3.726-.088-.355-.179-.717-.27-1.079-.064.032-.136.069-.22.113-.151.077-.292.11-.427.11-.843 0-1.364-1.319-1.364-1.319l-1.83-4.674c-.177-.394-.692-3.75-.429-4.674.116-.409.281-.552.455-.552.408 0 .869.793.869.793l1.481 2.982-.47-5.94h-.545c-.232 0-.44-.037-.626-.103l.103 1.301c-.239-.14-.51-.232-.812-.232-.35 0-1.204.138-1.566 1.412-.359 1.262.198 4.743.466 5.463l1.83 4.674c.032.082.202.494.508.923.594.831 1.242 1.085 1.734 1.135.386 1.551.699 2.856.895 3.679.222.932.591 1.805 1.098 2.594.567.884 1.518 2.28 2.823 3.91 2.55 3.184 5.601 3.405 5.73 3.413l.034.002h4.585l.033-.002c.129-.008 3.18-.229 5.73-3.413 1.305-1.63 2.255-3.026 2.824-3.91.506-.789.876-1.662 1.096-2.594.197-.823.51-2.127.896-3.679.492-.05 1.14-.304 1.733-1.135.307-.429.477-.841.508-.919l1.831-4.678h-.001c.269-.72.825-4.201.467-5.463" fill="#0a322b"/><path d="m468.691 329.423s-2.22-5.017-5.724-5.5-11.972-.786-15.243 2.115c-3.27 2.902-5.314 5.138-5.198 7.676 0 0-1.519 7.491-.116 13.354.43 1.801.772 3.112 1.041 4.063.136.485.849.393.858-.111.062-3.582.236-9.758.729-10.903.701-1.631 1.752-4.715 5.489-4.715 3.738 0 13.375.303 15.244-1.329 0 0 3.212 2.599 4.029 7.313.495 2.853.664 6.069.721 8.377.013.513.743.589.863.091.277-1.143.567-2.564.779-4.157.484-3.654.616-11.198-.552-13.313s-2.92-2.961-2.92-2.961" fill="#0a322b"/><path d="m487.757 377.758c-.102-.036-10.776-3.772-14.509-5.131l-.576-.21-.469.404c-3.297 2.841-8.804 4.538-14.735 4.538-.029 0-.06-.001-.09-.001s-.059.001-.09.001c-5.929 0-11.438-1.697-14.734-4.538l-.47-.404-.576.21c-3.732 1.359-14.406 5.095-14.509 5.131-.289.1-7.83 1.912-10.152 12.516-1.925 8.788-3.74 25.659-3.944 26.774h88.951c-.204-1.115-2.02-17.986-3.945-26.774-2.322-10.604-9.862-12.416-10.152-12.516" fill="#00a183"/><path d="m464.468 391.041c-.247-.197-.539-.328-.846-.379-.703-.118-1.41.177-1.853.77l-5.737 6.818c-.014-.021-.029-.041-.043-.061l7.952-10.842.018-.028c.605-.907.43-2.131-.399-2.784-.246-.194-.537-.324-.841-.375-.708-.118-1.42.181-1.862.781l-8.288 10.354-.073-.055 8.145-11.141.018-.027c.605-.907.43-2.13-.399-2.784-.246-.194-.537-.323-.842-.375-.708-.118-1.42.182-1.862.783l-9.047 11.427 7.13-9.638.02-.029c.604-.907.428-2.129-.399-2.782-.246-.196-.537-.325-.842-.376-.714-.119-1.431.185-1.864.784l-10.441 14.084 1.405-6.617c.265-1.204-.404-2.407-1.526-2.741l-.737-.157s-5.029 13.234-5.873 16.375c-.372 1.385-.523 2.486-.203 4.734l-7.95 10.288h18.002l.9-1.713c2.557-.506 4.867-2.023 6.378-4.198.072-.103.143-.208.212-.316l12.145-17.006c.598-.903.423-2.122-.398-2.774" fill="#fff"/><path d="m464.884 390.518c-.336-.267-.733-.445-1.151-.515-.312-.052-.624-.045-.924.017l1.68-2.292.027-.038c.796-1.195.558-2.812-.542-3.68-.334-.263-.73-.439-1.145-.509-.422-.071-.843-.032-1.235.102.271-1.032-.063-2.162-.92-2.839-.335-.264-.73-.44-1.144-.51-.954-.16-1.912.238-2.504 1.036l-.385.487c-.113-.628-.442-1.213-.966-1.627-.335-.265-.731-.442-1.146-.511-.966-.162-1.931.241-2.511 1.045l-8.613 11.618.766-3.609c.34-1.544-.533-3.093-1.987-3.526-.018-.004-.034-.008-.052-.012l-.738-.157c-.323-.07-.647.108-.764.416-.206.542-5.051 13.302-5.893 16.439-.387 1.439-.537 2.589-.259 4.716l-8.101 10.479h1.703l7.623-9.874c.114-.143.163-.327.137-.508-.298-2.096-.177-3.11.188-4.466.729-2.715 4.701-13.268 5.649-15.776l.148.032c.773.244 1.229 1.094 1.039 1.955l-1.405 6.617c-.065.306.092.618.379.748.286.129.624.041.812-.212l10.446-14.09c.286-.396.751-.595 1.211-.517.194.033.381.117.539.242.557.439.669 1.268.265 1.876l-7.139 9.651c-.217.293-.159.706.131.929.29.22.704.17.93-.116l9.047-11.428c.005-.006.01-.012.015-.019.292-.396.757-.597 1.213-.519.193.033.38.116.538.24.558.44.67 1.269.267 1.876l-8.156 11.157c-.216.294-.155.707.136.927l.072.055c.288.219.699.169.926-.115l8.288-10.353c.005-.007.011-.015.016-.022.292-.396.758-.595 1.213-.518.194.032.38.115.538.24.557.439.671 1.27.265 1.878l-7.962 10.856c-.172.237-.171.558.002.793l.036.049c.119.169.31.274.517.282.207.012.406-.079.54-.237l5.736-6.818c.009-.011.017-.021.025-.031.292-.391.754-.587 1.207-.51.194.032.382.116.541.242.549.437.663 1.258.263 1.874l-12.139 16.995c-.006.009-.013.018-.018.026-.065.102-.131.201-.199.297-1.403 2.022-3.575 3.452-5.958 3.923-.185.037-.347.151-.443.313l-1.108 2.056h1.559l.545-1.12c2.604-.594 4.962-2.188 6.504-4.409.072-.105.143-.212.215-.322l12.136-16.992c.005-.007.01-.014.014-.02.787-1.19.55-2.801-.54-3.667" fill="#0a322b"/></g><path d="m426.828 385.454c0 1.414-1.146 2.56-2.559 2.56-1.414 0-2.559-1.146-2.559-2.56 0-1.413 1.145-2.559 2.559-2.559 1.413 0 2.559 1.146 2.559 2.559" fill="#ff3494" fill-rule="nonzero"/><path d="m424.27 390.996c-3.056 0-5.542-2.485-5.542-5.542 0-3.056 2.486-5.541 5.542-5.541s5.541 2.485 5.541 5.541c0 3.057-2.485 5.542-5.541 5.542z" fill="none" stroke="#ff3494"/><path d="m424.27 393.867c-4.639 0-8.413-3.774-8.413-8.413 0-4.638 3.774-8.412 8.413-8.412 4.638 0 8.412 3.774 8.412 8.412 0 4.639-3.774 8.413-8.412 8.413z" fill="none" stroke="#ff3494"/><path d="m487.411 382.108c0 1.414-1.146 2.56-2.559 2.56-1.414 0-2.559-1.146-2.559-2.56 0-1.413 1.145-2.559 2.559-2.559 1.413 0 2.559 1.146 2.559 2.559" fill="#ff3494" fill-rule="nonzero"/><path d="m484.853 387.65c-3.056 0-5.542-2.485-5.542-5.542 0-3.056 2.486-5.541 5.542-5.541s5.541 2.485 5.541 5.541c0 3.057-2.485 5.542-5.541 5.542z" fill="none" stroke="#ff3494"/><path d="m484.853 390.522c-4.639 0-8.412-3.774-8.412-8.413 0-4.638 3.773-8.412 8.412-8.412s8.412 3.774 8.412 8.412c0 4.639-3.773 8.413-8.412 8.413z" fill="none" stroke="#ff3494"/><path d="m453.715 400.531c0 1.414-1.146 2.56-2.56 2.56-1.413 0-2.559-1.146-2.559-2.56 0-1.413 1.146-2.559 2.559-2.559 1.414 0 2.56 1.146 2.56 2.559" fill="#ff3494" fill-rule="nonzero"/><path d="m451.156 406.073c-3.056 0-5.542-2.486-5.542-5.542s2.486-5.541 5.542-5.541 5.542 2.485 5.542 5.541-2.486 5.542-5.542 5.542z" fill="none" stroke="#ff3494"/><path d="m451.156 408.944c-4.639 0-8.412-3.774-8.412-8.413s3.773-8.412 8.412-8.412 8.412 3.773 8.412 8.412-3.773 8.413-8.412 8.413z" fill="none" stroke="#ff3494"/><g fill-rule="nonzero"><path d="m482.223 346.199-.443 3.969.339.636 3.417-1.816-.501-.944-2.009 1.068.436-3.951-.344-.649-3.199 1.701.502.944z" fill="#0a322b"/><path d="m488.256 337.307-2.216 4.648.144.919 4.93-.77-.212-1.361-2.898.452 2.201-4.628-.146-.936-4.616.721.213 1.361z" fill="#0a322b"/><path d="m494.065 327.035-.919 5.662.44.939 5.034-2.364-.654-1.39-2.957 1.389.909-5.637-.449-.955-4.71 2.211.653 1.39z" fill="#0a322b"/><path d="m510.164 324.217-5.32-.403 5.822-7.282.13-1.718-8.473-.642-.189 2.5 4.772.361-5.856 7.311-.129 1.687 9.053.686z" fill="#0a322b"/></g></g></svg>