<svg clip-rule="evenodd" fill-rule="evenodd" stroke-linejoin="round" stroke-miterlimit="1.41421" viewBox="0 0 811 811" xmlns="http://www.w3.org/2000/svg"><g fill-rule="nonzero" transform="matrix(8.33333 0 0 8.33333 -593.193 -2641.13)"><path d="m143.261 378.859c-.138-.102-.28-.207-.406-.315l-1.626-1.392c-.997-.855-2.129-1.93-2.967-3.436-.488-.877-.791-1.816-1.084-2.724-.072-.225-.144-.448-.219-.671l-2.424-7.208c-.007-.024-.016-.045-.025-.067-.062-.152-.191-.468.007-.804.383-.648 1.555-.61 1.605-.607 2.021.079 2.875 2.39 3.197 3.26.069.187.137.389.21.599.385 1.13.864 2.534 1.897 2.832-.017-.402-.062-.836-.139-1.322-.328-2.112-2.462-6.777-2.907-7.261-1.134-1.145-2.962-2.776-4.347-3.876-.137-.11-.26-.209-.377-.326-.205 1.199-.532 2.424-.984 3.668l1.306 8.743c.084.454-.143 1.006-.583 1.41-.473.436-1.07.602-1.65.465h-1.455l-.865 3.726-3.465 5.582c-.725 2.009-2.882 3.109-4.939 2.508l-5.621-1.687-3.302 7.182.853 3.325c.089.019.136.028.136.028s5.62 9.315 8.564 19.485c.148.162.297.323.444.487.675.74 1.362 1.456 2.044 2.187.394.411.789.823 1.185 1.234 8.784-.991 16.86-4.317 23.587-9.349-1.074-7.5-4.708-23.936-5.06-25.179-.14-.162-.378-.339-.59-.497" fill="#33da97"/><path d="m95.264 379.952 5.038-8.967c-.507-1.331-1.674-4.615-2.483-8.603-.583-2.497-.83-4.464-.816-6.253-.127-2.631.057-5.292.772-7.713 2.67-9.052 10.566-15.165 21.117-12.025 4.666 1.39 18.191 8.545 18.191 8.545s.089 3.75-3.305 5.67c.032.247.059.495.08.745.164-.006.299.06.363.1.17.064.307.168.417.252.031.023.061.047.088.064l8.628 5.651c.512.336.611.554.789 1.014l6.046 15.625c.067.173.132.347.197.521.123.329.25.67.388.991.14.328.85 1.998 1.829 4.301 1.742 4.099 4.475 10.528 6.253 14.693 6.022-8.096 9.588-18.13 9.588-28.996 0-26.858-21.773-48.631-48.631-48.631s-48.63 21.773-48.63 48.631c0 10.605 3.396 20.415 9.158 28.406 5.816-8.068 13.991-13.425 14.923-14.021" fill="#33da97"/><path d="m114.767 378.554 6.583 1.977c1.479.432 3.033-.374 3.535-1.836l.022-.062 3.43-5.528 1.032-4.438h2.534l.08.024c.23.066.427-.028.55-.119.207-.153.296-.353.302-.418l-.003-.019-1.351-9.048.052-.139c1.042-2.816 1.422-5.458 1.144-7.905-1.808.152-9.422-.525-12.68.522-2.057.661-3.951 4.605-3.951 4.605s-4.393-2.512-5.88 2.576c-.934 3.2.315 5 .315 5s-5.027 4.212-6.682 5.592c-.564.471-1.425 1.074-2.118 1.543-.005.011-.007.024-.012.035l-.028.057-5.495 9.779c1.755 1.832 3.6 3.337 5.4 4.569.823.498 1.762 1.048 2.842 1.659.756.428 1.513.845 2.247 1.245 2.095.982 3.876 1.577 5.033 1.909l-.797-3.105z" fill="#fff"/><path d="m97.819 362.382c-.399-1.964-.712-4.098-.815-6.253-.015 1.789.232 3.756.815 6.253" fill="#284d7b"/><path d="m96.146 380.752 5.495-9.779.028-.057c.005-.012.007-.024.012-.035-.633.428-1.127.744-1.127.744s-.095-.227-.252-.64l-5.038 8.967c.057-.036.09-.056.09-.056.261.293.525.578.792.856" fill="#0a322b"/><path d="m133.007 350.984c-.063.026-.176.045-.33.059.278 2.446-.103 5.088-1.145 7.904l-.051.14 1.351 9.047.003.019c-.006.065-.096.266-.303.418-.123.092-.319.185-.549.119l-.08-.023h-2.535l-1.031 4.437-3.431 5.528-.021.062c-.502 1.462-2.057 2.269-3.535 1.836l-6.583-1.977-3.897 8.475.798 3.105c.63.181 1.074.285 1.283.33l-.853-3.325 3.302-7.182 5.621 1.687c2.057.601 4.214-.499 4.939-2.508l3.465-5.582.865-3.726h1.455c.58.137 1.177-.029 1.65-.465.44-.404.667-.956.583-1.41l-1.306-8.743c.452-1.244.779-2.469.983-3.668-.133-.135-.257-.293-.38-.522-.684-1.269-.667-2.516.045-3.333l.056-.066c.166-.197.336-.262.482-.269-.021-.25-.048-.498-.08-.745-.24.136-.496.263-.771.378" fill="#0a322b"/><path d="m101.546 385.32c1.784 1.22 3.523 2.17 5.089 2.904-.735-.399-1.491-.817-2.247-1.245-1.08-.61-2.02-1.161-2.842-1.659" fill="#284d7b"/><path d="m101.681 370.881c.693-.469 1.554-1.072 2.118-1.543 1.655-1.38 6.682-5.592 6.682-5.592s-1.249-1.801-.315-5c1.487-5.088 5.88-2.576 5.88-2.576s1.894-3.944 3.951-4.605c3.258-1.047 10.871-.371 12.68-.522.154-.014.267-.032.33-.058.276-.116.531-.243.771-.378 3.394-1.92 3.305-5.67 3.305-5.67s-13.525-7.156-18.191-8.545c-10.551-3.141-18.447 2.972-21.117 12.024-.715 2.421-.899 5.082-.772 7.713.104 2.155.416 4.289.816 6.253.809 3.988 1.976 7.272 2.483 8.603.157.414.252.64.252.64s.494-.316 1.127-.744" fill="#0a322b"/><path d="m94.37 396.813c3.55-4.411 10.003-5.109 14.414-1.56.54.435 1.059.957 1.485 1.469l1.979 2.403 1.916 2.303c.628.762 1.295 1.526 1.944 2.289.651.771 1.313 1.519 1.973 2.277.658.759 1.328 1.502 1.996 2.249.519.587 1.046 1.159 1.573 1.734-2.942-10.17-8.563-19.486-8.563-19.486s-.047-.008-.135-.029c-.21-.044-.654-.147-1.284-.328-1.156-.333-2.938-.926-5.033-1.91-1.566-.733-3.304-1.683-5.089-2.903-1.801-1.232-3.646-2.737-5.4-4.569-.267-.278-.532-.564-.792-.857 0 0-.033.022-.089.058-.932.595-9.109 5.953-14.923 14.021 3.308 4.591 7.399 8.581 12.076 11.777-.759-3.012-.146-6.332 1.952-8.938" fill="#00a183"/><path d="m149.706 376.026c-.148-.347-.28-.7-.407-1.042-.065-.17-.127-.339-.193-.508l-6.045-15.627c-.124-.316-.124-.316-.344-.46l-8.627-5.65c-.017-.012-.036-.025-.055-.037-.224.516-.031 1.224.262 1.767.116.217.203.286.46.49 1.436 1.142 3.268 2.775 4.45 3.969.687.695 2.887 5.709 3.229 7.897.095.623.147 1.174.157 1.683.001.005.002.02.004.037.015.163.038.385-.078.595-.21.383-.698.495-1.373.313-1.645-.446-2.264-2.26-2.716-3.584-.069-.201-.134-.394-.201-.572-.421-1.142-1.048-2.459-2.153-2.501-.113-.006-.276.012-.408.04l2.391 7.115c.077.227.151.456.224.684.288.895.561 1.74.992 2.517.75 1.346 1.789 2.331 2.708 3.118l1.626 1.392c.096.082.216.171.343.265.306.228.652.485.885.807.087.121.149.208.959 3.843.539 2.418 1.173 5.391 1.743 8.161.718 3.493 1.831 9.086 2.424 12.985 3.001-2.374 5.717-5.093 8.082-8.1-1.725-4.04-4.568-10.728-6.511-15.299-.977-2.301-1.687-3.97-1.828-4.298" fill="#fff"/><path d="m150.774 375.569c-.138-.321-.265-.662-.388-.991-.065-.174-.13-.348-.197-.521l-6.046-15.625c-.178-.461-.277-.678-.789-1.014l-8.628-5.651c-.027-.017-.056-.041-.088-.064-.11-.084-.247-.189-.417-.252-.064-.04-.199-.107-.363-.1-.146.007-.315.072-.481.269l-.056.066c-.713.817-.73 2.064-.046 3.333.123.229.247.387.381.522.117.117.24.216.378.326 1.385 1.1 3.213 2.731 4.346 3.876.446.484 2.58 5.149 2.908 7.261.076.486.122.92.138 1.322-1.033-.298-1.511-1.702-1.897-2.832-.072-.21-.141-.412-.21-.599-.321-.87-1.176-3.18-3.196-3.26-.051-.003-1.223-.041-1.606.607-.198.336-.069.652-.007.805.009.021.018.043.026.066l2.424 7.208c.075.223.146.446.218.671.293.908.596 1.848 1.084 2.724.838 1.506 1.97 2.582 2.967 3.436l1.626 1.392c.126.108.269.213.406.315.212.158.451.335.59.497.353 1.243 3.986 17.679 5.061 25.179.355-.266.705-.537 1.051-.812-.592-3.899-1.706-9.492-2.423-12.985-.571-2.77-1.205-5.743-1.744-8.161-.809-3.635-.872-3.722-.959-3.843-.232-.322-.579-.579-.884-.807-.127-.094-.247-.183-.343-.265l-1.626-1.392c-.919-.787-1.959-1.772-2.708-3.118-.432-.777-.704-1.622-.992-2.517-.074-.228-.148-.457-.225-.684l-2.391-7.115c.132-.028.295-.046.409-.04 1.104.043 1.731 1.359 2.153 2.502.066.177.132.37.2.571.452 1.324 1.072 3.138 2.717 3.584.675.182 1.162.07 1.373-.313.115-.21.093-.432.077-.595-.002-.017-.003-.032-.004-.037-.009-.509-.061-1.06-.158-1.683-.341-2.188-2.54-7.202-3.227-7.897-1.183-1.194-3.014-2.827-4.452-3.969-.255-.204-.342-.273-.459-.49-.293-.543-.486-1.251-.261-1.767.018.013.037.025.054.037l8.627 5.65c.221.144.221.144.343.46l6.047 15.627c.065.169.128.338.191.508.128.342.26.695.409 1.042.14.328.85 1.997 1.828 4.298 1.943 4.571 4.786 11.259 6.51 15.299.276-.349.545-.702.811-1.06-1.777-4.165-4.511-10.595-6.253-14.693-.978-2.303-1.688-3.973-1.829-4.301" fill="#0a322b"/><path d="m122.095 410.463c-.147-.163-.296-.324-.444-.486-.528-.575-1.055-1.148-1.575-1.735-.667-.747-1.336-1.488-1.995-2.249-.66-.757-1.322-1.506-1.972-2.275-.65-.765-1.317-1.528-1.945-2.29l-1.916-2.304-1.978-2.402c-.428-.512-.946-1.034-1.486-1.469-4.411-3.55-10.864-2.852-14.414 1.56-2.097 2.606-2.711 5.925-1.952 8.937 7.802 5.329 17.234 8.447 27.395 8.447 1.864 0 3.702-.108 5.511-.312-.396-.411-.791-.823-1.185-1.234-.682-.732-1.369-1.448-2.044-2.188" fill="#00a183"/><g fill="#ff3494"><path d="m130.762 337.136c.022-.144.266-1.211.495-2.781.325-2.238.665-5.19.662-5.306-.04.088-1.112 2.905-1.939 5.425-.873 2.659-1.502 5.025-1.502 5.025s3.647-.515 3.881-.533l-.006.034s-.405 1.805-.69 3.807c-.355 2.504-.604 5.329-.6 5.454.043-.097 1.007-2.73 1.855-5.465.95-3.063 1.795-6.26 1.795-6.26s-3.702.577-3.951.6"/><path d="m142.249 341.914c.1-.105.907-.845 1.988-2.006 1.541-1.654 3.5-3.89 3.564-3.986-.082.05-2.568 1.756-4.682 3.358-2.23 1.69-4.094 3.279-4.094 3.279s3.293 1.651 3.495 1.768l-.024.025s-1.36 1.253-2.732 2.739c-1.717 1.856-3.53 4.038-3.597 4.143.09-.055 2.381-1.673 4.634-3.438 2.525-1.979 5.038-4.127 5.038-4.127s-3.373-1.633-3.59-1.755"/></g></g></svg>