<svg clip-rule="evenodd" fill-rule="evenodd" stroke-linejoin="round" stroke-miterlimit="2" viewBox="0 0 1926 1335" xmlns="http://www.w3.org/2000/svg"><g transform="translate(-500.356 -284.42)"><g fill-rule="nonzero"><path d="m657.16 500.02c154.43 31.26 298.83 101.97 450.68 144.81s322.28 55.11 459.23-25.58c75.14-44.28 133.82-112.74 194.4-176.83 60.59-64.09 127.28-126.68 209.6-153.75 82.32-27.08 183.99-9.31 234.43 63.7 45.74 66.21 39.78 159.25 82.39 227.68 69.64 111.84 225.58 106.78 341.79 162.51 161.15 77.28 240.42 286.19 205.37 467.45-35.05 181.25-165.51 331.1-320.36 421.31-154.84 90.21-332.61 127.86-508.65 150.68-225.1 29.17-452.84 36.09-679.19 20.65-209.24-14.28-419.72-48.37-612.82-133.54-193.11-85.17-368.8-225.17-472.14-415.34-78.42-144.32-111.11-318.88-80.32-482.47 27.74-147.4 68.69-228.53 216.62-268.22 90.74-24.35 187.52-21.57 278.97-3.06z" fill="#a4e0d2" transform="matrix(.71504 0 0 .71504 393.027 297.403)"/><path d="m2550.76 587.94c32.44.76 66.1-7.87 90.81-29.78 38-33.69 47.6-93.04 34.92-143.32-26-103.11-136.92-171.34-236.54-141.47-95.79 28.72-88.3 160.2-40.58 230.28 34.3 50.35 92.07 82.9 151.39 84.29z" fill="#a4e0d2" transform="translate(-1692.55 18.1126)"/><path d="m1156.12 571.94c-27.26-10.04-54.36-24.08-72.26-47.74-17.9-23.65-24.28-58.82-8.75-84.24 12.2-19.97 34.56-30.01 55.59-38.94 62.37-26.47 124.73-52.95 187.1-79.42 35.11-14.9 70.74-29.95 108.38-34.72 81.51-10.32 191.82 69.07 145.15 164.64-40.87 83.67-164.28 128.59-247.03 138.83-56.46 6.99-114.48 1.36-168.18-18.41z" fill="#a4e0d2"/><path d="m348.26 1405.89c99.95 114.34 228.45 202.64 365.78 263.21 193.11 85.17 403.59 119.26 612.82 133.54 226.35 15.44 454.09 8.52 679.19-20.65 176.04-22.81 353.81-60.46 508.65-150.68 94.51-55.06 179.94-132.34 240.13-225.42z" fill="#7ac4b1" transform="matrix(.71504 0 0 .71504 393.027 297.403)"/><path d="m1275.04 1552.39c0 23.69-70.86 42.89-158.26 42.89s-158.26-19.2-158.26-42.89 70.86-42.89 158.26-42.89 158.26 19.2 158.26 42.89z" fill="#55a08b"/><path d="m1520.38 1567.76c0 26.89-87.94 48.68-196.42 48.68s-196.42-21.8-196.42-48.68c0-26.89 87.94-48.68 196.42-48.68 108.48-.01 196.42 21.79 196.42 48.68z" fill="#55a08b"/><path d="m1785.95 1577.53c0 23.08-70.88 41.79-158.31 41.79s-158.31-18.71-158.31-41.79 70.88-41.79 158.31-41.79c87.43.01 158.31 18.72 158.31 41.79z" fill="#55a08b"/><path d="m1982.19 1568.33c-1.13 25.68-65 43.74-142.67 40.33s-139.72-26.99-138.59-52.68c1.13-25.68 65-43.74 142.67-40.33s139.72 26.99 138.59 52.68z" fill="#55a08b"/><path d="m706.03 775.48c5.57-5.5 8.53-11.81 9.77-18.63l.12-.63c2.2-13.28-1.99-28.44-6.26-43.35 22.74 6.84 46.12 13.52 62.65-2.79l-2-2.02c-16.08 15.86-38.01 9.57-61.29 2.57-6.69-23.37-12.69-45.39 3.39-61.25l-2-2.02c-16.53 16.31-10.16 39.77-3.63 62.61-22.35-6.72-45.3-13.27-61.78 1.98l-.02-.02-1.69 1.67.02.02c-15.47 16.27-9.23 39.31-2.81 61.75-22.36-6.73-45.33-13.28-61.81 2.01l-.02-.02-1.69 1.67.03.03c-15.43 16.27-9.19 39.29-2.77 61.71-20.71-6.23-41.94-12.32-58.06-1.04l1.99 2.02c15.54-10.86 35.57-5.1 56.71 1.26 6.08 21.22 11.57 41.32.5 56.72l1.99 2.02c11.5-15.96 5.69-37.27-.26-58.07 22.74 6.84 46.12 13.52 62.65-2.79 5.57-5.5 8.53-11.81 9.77-18.63l.11-.57c2.22-13.29-1.98-28.48-6.25-43.4 22.73 6.82 46.11 13.5 62.64-2.81zm7.48-38.61-.2-.6c1.01 6.23 1.34 12.2.5 17.82l-48.18-48.83c5.7-.77 11.76-.34 18.06.79l-1.24-.66zm-26.43-30.17c6.58 1.39 13.4 3.42 20.34 5.5 1.99 6.97 3.93 13.81 5.23 20.41zm-24.31-.96 50.51 51.19c-1.29 5.67-3.92 10.93-8.43 15.66l-57.85-58.63c4.79-4.44 10.09-7.01 15.77-8.22zm40.39 68.53c-4.08 3.78-8.53 6.2-13.26 7.58l-52.35-53.06c1.45-4.72 3.92-9.13 7.75-13.16zm-65.72-19.01 25.99 26.34c-6.69-1.39-13.63-3.45-20.69-5.58-2.03-7.09-4-14.05-5.3-20.76zm3.7 22.34c2 7 3.94 13.87 5.25 20.5l-25.67-26.02c6.61 1.39 13.46 3.42 20.42 5.52zm-44.7-6.45 50.55 51.23c-1.3 5.66-3.94 10.91-8.45 15.64l-57.86-58.64c4.79-4.44 10.08-7.01 15.76-8.23zm40.41 68.54c-4.09 3.78-8.54 6.19-13.28 7.56l-52.31-53.02c1.44-4.72 3.91-9.14 7.74-13.18zm-65.67-18.95 25.89 26.23c-6.66-1.39-13.57-3.45-20.6-5.56-2.03-7.05-3.99-13.99-5.29-20.67zm29.27 26.89.87.28-31-31.42.29 1.11c-1.2-7.3-1.49-14.26-.07-20.7l50.35 51.03c-6.38 1.32-13.25.96-20.44-.3zm-1.16-76.98c5.72-.78 11.8-.35 18.12.78l-.96-.31 30.71 31.13-.13-.59c1.01 6.25 1.34 12.24.49 17.88zm67.43 11.58 1.47.81-31.85-32.28.55 1.44c-1.2-7.32-1.49-14.3-.06-20.76l50.39 51.07c-6.4 1.35-13.29.99-20.5-.28z" fill="#7ac4b1" transform="translate(107.097 116.478)"/><path d="m1431.87 412.77-23.29 22.46-32.72-9.4-8.22-33.04-35.69-10.26-26.73 25.78 8.22 33.04-24.4 23.54 8.96 36.04 35.69 10.26 24.4-23.54 32.72 9.4 23.29-22.46 35.69 10.26 26.73-25.78-8.96-36.04zm-120.7-2.74 22.28-21.49 29.74 8.55 7.47 30.03-22.17 21.39-29.88-8.59zm-8.71 86.6-7.47-30.03 22.17-21.39 29.74 8.55 7.47 30.03-22.17 21.39zm86.86-5.58-29.61-8.51-7.5-30.17 22.17-21.39 29.74 8.55 7.47 30.03zm81.26-33.69-22.28 21.49-29.74-8.55-7.47-30.03 22.28-21.49 29.74 8.55z" fill="#7ac4b1"/><path d="m710.47 1228.27c-5.85-6.92-16.2-7.79-23.12-1.95-1.53 1.29-2.74 2.81-3.68 4.46l-29.41-13.48c3.37-8.57 2.06-18.68-4.3-26.21-4.42-5.23-10.46-8.24-16.76-8.98l2.08-33.1c3.62-.08 7.23-1.34 10.21-3.86 6.92-5.84 7.8-16.19 1.95-23.12-5.84-6.92-16.19-7.79-23.12-1.95-6.92 5.85-7.79 16.19-1.95 23.12 2.68 3.17 6.31 5.06 10.11 5.62l-2.08 33.1c-4.75-.04-9.51 1.22-13.75 3.82l-29.08-42.14.15-.12c6.92-5.84 7.79-16.19 1.95-23.12-5.85-6.92-16.2-7.79-23.12-1.95-6.92 5.85-7.79 16.2-1.95 23.12 5.19 6.14 13.92 7.51 20.66 3.65l29.08 42.14c-.29.23-.6.43-.89.68-10.93 9.23-12.3 25.56-3.08 36.49 9.23 10.93 25.56 12.3 36.49 3.08 2.63-2.22 4.7-4.87 6.21-7.74l29.42 13.48c-1.9 5.32-1.02 11.49 2.9 16.12 5.84 6.92 16.19 7.79 23.12 1.95s7.81-16.19 1.96-23.11z" fill="#7ac4b1" transform="translate(181.586)"/><path d="m2487.26 438.85c6.93.38 12.87-4.93 13.25-11.86.02-.35.01-.69 0-1.04l19.47-3.28c2.37 11.25 12.01 19.98 24.03 20.64h.11l-.38 37.97c-6.2.46-11.25 5.45-11.61 11.83-.38 6.93 4.93 12.87 11.86 13.25s12.87-4.93 13.25-11.86c.38-6.76-4.67-12.56-11.36-13.2l.37-37.98c13.38-.41 24.45-10.98 25.2-24.59.8-14.37-10.21-26.66-24.58-27.46s-26.66 10.21-27.46 24.58c-.09 1.6-.01 3.17.18 4.7l-19.35 3.26c-1.1-5.48-5.78-9.75-11.62-10.08-6.93-.38-12.87 4.93-13.25 11.86-.35 6.94 4.96 12.88 11.89 13.26z" fill="#7ac4b1" transform="translate(-1692.55 18.1126)"/><g fill="#7ac4b1" opacity=".5"><path d="m2046.87 606.32c5.56 4.16 13.44 3.02 17.6-2.54.21-.28.4-.57.58-.86l18.02 8.05c-4.26 10.68-1.07 23.28 8.58 30.5l.09.06-21.34 31.4c-5.42-3.05-12.39-1.69-16.22 3.42-4.16 5.56-3.02 13.44 2.54 17.6s13.44 3.02 17.6-2.54c4.06-5.42 3.06-13.05-2.15-17.28l21.35-31.42c11.36 7.07 26.44 4.4 34.6-6.51 8.62-11.52 6.27-27.85-5.26-36.48-11.52-8.62-27.85-6.27-36.48 5.26-.96 1.28-1.76 2.63-2.45 4.02l-17.91-8c2.12-5.18.59-11.32-4.09-14.83-5.56-4.16-13.44-3.02-17.6 2.54-4.15 5.57-3.02 13.45 2.54 17.61z"/><path d="m2172.86 591.59c-2.57-6.45-9.89-9.59-16.34-7.02-6.29 2.51-9.42 9.53-7.18 15.86l-18.8 8.51c.32.64.61 1.29.88 1.96l18.81-8.51c3.03 5.43 9.69 7.91 15.62 5.54 6.44-2.57 9.59-9.88 7.01-16.34z"/></g><path d="m1162.11 1484.67s1.73 28.57 0 38.96-16.02 23.38-21.65 34.63c-5.63 11.26 12.12 13.85 36.8 13.85s32.9-6.49 36.37-12.99c3.46-6.49-10.82-86.59-10.82-86.59z" fill="#602d00"/><path d="m1031.8 927.49s3.46-6.06-2.6-9.09-18.18-5.63-18.18-5.63-22.08-36.37-22.08-41.56c0-4.64 33.14-56.92 40.22-68.03-15.59-5.03-27.5-16.13-34.28-23.84-7.88 16.12-33.96 69.28-42.74 85.37-10.39 19.05 45.46 69.27 45.46 69.27s12.55 26.84 18.62 32.9c6.06 6.06 16.02 3.9 16.02 3.9s6.93-33.77 8.66-36.37c1.72-2.59-9.1-6.92-9.1-6.92z" fill="#fbd0c7"/><path d="m1103.23 1484.67s.43 52.38.43 60.61-25.11 13.85-41.56 13.85-29.44 3.03-48.06 3.03-19.48-8.66-16.88-14.29 48.92-19.48 54.98-32.04c6.06-12.55 3.46-34.2 3.46-34.2z" fill="#602d00"/><path d="m1031.37 951.3s1.3 213 7.79 271.45 12.99 288.17 12.99 292.06c0 2.31 19.17 1.87 34.78 1.17 10.73-.52 19.77-1.17 19.77-1.17s5.2-134.91 5.2-176.47v-125.98c0-18.88-4.88-97.46-5.17-102.37.29 2.68 3.14 28.63 7.17 63.54 7.74 67.23 19.87 167.54 26.57 198.58 10.39 48.06 14.29 144.68 14.29 144.68h55.85s-2.77-304.52 0-347.29c2.8-43.3-11.69-129.88-11.69-129.88l-20.78-79.23z" fill="#48b59d"/><path d="m1046.52 695.44s-28.57 32.47-58.01 75.76c0 0 22.51 34.63 57.15 34.63s.86-110.39.86-110.39z" fill="#3aa58c"/><path d="m1186.57 974.03s-67.54 18.83-107.8 11.69-47.3-20.35-47.3-20.35l-.03-3.83-1.38-7 156.5 6.49v13z" fill="#48b59d" fill-opacity=".45"/><path d="m1131.81 656.91s14.29 12.55 30.74 14.29c16.45 1.73 18.36 4.87 33.08 11.37 14.72 6.49-22.26 142.76-23.99 157.47-1.73 14.72 16.88 88.32 12.12 113.86s-109.53 17.75-130.31 14.72-32.04-13.85-32.04-13.85 24.24-121.65 18.62-141.57c-5.63-19.92-17.32-51.52-15.59-67.97s18.05-46.06 22.08-49.79c5.22-4.84 30.31-14.29 34.63-18.62 4.33-4.33 5.2-7.79 13.85-12.12 8.66-4.32 36.81-7.79 36.81-7.79z" fill="#48b59d"/><path d="m1198.91 798.91 30.31 66.67s-40.7 53.68-51.95 66.67c-11.26 12.99-23.38 17.32-28.57 25.11-5.2 7.79 1.73 22.51 2.6 25.98.61 2.44 6.83 9.63 10.43 13.65 1.51 1.68 3.93 2.16 5.96 1.17 7.46-3.63 24.68-12.3 26.03-15.68 1.73-4.33 10.39-24.24 10.39-24.24s64.07-60.61 73.6-80.53c9.52-19.91-38.1-115.16-38.1-115.16z" fill="#fbd0c7"/><path d="m1195.62 682.57s-8.4 7.68-16.85 43.4c-8.44 35.72 16.88 93.51 16.88 93.51l55.2-50.65c.01-.01-21.46-66.13-55.23-86.26z" fill="#48b59d"/><path d="m1063.19 612.01c0 9.4 10.05 27.9 15.92 34.39 5.82 6.49 11.14 6.39 11.14 6.39s.31 5.82-.18 11.43c-.31 3.51-.96 6.96-2.21 8.83-3.25 4.86 2.26 23.69 9.09 24.99s31.17-21.09 35.72-26.29-2.29-11.69-.31-29.56c1.92-17.87 3.22-22.73 3.22-22.73s10.08 1.95 13.66-8.75c3.56-10.73 3.56-18.18-1.97-21.77-5.51-3.58-9.4-.31-9.4-.31s5.28-16.03-12.61-27.18c-21.72-13.51-54.61-1.74-54.61-1.74s-3.22 2.26-4.86 20.78-2.6 22.09-2.6 31.52z" fill="#f7bfb5"/><path d="m1137.87 588.62s-.85 2.29-1.8 4.96c-.86 2.43-1.43 3.8-1.89 5.5-.15.53-1.48 1.24-1.48 1.24-2.62-2.38-9.01-18.13-6.52-27.93 2.92-11.53 17.86-3.57 22.24 4.06 2.29 3.99 3.12 8.02 2.91 10.9l-1.35 4.28c0-.01-7.57-5.45-12.11-3.01z" fill="#231f20"/><path d="m1136.07 593.58-15.09 12.46 2.38 3.03 10.77-9.71z" fill="#6eceb7"/><path d="m1114.49 632.78s13.3.49 21.09-13.31l-1.05 5.65s-2.51 5.39-9.65 8.15-10.23 1.95-10.23 1.95z" fill="#6eceb7"/><path d="m1063.14 600.71c.03-.27.17-.49.4-.63 1.66-1 9.16-4.93 23.34-4.64 16.23.32 32.96 7.47 36.85 10.07 3.9 2.6-.16 18.35-7.47 29.06s-27.27 15.91-32.63 15.26-19.81-21.92-20.94-28.41c-1.02-5.86.2-18.31.45-20.71z" fill="#48b59d"/><path d="m1090.07 664.22c5.35-1.38 15.21-5.64 23.21-11.21 13.29-9.24 20.38-21.21 9.31-14.07-11.01 7.14-32.34 13.85-32.34 13.85s.31 5.82-.18 11.43z" fill="#f2aaa0"/><path d="m1088.95 1473.42c-.57 3.84-1.45 37.97-2.03 42.57 10.73-.52 19.77-1.17 19.77-1.17s5.2-134.91 5.2-176.47v-125.98c0-18.88-4.88-97.46-5.17-102.37.29 2.68 3.14 28.63 7.17 63.54-1.61-27.61-3.9-50.16-7.17-63.61 0-.05-.03-.1-.03-.16 0 0-5.64-41.56-20.34-61.48-14.73-19.9 7.79 34.65 6.91 72.73-.86 38.11-2.6 79.67-.86 132.48 1.74 52.83 5.2 105.64 2.6 142.87-2.59 37.23-5.19 71-6.05 77.05z" fill="#48b59d" fill-opacity=".45"/><path d="m1150.5 589.66s-30.29-8.29-42.34-28.75c-4.28-7.27-20.59 4.55-29.55-.58-7.74-4.43-10.69 5.92-10.69 5.92s1.43-13.02 9.39-25.52 39.78-19.97 64.45-5.52c24.68 14.44 8.74 54.45 8.74 54.45z" fill="#231f20"/><path d="m1165.14 1059.75s-.16 7.47-2.11 12.66c-1.95 5.2-3.41 11.2-5.19 19.64-1.79 8.44.81 12.18 1.3 16.56s-.16 7.79 2.92 15.1 4.22 10.07 7.14 10.72 2.76-5.52 1.14-9.74-1.02-5.37-.97-12.18c.02-2.58-.42.47 1.85 6.8s5.29 13.81 10 14.95 1.89-10.41 1.89-10.41 5.88 5.81 5.78-1.24c-.06-4.27-1.17-6.7-1.17-9.46 0 0 1.68 5.51 5.26 6.11 3.89.65 1.58-4.82.42-9.2-1.14-4.33 1.79-8.77 3.25-18.99 1.46-10.23 2.11-18.51-3.08-24.19-5.21-5.67-28.43-7.13-28.43-7.13z" fill="#fbd0c7"/><path d="m1354.76 1532.51s1.62 17.53 2.27 25.98c.65 8.44-2.92 16.88-1.62 21.11 1.3 4.22 14.94 8.77 37.02 8.77s38.31-2.6 41.56-7.14c3.25-4.55-11.69-30.85-15.91-38.31-4.22-7.47-2.27-17.86-14.29-24.03-12.01-6.18-42.86 2.26-49.03 13.62z" fill="#2c2412"/><path d="m1270.67 1526.34s-.32 16.24-.97 21.11 1.3 11.69-2.27 13.96-15.59.65-27.92 3.9c-12.34 3.25-39.29 13.31-58.45 12.66s-29.55-2.6-30.85-7.79 36.37-41.89 49.03-49.35c12.66-7.47 10.39-12.34 26.3-12.99 15.9-.65 45.13 18.5 45.13 18.5z" fill="#2c2412"/><path d="m1194.57 1521.03c.6.21 1.19.34 1.84.34 7.01.47 17.64-8.91 31.92-8.13 15.59.88 43.3 16.47 43.3 16.47 7.79-15.59 4.34-23.38 4.34-45.9s4.31-32.03 1.71-86.58 7.79-68.42 12.13-140.27c4.34-71.88 4.34-143.75 11.25-134.22 6.94 9.53 28.57 214.74 27.72 251.96-.86 37.22 5.2 80.52 10.39 103.05 5.2 22.49 5.2 57.15 7.79 60.6 1.04 1.38 3.4.57 6.78-1.12 5.12-2.57 12.55-7.2 20.94-9.27 13.84-3.45 45.02 1.74 45.02 1.74 1.74-10.39-6.94-32.05-9.53-39.85-2.6-7.79 6.08-29.43 6.08-65.8s-9.53-105.64-9.53-137.67c0-25.69 1.66-137.75 2.34-181.08.16-10.7.26-17.2.26-17.2s-194.82-51.09-202.61-12.99c-1.09 5.27-1.84 12-2.34 19.74-3.22 48.13 3.2 135.49 3.2 158.61 0 26.86-3.46 113.44-3.46 135.96 0 22.5-1.74 78.78-6.05 93.51-4.35 14.72-10.4 35.5-3.49 38.1z" fill="#40628f"/><path d="m1209.03 670.77s-6.49 4.76-7.36 11.26c-.87 6.49.87 12.99-2.16 32.9s-4.33 105.2-6.93 131.61-12.56 47.62-20.78 108.67c-8.23 61.04-13.85 106.5-13.85 106.5l36.37 4.76s23.81-195.25 29.87-252.4z" fill="#b7d1ed"/><path d="m1196.42 1521.37c7.01.47 17.64-8.91 31.92-8.13 15.59.88 43.3 16.47 43.3 16.47 7.79-15.59 4.34-23.38 4.34-45.9s4.31-32.03 1.71-86.58 7.79-68.42 12.13-140.27c4.34-71.88 4.34-143.75 11.25-134.22 6.94 9.53 28.57 214.74 27.72 251.96-.86 37.22 5.2 80.52 10.39 103.05 5.2 22.49 5.2 57.15 7.79 60.6 1.04 1.38 3.4.57 6.78-1.12.05-4.44 1.71-9.51 7.51-13.61 13.43-9.51 41.12 0 44.6-11.25 3.45-11.25-28.57-6.05-41.56-2.6s-15.59-8.23-3.04-15.14c12.55-6.94 25.98-13.43 25.98-18.62 0-5.2-16.88-5.2-28.57.86-11.69 6.08-9.53-17.3-13.85-40.68-4.34-23.38 1.71-33.77 2.16-52.83.44-19.04-6.49-26.83-9.09-44.57-2.6-17.77 2.16-9.53 1.3-34.65-.86-25.09-2.6-71.85-9.53-101.31-6.91-29.43-1.71-65.8-.42-73.15 1.3-7.38 55.41-9.97 79.64-24.26.05-.03.13-.08.18-.1.16-10.7.26-17.2.26-17.2s-194.82-51.09-202.61-12.99c-1.09 5.27-1.84 12-2.34 19.74 27.34 31.44 58.51 13.26 67.6 31.44 14.24 28.49 10.07 20.66 6.17 47.94-3.9 27.27 5.2 93.51-6.49 122.97-11.69 29.43-12.13 58.45-11.25 76.63.86 18.18 9.09 50.21 4.75 64.94-4.34 14.7.44 40.68-6.49 43.72s-26.42 1.3-30.31 8.65c-3.9 7.38 20.36.44 26.42 10.39 6.05 9.97-8.65 2.18-29.22 6.29-14.04 2.8-24.15 9.53-29.13 13.53z" fill="#2d4a70"/><path d="m1187.66 1075.13c0 7.79 79.64 43.28 84.84 38.96 5.19-4.34 12.99-21.66 12.99-21.66s3.48 20.78 8.68 20.78c4.14 0 82.5-9.31 115.01-16.18 0 0 .59-1.41 1-1.5 7.55-1.64 12.78-3.31 13.11-4.48.18-.65.1-2.88.05-8.85-.34-49.3-7.61-259-4.49-272.9.55-2.42 1.45-7.69 2.6-14.88 6.26-39.22 19.64-135.7 18.18-140.09-1.74-5.2-92.11-18.94-92.11-18.94l-70.63 1.77s-64.13 24.96-68.45 34.47c-4.34 9.53 10.39 128.16 10.39 147.2s-31.17 248.51-31.17 256.3z" fill="#cfe4f9"/><path d="m1347.51 635.38-47.3 141.07s-18.07-103.18-23.32-139.29l30.32 35.45z" fill="#40628f"/><path d="m1423.34 1082.2c-.34-49.3-7.61-259-4.49-272.9.55-2.42 1.45-7.69 2.6-14.88l-9.53-32.73s-6.49 43.51-4.55 78.58c1.95 35.07 5.2 49.35-.65 62.99-5.84 13.64 1.95 14.94 3.25 22.73s-5.2 26.63-5.2 40.26c0 13.64-.65 122.74-.65 122.74z" fill="#b7d1ed"/><path d="m1259.3 556.16c1.95 11.01 8.75 16.21 8.75 16.21 5.2 29.87 18.18 38 18.18 38l-.44 8.44-3.99 24.29 14.14 16.35 11.26 14.16 35.08-33.33 5.49-4.42-8.71-15.65-.88-12.44c10.73-9.43 16.26-30.52 16.26-30.52 14.91-7.14 12.31-23.69 12.31-23.69-3.22-12.99-11.01-11.07-11.01-11.07-3.9-51.28-49.69-55.17-70.47-41.87s-19.48 38.31-19.48 38.31c-4.23 1.31-8.44 6.17-6.49 17.23z" fill="#fbd0c7"/><path d="m1384.92 1059.68c-.03 0-.03.03 0 .05 0 3.17 4.88 2.34 12.7-8.42 9.66-13.27 4.47 7.97.57 16.73l-.03.03c-.31.65-.6 1.25-.86 1.74-3.9 7.17-10.73 18.52-10.39 25.66.16 3.51 2.34 1.95 5.12-1.12l.08-.08c2.83-3.17 6.29-7.87 8.75-10.18.96-.91 1.71-1.79 2.31-2.62 2.42-3.43 2.44-6.44 4.52-9.07 2.6-3.22 3.22 5.87-1.97 13.66-5.2 7.79-11.69 10.05-11.01 13.95.62 3.9 12.31.34 15.59-4.23 0 0 5.19 2.6 10.39-1.61s6.16-8.1 6.16-8.1 8.44-1.64 9.09-4.88c.13-.62.6-1.95 1.25-3.79 2.1-5.79 6.18-16.73 7.95-26.94.6-3.32.91-6.57.86-9.53-.03-1.56-.44-3.07-1.2-4.49-6.1-12.31-34.5-19.87-34.5-19.87s-.29 1.53-1.27 3.82c-.39.86-.86 1.82-1.45 2.86-1.74 2.99-4.52 6.6-8.96 9.9-10.08 7.48-7.48 15.59-12.03 22.39-1.1 1.64-1.64 3.1-1.67 4.14z" fill="#fbd0c7"/><path d="m1407.57 1023.23c2.75 2.29 9.14 7.43 18.47 13.64 8.88 5.92 15.79 11.07 19.09 13.59.6-3.32.91-6.57.86-9.53-.03-1.56-.44-3.07-1.2-4.49l-35.77-16.05c-.38.84-.85 1.8-1.45 2.84z" fill="#fbd0c7"/><path d="m1398.07 1017.1 3.64 2 48.32 26.57s54.55-170.56 51.95-187.03c-2.6-16.44-57.15-193.94-57.15-193.94-1.19-10.29-3.35-10.18-5.2-10.39-1.84-.23-10.52 10.6-18.94 31.04-8.47 20.47-22.08 74.71-15.27 88.66 2.1 4.34 6.26 14.49 10.96 26.63v.03c10.44 26.96 23.59 63.61 23.12 67.2-.62 5.2 2.29 9.4 2.94 14.29.65 4.86-3.56 2.26-2.94 11.35.67 9.09-41.43 123.59-41.43 123.59z" fill="#cfe4f9"/><path d="m1286 615.02c5.42 5.86 10.94 10.35 23.44 10.79 10.34.36 24.37-6.54 29.2-11.81l-.44-6.23s-14.91 13.95-29.2 12.34-22.75-9.74-22.75-9.74z" fill="#f2aaa0"/><path d="m1295.67 802.27s-7.71 299.07-10.31 289.98 2.51-33.15-1.38-127.31c-3.9-94.16 5.84-168.84 12.34-176.64 6.49-7.79-.65 13.97-.65 13.97z" fill="#b7d1ed"/><path d="m1388.53 972.09s-68.4 11.26-71.43 12.55c-3.03 1.3 1.3 90.05 24.24 99.57 22.95 9.52 39.83-.87 39.83-.87s-25.98 2.16-38.96-11.69c-12.99-13.85-19.91-69.27-17.75-75.76s71.43-22.51 71.43-22.51.44-2.16-7.36-1.29z" fill="#b7d1ed"/><path d="m1362.23 544.62s-3.41 9.74-6.01 10.88-4.22-24.51-6.82-29.55c-2.6-5.03-1.14-9.58-1.14-9.58s18.68.49 13.97 28.25z" fill="#5a2a00"/><path d="m1262.52 543.58c.16.49.38.97.63 1.42 1.22 2.14 5.01 8.49 7.29 9.07 2.75.7-4.03-27.57 6.76-31.99 4.2-1.72-5.22-7.9-5.22-7.9s-18 3.42-9.46 29.4z" fill="#5a2a00"/><path d="m1387.88 1096.87c.52.31 2.13-.78 4.16-2.52l.08-.08c2.83-3.17 6.29-7.87 8.75-10.18.96-.91 1.71-1.79 2.31-2.62-.52-1.14-1.01-1.27-1.01-1.27-.1-.31-3.35-1.17-7.79.88s-8.24 14.7-6.5 15.79z" fill="#fbd0c7"/><path d="m1394.71 1100.02c.62 3.9 12.31.34 15.59-4.23 0 0 5.19 2.6 10.39-1.61s6.16-8.1 6.16-8.1 8.44-1.64 9.09-4.88c.13-.62.6-1.95 1.25-3.79-.81-1.74-2.99-1.69-3.51.88-.78 3.77-2.94.31-4.88 2.91-1.95 2.6-2.6 5.95-5.95 9.64-3.35 3.66-5.53 2.49-5.2.96.31-1.51 4.75-7.14 4.65-10.39s.65-6.81 1.64-8.86c.96-2.05.42-9.2-.78-7.69-1.17 1.51-3.01 2.81-3.12 5.3-.13 2.49-.13 4.65-2.18 6.7s-6.7 13.12-9.4 15.92c-2.73 2.79-13.75 7.24-13.75 7.24z" fill="#fbd0c7"/><path d="m1384.92 1059.68c-.03 0-.03.03 0 .05 0 3.17 4.88 2.34 12.7-8.42 9.66-13.27 4.47 7.97.57 16.73 1.53-1.35 3.56-4.26 4.62-8.83 1.82-7.84 1.87-8.47 1.84-8.47.13-.52 1.51-6.75-1.09-8.42-2.7-1.74-6.6 7.35-10.6 12.44s-7.58 3.48-7.58 3.48-.22.66-.46 1.44z" fill="#fbd0c7"/><path d="m1415.64 1063.81s1.14-2.11 1.14-5.84 2.27-14.29 1.46-16.23c-.81-1.95-4.06 10.55-4.71 15.1s-2.44 7.31-1.79 8.93c.66 1.61 3.9-1.96 3.9-1.96z" fill="#fbd0c7"/><path d="m1214.66 966.43 35.33 14.78s-2.21 93.33-11.41 101.77c-9.2 8.45-33.13-5.07-37.54-12.67-4.42-7.6-2.21-16.89-1.1-17.31 1.1-.42 2.94 12.67 15.46 16.89 12.51 4.22 20.61 5.49 22.82-6.76s6.99-68.41 4.42-74.74c-2.58-6.33-30.55-18.58-33.13-21.54-2.58-2.95 5.15-.42 5.15-.42z" fill="#b7d1ed"/></g><ellipse cx="1304.98" cy="815.8" fill="#b7d1ed" rx="5.2" ry="5.63"/><path d="m1298.92 868.61c0 3.11 2.33 5.63 5.19 5.63 2.87 0 5.2-2.52 5.2-5.63s-2.33-5.63-5.2-5.63c-2.87.01-5.19 2.53-5.19 5.63z" fill="#b7d1ed" fill-rule="nonzero"/><ellipse cx="1304.98" cy="933.12" fill="#b7d1ed" rx="5.2" ry="5.63"/><g fill-rule="nonzero"><path d="m1362.23 544.62s-8.62-5.88-11.9-15.93c-7.34-22.48-29.94-.34-65.22-7.4-9.9-1.98-24.88 10.72-24.88 10.72s-1.52-48.27 36.47-58.01c35.77-9.18 78.09 30.36 65.53 70.62z" fill="#5a2a00"/><path d="m1296.32 788.31 73.22-94.66-16.66-7.63 36.01-6.91-.51-20.41-49.31-38.48 2.14 21.04z" fill="#f7f9fc"/><path d="m1300.21 776.45-40.61-75.99 4.14-9.35-21.96 3.2s35.64-66.75 44.02-75.5l-3.99 24.29 7.59 62.93z" fill="#f7f9fc"/><path d="m1368.4 686c2.22-12.41 1.18-26.99-3.68-38.71-4.54-10.93-14.52-23.61-25.86-30.22l.22 3.15.09.93c.12.13 7.48 6.22 10.61 9.84 4.35 5.03 7.86 10.71 10.46 16.83 5.37 12.67 5.17 24.34 3.83 37.73 0 .05.01.08.01.13-11.81.89-17.9 15.86-20.57 25.6-3.94 14.36-3.79 30.13 1.47 44.12-.72 1.14-1.07 2.52-.97 3.86.1 3.65 3.87 7.27 8 5.6 2.58-1.04 4.4-3.82 3.92-6.63-.45-2.63-2.74-4.82-5.35-5.3-1.27-.24-2.4-.05-3.35.41-2.52-10.45-3.64-20.99-2.03-31.84 1.53-10.4 8.55-37.39 24.1-30.64 11.87 5.16 9.89 26.95 8.91 37.4-.99 10.47-3.87 20.12-7.21 29.89-.69-.48-1.48-.84-2.3-.97-2.76-.44-5.22 1.4-5.91 4.03-.65 2.46.44 5.13 2.83 6.17 1.98.86 4.43.34 5.81-1.32.4-.15.78-.44 1.04-.93 7.66-14.4 10.52-32.11 10.32-48.26-.15-10.8-1.83-28.42-14.39-30.87z" fill="#2c4970"/><path d="m1285.9 616.72c-.12.08-16.8 10.37-26.62 44.14-5.14 17.68-9.71 38.81-6.98 57.73.17 1.19 3.22.6 3.19-.61-.52-18.65 4.51-45.75 7.43-54.81 5.48-16.96 10.64-28.16 21.93-40.94.09-.1.35-.31.46-.39l.5-3.04z" fill="#2c4970"/><path d="m1265.53 715.29c2.06 9.39-5.22 23.76-16.31 15.47-6.14-4.59-4.92-20.49 2.04-24.12 5.71-2.98 12.89 2.37 14.27 8.65z" fill="#2c4970"/><path d="m1258.05 717.9c1.19 5.42-3.01 13.72-9.42 8.93-3.54-2.65-2.84-11.83 1.18-13.93 3.29-1.71 7.44 1.37 8.24 5z" fill="#71a0c2"/><path d="m1776.67 564.9c-1.62-8.23 1.43-16.75 5.95-23.83 3.83-6.01 9.12-11.55 15.99-13.45 9.62-2.65 20.46 3.15 24.72 12.18s2.36 20.27-3.62 28.27c-10.95 14.64-38.37 20.53-43.04-3.17z" fill="#231f20"/><path d="m1762.5 1555.13c-18.96-11.91-.71-29.11 11.01-40.91 23.94 13.78 47.88 27.55 71.82 41.33-.28-.16-26.17 11.74-29.2 12.74-21.57 7.1-30.73-1.35-50.82-11.57-1.01-.53-1.95-1.06-2.81-1.59z" fill="#231f20"/><path d="m1932.59 824.85c-5.25 7.14-17.14 5.66-23.39-.62s-8.35-15.47-10.18-24.14c-3.61-17.14-6.23-34.47-9.83-51.61-2.75-13.09-14.5-32.83-14.68-45.93 9.93 9.03 21.44 15.25 23.88 17.16 6.38 4.97 12.18 10.76 17.04 16.45 9.61 11.25 11.55 22.08 15.08 36.11 2.89 11.45 9.85 42.05 2.08 52.58z" fill="#379e87"/><path d="m1903.88 1060.05c-3.31 34.97-8.28 64.5-6.36 99.71 2.58 47.22-1.02 94.78-10.63 141.08-6.09 29.33-16.64 57.22-21.06 86.79-2.88 19.27-16.39 52.91-13.04 71.77-.01-.04-33.6-189.07-33.6-189.07l18.28-238.9z" fill="#379e87"/><path d="m1777.34 1522.25c-6.34 6.81-6.72 30.2-5.75 40.28 2.17 22.46 21.13 17.32 36.04 16.6 21.39-1.03 43.14 5.83 64.55 6.61 5.06.18 40.58-.05 41.45-2.47 2.76-7.62-2.8-16.11-9.93-19.96s-15.49-4.45-23.43-6.06c-20.01-4.05-21.71-21.6-37.66-30.91-18.46-10.77-50.62-19.83-65.27-4.09z" fill="#2d292b"/><path d="m1738.14 1056.33c-6.86 4.52 9.13 77.33 10.64 87.27 9.33 61.57 20.77 123.27 22.21 185.68 2.19 93.71-5.2 195.95-5.2 195.95s46.49 23.37 89.75-3.57c0 0-12.23-180.5-11.86-198.4.37-17.91-2.21-163.71-2.21-163.71v-103.21c0-.01-103.33-.01-103.33-.01z" fill="#48b59d"/><path d="m1847.75 672.86c-12.37 3.24-25.16 1.32-37.64-6.94-16.33-10.8-24.83-28.98-27.95-47.83-3.61-21.83 4.22-45.65 21.34-59.66s43.26-16.65 61.94-4.79c16.59 10.53 25.61 30.81 29.69 49.41 4.57 20.84-8.28 44.34-24 57.27-7.49 6.15-15.35 10.44-23.38 12.54z" fill="#231f20"/><g fill="#48b59d"><path d="m1742.57 1079.53s85.7 17.76 103.69 12.97c17.98-4.79 55.24-9.6 55.24-9.6l2.38-22.85-163.86-5.05z" fill-opacity=".45"/><path d="m1762.04 722.71c-3.19 2.08-6.33 4.23-9.41 6.47-16.24 11.8-5.95 32.04-7.06 49.51-2.16 33.85-6.22 69.59-2.16 103.44 4.6 38.23 9.82 64.59-1.04 95.19s-19.28 93.17-15.07 92.21c22.88-5.11 57.06 5.32 80.44 6.48 40.19 2 79.01-3.52 119.42-3-1.66-55.04-9.28-110.42-6.56-165.92 1.37-27.91 4.45-148.26-5.59-161.26s-43.91-45.35-47.24-51.29c-2.9-5.17-13.75-.69-16.92-1.23-7.89-1.35-17.75-4.59-25.71-4.14-7.88.45-15.6 6.6-22.49 10.31-13.72 7.38-27.55 14.71-40.61 23.23z"/><path d="m1766.44 842.22 24.8-76.76 23.65 102.4-57.23 42.27z" fill-opacity=".45"/><path d="m1748.68 932.43s90.9-27.01 104.13-31.6c13.22-4.59 67.43 15.8 67.43 15.8v-41.57l-65.91-20.65-107.97 51.41z" fill-opacity=".45"/></g><path d="m1732.52 830.91c-.93 1.43-1.23 4.01-1.69 8.67-2.37 24.23-1.5 45.63 3.98 69.17.92 3.96 2.06 8.26 5.33 10.68 4.59 3.39 11.03 1.54 16.38-.44 14.21-5.26 28.69-9.96 42.93-15.52 18.4-7.19 34.52-16.1 53.44-21.89-1.77.54-7.03-19.24-10.01-20.72-6.58-3.26-21.37 5.55-27.99 7.01-3.71.82-43.26 6.23-43.26 6.51-5.22-13.92 2.3-32.16 6.94-45.42-11.81 0-23.67-.35-35.47 0-6.51.19-9.22-.15-10.58 1.95z" fill="#f7bfb5"/><path d="m1755.84 725.36c-11.92 9.22-21.87 21.56-28.42 34.06-11.42 21.78-6.48 52.76-4.92 76.66 0 0 59.81 4.68 59.85 4.68 1.42.11 5.14-47.96 5.33-51.04 1.65-27.2 1.39-52.99-5.96-78.83-9.12 4.67-18.24 8.55-25.88 14.47z" fill="#48b59d"/><path d="m1846.26 891.92 104.96 22.92 100.16-119.15-108.81-25.8z" fill="#40628f"/><path d="m1878.2 851.45c7.85.39 14.12 1.57 20.37 6.87 2.87 2.44 10.98 13.58 7.6 17.34-2.51 2.79-23.29-1.15-27.39-1.41 4.84 1.37 9.68 2.73 14.52 4.1 2.22.63 5.01 2.27 4.21 4.43-.44 1.21-1.92 1.75-3.2 1.61s-2.44-.78-3.62-1.29c-7.53-3.24-16.92-.72-24.92-1.21-4.41-.27-8.38-.08-12.87-.33-6.62-.38-13.78-1.27-20.19-2.29.56-3.2 1.18-6.85 2.16-10.09.99-3.29-1.39-8.03 1.61-8.79 6.33-1.62 11.55-7.05 17.45-8.53 10.59-2.67 21.99-10.41 32.93-11.37-2.45 3.71-5.98 7.57-8.66 10.96z" fill="#f7bfb5"/><path d="m1970.66 908.27c-1.47.37-8.16-4.87-9.62-5.84-2.52-1.68-11.2-6.99-10.87-10.43.18-1.85 13.31 2.62 14.18 2.89-2.19-.7-10.2-9.16-9.47-11.62 1.27-4.29 12.49 2.1 14.88 3.02-2.66-1.02-6.62-3.41-7.98-6.04-4.72-9.11 10.88-3.88 14.44-3.12-3.66-2.11-11.04-6.92-6.14-11.18 2.38-2.07 21.05-2.16 22.58.06.12.18.95 1.99 1.03 2.17-1.94 14.25-6.94 35.8-23.03 40.09z" fill="#f7bfb5"/><path d="m1866.67 672.68s1.05 24.14 5.29 38.7l-16.82 28.4s-45.17-32.01-48.58-40.6c0 0 16.99-9.34 14.59-27.99-2.39-18.65 8.42 19.34 45.52 1.49z" fill="#f7bfb5"/><path d="m1866.67 681.68-.46-27.65-45.6 2.41-1.12 25.4-.99 22.65c6.35 2.66 13.03 4.99 18.38 9.31 5.47 4.43 10.83 8.76 15.66 13.92-.19-.21 7.73-11.37 8.48-12.56 2.13-3.37 3.63-7.17 5.11-10.85 1.27-3.14.92-5.07.79-8.38-.2-4.74-.17-9.51-.25-14.25z" fill="#f7bfb5"/><path d="m1819.48 688.23c11.41 7.87 26.19 14.35 34.96 10.09 4.79-2.32 8.83-5.99 12.24-10.25l-.46-27.65-45.6 2.41z" fill="#f2aaa0"/><path d="m1853.54 565.25c31.62 1 32.78 37.13 32.25 67.51-.18 9.99-.75 21.12-5.37 30.04-5.19 10.01-12.08 21.8-22.64 26.92-14.12 6.83-30.05-5.46-37.84-16.26-7.51-10.41-9.11-23.42-11.74-35.64-6.01-27.82-5.36-74.18 45.34-72.57z" fill="#f7bfb5"/><path d="m1807.31 619.36s-4.65-7.4-8.68-8.33c-.74-.17-1.56.03-2.43.43-9.57 4.38 2.98 31.8 13.68 28.31 10.69-3.5-2.57-20.41-2.57-20.41z" fill="#f7bfb5"/><path d="m1848.09 574.88c55.36 69.03 42.15 19.7 40.09 11.36-2.31-25.96-45.97-47.78-54.03-36.75-10.51 14.38-20.13 14.65-26.58 28.46-4.92 10.52-8.42 28.34-3.26 38.56 7.76 15.39 12.78-10.16 15.51-19.62 4.03-14.06 18.43-34.28 28.27-22.01z" fill="#231f20"/><path d="m1803.11 614.04c6.13 4.56 22.22 27.39 22.22 27.39l-2.95 2.49s-11.27-17.57-16.23-23.75c-1.16-1.47-3.04-6.13-3.04-6.13z" fill="#6eceb7"/><path d="m1819.33 663.12s-12.03-5.48-17.33-25.6c0 0-2.01-1.64-3.82-4.23 0 0 3.09 15.53 11.6 26.43 4.68 6 8.33 6.25 8.33 6.25z" fill="#6eceb7"/><path d="m1821.03 645.13c1.01-2.35 2.37-4.48 4.16-5.95 3.97-3.26 12.32-4.64 17.21-5.69 6.25-1.35 12.81-1.96 19.13-.75 16.38 3.15 22.3 9.54 23.87 11.69.31.42.43.95.34 1.47-.77 4.44-4.82 27.17-8.04 30.76-5.5 6.88-11.28 14.02-20.12 16.6-17.78 5.19-32.03-13-43.78-23.28 2.3-5.31 4.12-9.77 4.82-15.45.34-2.86 1.09-6.32 2.41-9.4z" fill="#48b59d"/><path d="m1604.52 563.46c-8.99-.68-57.49 29.94-58.86 81.04-1.35 51.1-11.73 70.27-29.06 63.16 17.98 22.91 45.27.6 53.82-28.23 1.91-6.44 4.92-7.82 7.42-.23-2.98-9.1 17.37-20.24 12.5-38.35-9.47-35.26 4.97-49.17 14.38-59.88 7.61-8.67-.2-17.51-.2-17.51z" fill="#28170d"/><path d="m1593.4 623.09s-20.02-27.46-23.69-48.13c-2.62-14.76 4.89-69.46 59.87-61.58 0 0 15.97 1.57 30.97 11.71 11.93 8.06 29.16 25.46 9.9 73.2l-5 16.12z" fill="#3c2415"/><path d="m1628.77 1526.99s25.85 35.51 23.21 44.18.65 17.4-4.64 17.22c-28.32-.95-56.57-2.57-84.78-5.16-3.1-9.56-9.92-27.71-6.32-36.53 5.92-14.49 56.87-13.38 72.53-19.71z" fill="#231f20"/><path d="m1635.91 1565.21c5.35-5.35.01-23.52-9.19-37.45.72-.26 1.41-.51 2.04-.77 0 0 25.85 35.51 23.21 44.18s.65 17.4-4.64 17.22c-28.32-.95-56.57-2.57-84.78-5.16-.88-4.42-1.73-8.99-2.02-13.51 25.91 6.42 52.3 7.03 75.38-4.51z" fill="#231f20"/><path d="m1625.77 985.93-10.56 321.64c-.34 10.41-.02 20.82.95 31.19 4.67 49.7 18.94 201.42 19.04 202.46.88 9.38-73.62 7.2-80.75 6.78-13.3-66.48-13.64-136.73-19.02-204.35l-15.05-148.84 25.9-179.09z" fill="#375b82"/><path d="m1638.2 1526.99c-4.8 5.64-6.12 40.52-5.54 48.56 1.07 14.9 17.1 12.85 28.97 12.85 16.92 0 84.03.56 84.65-1.39 1.92-6.15-2.79-12.7-8.6-15.51-5.8-2.81-23.29-6.42-29.03-9.35-12.83-6.53-1.05-19.57-14.05-26.41-15.05-7.91-45.31-21.77-56.4-8.75z" fill="#2d292b"/><path d="m1611.63 1285.16s-64.12 25.87-80.88 12.17l-2.72-26.84 3.67-25.71 79.93 12.31z" fill="#2d4a70"/><path d="m1726.17 964.71 28.16 279.26c1.05 10.42.6 20.93-1.32 31.22l-.42 2.26-47.14 269.25-73.1-7.53 17.75-242.95c.72-6.95.34-13.97-1.14-20.8l-31.27-144.3 14.15-164.99z" fill="#40628f"/><path d="m1752.6 1277.35c-8.59 3.37-64.56 16.3-77.86-.44-4.29-5.39-6.87-257.55-6.87-257.55l-46.09-42.95 52.96.58h41.45l37.63 216.16 1.47 55.56c-.41 18.04-1.02 19.14-2.69 28.64z" fill="#2d4a70"/><path d="m1667.75 704.23c1.54 20.43-10.96 41.17-29.74 49.37-12.15-7.73-24.42-15.56-34.4-25.94s-17.59-23.72-18.3-38.1c-.28-5.62.49-11.24 1.26-16.81 2.55-18.56 5.11-37.11 7.66-55.67-.61 4.45 29.03 6.38 32.24 6.71 17.08 1.8 23.35 4.61 23.23 23.33-.13 20.08 16.52 36.74 18.05 57.11z" fill="#ffb980"/><path d="m1651.21 658.2s-4.1 7.17-26.26 5.17c-22.16-2.01-26.95-27.09-26.95-27.09l-3.77-19.21s55.51 24.88 55.47 29.62c-.05 5.66 1.51 11.51 1.51 11.51z" fill="#f7a466"/><path d="m1671.26 681.16-23.93 59.67s-71.64-55.88-71.65-55.89c4.07 3.17-.35 39.04-.39 44.03-.29 33.05-.59 66.1-.88 99.14-.28 32.1.59 64.45-.85 96.52-.66 14.77-6.94 30.6 5.69 41.19 15.89 13.32 52.74 12.36 72.14 12.06 17.52-.27 68.4-1.16 73.63-19.06 1.89-6.45-4.17-21.55-5.44-28.08-6.33-32.7-12.66-65.39-18.99-98.09-9.77-50.49-19.55-100.99-29.33-151.49z" fill="#71a0c2"/><path d="m1730.71 691.15s52.46 201.91 53.24 214.1-53.24 108.52-53.24 108.52l-28.49-307.9z" fill="#d7e3f2"/><path d="m1656.78 663.72 73.93 27.43s25.59 320.81 20.8 336.78c-4.79 15.98 22.51 223.1 22.51 223.1s-79.47 23.82-94.63 4.75l9.77-436.36z" fill="#e0eeff"/><path d="m1518.1 1267.61c11.7 3.95 23.93 5.97 36.26 6.64 10.72.57 21.48.1 32.07-.94 5.97-.57 58.58-7.47 58.58-11.43 0-.2.57-451.62.57-451.62s-40.45-92.47-49.64-110.67c-9.15-18.23-6.25-49.67-6.25-49.67l-43.42 45.75-15.25 80.91-5.5 84.36s-10.96 122.1-13.51 150.68c0 .34-.03.67-.07.97-5.23 58.69-10.29 117.4-15.42 176.09-1.34 15.55-3.02 31.1-4.06 46.65-1.37 21.15 4.46 25.11 25.64 32.28z" fill="#e0eeff"/><path d="m1518.1 1267.61c11.7 3.95 23.93 5.97 36.26 6.64l2.75.12-43.95-54.47c-4.86-6.03-7.28-13.66-6.77-21.39l15.98-255.54-7.47 37.1c-2.87 31.88-2.91 32.21-2.94 32.51-5.23 58.69-10.29 117.4-15.42 176.09-1.34 15.55-3.02 31.1-4.06 46.65-1.39 21.16 4.44 25.12 25.62 32.29z" fill="#cbdcf2"/><path d="m1568.93 781.15c-3.01 4.22-41.53 51.25-41.53 51.25l-7.9 97.16h3.14c.52-3.63 1.93-20.47 3-23.98l20.64-74.03z" fill="#cbdcf2"/><path d="m1586.54 610.13c10.53 8.39 6.11 25.44 18.15 35.08 11.71 9.38 29.49 11.96 42.34 3.45 34.73-23 44.77-130.64-17.21-121.08-25.45 3.93-43.67 34.69-37.19 58.94-12.21-19.24-23.44 4.78-13.88 19.54.9 1.39 2.08 2.84 3.75 3.28 1.32.35 2.88-.13 4.04.79z" fill="#ffb980"/><path d="m1546.28 963.26 23.33 22.67-41.57 11.16-13-19.09z" fill="#ffb980"/><path d="m1554.69 964.71-34.31 22.22s-77.94-72.39-83.23-96.75c-5.28-24.37 63.91-183.87 63.91-183.87l45.22-10.63 10.21 101.45-29.39 39.81-18.81 66.41z" fill="#e0eeff"/><path d="m1585.25 1020.09-33.85 24.74-24.58 1.4 29.67 13.85z" fill="#cbdcf2"/><path d="m1645.58 810.26-76.24-82.26 15.58-9.66-36.59-2.35-2.05-20.32 43.43-45.75 1.48 34.58z" fill="#f7f9fc"/><path d="m1683.47 792.07 13.84-71.87-7.11-7.35 21.72-4.57s-49.48-43.63-60.36-48.96l19.7 76.38z" fill="#f7f9fc"/><path d="m1695.77 747.26c.41 9.6 11.13 21.64 19.73 10.78 4.76-6.01-.49-21.07-8.15-22.8-6.27-1.41-11.85 5.6-11.58 12.02z" fill="#2c4970"/><path d="m1650.97 657.2c.14.05 3.27 1.2 3.42 1.25 17.22 5.65 32.34 17.14 42.37 32.25 10.18 15.34 17.49 38.69 11.5 56.88-.38 1.14-2.01.92-2.08-.28-.5-9.18.2-17.99-1.67-27.13-1.91-9.33-5.53-18.29-10.68-26.3-9.64-15-23.96-25.49-40.54-31.62-.13-.05-.96-.38-1.08-.43z" fill="#2c4970"/><path d="m1568.29 718.67c-3.81-11.85-4.24-26.72-.82-38.94 3.19-11.4 11.41-25.17 22.08-32.23.14-.09.37-.23.54-.32l-.34 3.45c-.11.14-6.74 7.15-9.41 11.12-3.72 5.51-6.51 11.58-8.35 17.97-3.8 13.23-2.2 24.79.75 37.91.01.04 0 .09 0 .13 11.84-.54 19.68 13.59 23.5 22.94 5.64 13.78 7.39 29.45 3.86 43.98.85 1.05 1.36 2.38 1.43 3.72.34 3.64-2.97 7.68-7.27 6.52-2.69-.73-4.83-3.26-4.69-6.11.13-2.67 2.14-5.11 4.67-5.91 1.23-.39 2.37-.34 3.37 0 1.24-10.68 1.08-21.28-1.82-31.86-2.78-10.14-13-36.09-27.61-27.51-11.16 6.55-6.57 27.94-4.34 38.2 2.24 10.28 6.27 19.51 10.76 28.8.63-.56 1.36-1.01 2.17-1.24 2.69-.77 5.35.76 6.36 3.29.94 2.36.18 5.15-2.07 6.47-1.86 1.09-4.36.87-5.93-.61-.42-.1-.82-.34-1.14-.8-9.34-13.37-14.31-30.6-16.06-46.66-1.17-10.73-2.65-28.48 10.36-32.31z" fill="#2c4970"/><path d="m1703.68 747.87c.24 5.54 6.42 12.49 11.39 6.22 2.75-3.47-.28-12.16-4.7-13.16-3.63-.81-6.85 3.23-6.69 6.94z" fill="#71a0c2"/><path d="m1602.1 588.55c-11.5 3.26-20.36 3.82-26.82 3.33l-4.49-14.34c6.49-8.86 14.41-23.03 16.93-41.64 0 0 25.81-25.49 57.44-10.5 4.41-4.19 12.18-5.77 22.72 6.69 16.87 19.93 6.38 57.41 6.38 57.41-6.42.83-9.43-23.21-12.79-35.01-2.48-8.69-10.59-17.55-14.7-21.63-1.32 5.37-14.89 57.41-48.79 74.7 0 0 15.61-15.28 27.07-36.49-6.57 8.23-14.3 15.02-22.95 17.48z" fill="#3c2415"/><g fill="#7ac4b1" transform="translate(-16.2544 -82.1411)"><path d="m2078.02 1205.3-32.34-30.68-.92.97 32.33 30.67z"/><path d="m2183.29 1293.34-4.59 4.74-17.78-17.2 6.88-7.11-63.42-61.33c-4.72-4.57-11.88-5.1-17.22-1.73l-7.43-7.18-4.59 4.74 7.43 7.18c-3.18 5.44-2.41 12.58 2.31 17.15l63.43 61.33 6.88-7.11 17.78 17.2-4.59 4.74c-1.58 1.63-1.53 4.25.1 5.83s4.25 1.53 5.83-.1l14.9-15.41c1.58-1.63 1.53-4.25-.1-5.83-1.62-1.58-4.24-1.54-5.82.09z"/></g></g><g fill="#7ac4b1" opacity=".5" transform="matrix(1 0 0 .821285 -96.907 218.189)"><path d="m2252.5 880.41h21.27v82.99h-21.27z"/><path d="m2225.42 910.21h75.43v23.41h-75.43z"/><path d="m2263.44 1038.47c-.9 0-1.8-.27-2.59-.83-3.06-2.13-74.95-53.51-76.62-164.39v-.01c-.06-4.48-.07-4.75 75.64-46.3 1.36-.74 2.95-.75 4.3-.01l71.55 38.74c1.41.76 2.39 2.22 2.65 3.92.14.98 3.5 24.47-3.7 56.99-6.62 29.89-23.84 73.38-68.28 110.79-.87.73-1.91 1.1-2.95 1.1zm-69.46-162.49c2.48 91.27 56.4 140.13 69.3 150.53 39.95-34.82 55.69-74.52 61.85-101.97 5.49-24.47 4.55-43.78 3.95-50.59l-67.04-36.29c-23.76 13.07-59.32 32.85-68.06 38.32z" fill-rule="nonzero"/></g></g></svg>