<svg clip-rule="evenodd" fill-rule="evenodd" stroke-linejoin="round" stroke-miterlimit="2" viewBox="0 0 145 102" xmlns="http://www.w3.org/2000/svg"><path d="m-3.799-13.551c-3.429-.54-15.188 3.8-6.098 6.466 3.331.977 2.788 6.594 6.098 7.64s6.62-2.78 6.517-6.25c-.101-3.47-2.156-7.17-6.517-7.856" fill="#effafa" transform="matrix(-.275124 -.961409 -.961409 .275124 57.243 13.4227)"/><path d="m0 37.11c2.674.156 5.424-2.451 5.972-3.384.547-.933-4.49.797-3.783-.349.707-1.147 5.085-1.579 6.611-4.237.948-1.654 1.596-4.185.2-4.88-1.525-.776-3.036 3.178-5.354 2.775-.807-.14-1.783-.567-1.428-1.535.592-3.081 5.97-1.794 7.296-4.975.381-.914.673-2.19-.46-2.495-2.285-.92-3.981 3.817-6.642 2.873-.766-.272-1.225-1.066-.964-1.847.871-2.696 4.872-.978 6.497-3.316 1.091-1.568 1.85-4.274.568-4.862-1.367-.645-2.989 3.217-5.383 2.998-.791-.073-1.773-.406-1.569-1.298.219-1.8 3.024-1.532 4.219-3.225.774-1.097 2.014-2.812 1.053-3.273-1.041-.538-4.378 2.284-4.894 1.782s3.108-2.026 2.829-3.793c-.118-.88-.992-1.173-1.851-1.19-1.299-.025-2.744 2.15-2.87 1.69s2.804-2.4 2.365-3.53c-.397-1.045-2.579-1.195-3.525-.251-.926.922 1.265 2.883.25 3.433-1.144.641-3.32-2.001-4.111-1.792-.784.202.471 1.622.974 2.569.601 1.13 2.414 2.493 1.889 2.68-.526.187-3.757-2.89-3.991-1.932-.233.958 3.172 4.719 3.058 5.762-.115 1.043-2.304-2.482-3.517-1.59-1.684 1.159-1.937 4.034-.72 6.099.925 1.57 3.851.547 4.32 1.767.42.911-.992 1.463-1.982 1.665-1.977.404-3.516-2.26-4.945-1.507-.875.323-.283 1.312.091 1.996 1.469 2.684 5.997 3.595 6.405 4.522.409.926-3.361-2-4.771-.816-1.502 1.261-1.164 3.485-.098 5.222 1.474 2.398 5.975 2.242 6.493 3.139.519.896-3.854-.093-4.418.448-.562.541 1.308 1.062 2.165 1.715 1.546 1.178 2.08 2.829 4.021 2.942" fill="#dff6f4" transform="translate(32.058 47.5842)"/><path d="m0 21.799 1.27-7.692c-2.137-3.204-4.899-6.777-7.774-10.059l-2.559 4.721-.168-7.71c-4.537-4.754-8.956-8.286-11.297-8.057-.099 5.216.392 9.938 1.473 14.167l2.454.952-2.033.575c1.321 4.431 3.326 8.287 6.018 11.568l3.857.926-2.424.697c2.017 2.128 4.36 3.984 7.029 5.565 2.129 1.233 4.77 1.574 7.925 1.024 1.22-2.526 1.758-4.404 1.616-5.636.058-1.336-1.006-3.724-2.747-6.588z" fill="#dee6f3" transform="translate(24.007 42.8172)"/><path d="m0 33.031c-.076.072-.195.079-.279.012-.164-.132-16.523-13.386-24.393-32.8-.043-.11.007-.233.117-.277.11-.045.234.008.278.117 7.829 19.313 24.101 32.496 24.264 32.627.092.074.107.207.034.299-.007.008-.014.015-.021.022" fill="#fff" fill-rule="nonzero" transform="translate(30.859 41.2272)"/><path d="m0 22.816 4.064-5.029c-.229-3.185-.758-6.893-1.488-10.437l-3.78 2.357 3.035-5.63c-1.325-5.285-3.067-9.643-4.85-10.436-2.207 3.722-3.785 7.329-4.736 10.822l1.38 1.691-1.702-.417c-.861 3.737-.993 7.339-.395 10.808l2.404 2.246-2.035-.489c.584 2.361 1.514 4.658 2.792 6.891 1.032 1.761 2.797 3.088 5.297 3.982 1.914-1.321 3.072-2.456 3.473-3.403.59-.94.8-3.098.716-5.876z" fill="#ecdaf8" transform="translate(26.839 39.8452)"/><path d="m0 33.894c-.085.021-.174-.023-.207-.106-.064-.162-6.438-16.419-4.167-33.644.014-.097.101-.165.198-.152s.165.101.153.198c-2.259 17.136 4.081 33.306 4.145 33.467.035.091-.008.193-.099.229-.007.003-.015.006-.023.008" fill="#fff" fill-rule="nonzero" transform="translate(27.835 38.5282)"/><path d="m0 22.715c1.812-2.042 1.46-5.888 1.058-6.915-.402-1.026-2.194 4.097-2.665 2.808-.472-1.289 1.943-5.067.778-7.964-.725-1.802-2.343-3.918-3.779-3.238-1.583.731.628 4.434-1.158 6.037-.62.557-1.577 1.069-2.129.173-2.091-2.416 2.331-5.909.621-8.977-.492-.881-1.329-1.92-2.287-1.205-2.178 1.249.544 5.593-1.89 7.128-.701.442-1.626.307-2.087-.393-1.608-2.398 2.291-4.517 1.445-7.292-.567-1.863-2.255-4.177-3.535-3.521-1.378.687.69 4.421-.995 6.199-.557.588-1.442 1.162-2.028.438-1.302-1.312.681-3.387.08-5.412-.39-1.311-.981-3.386-1.956-2.907-1.087.494-.932 4.945-1.66 5.041s.337-3.765-1.251-4.656c-.78-.461-1.566.054-2.121.73-.839 1.024-.009 3.553-.458 3.364-.448-.189-.153-3.759-1.334-4.12-1.086-.341-2.583 1.311-2.424 2.663.154 1.323 3.105.806 2.906 1.966-.208 1.32-3.695 1.395-4.027 2.16-.333.755 1.595.645 2.67.84 1.284.233 3.518-.36 3.336.179-.181.539-4.682 1.185-4.062 1.975.619.791 5.778.438 6.54 1.188.763.749-3.44.278-3.49 1.811-.136 2.08 2.006 4.095 4.427 4.424 1.839.249 2.867-2.738 4.138-2.344.995.239.545 1.717.083 2.637-.924 1.837-4.026 1.389-4.325 3.007-.293.905.871 1.054 1.655 1.186 3.075.517 6.66-2.531 7.659-2.274s-3.721 1.429-3.662 3.304c.063 1.998 2.055 3.13 4.118 3.372 2.849.333 5.563-3.368 6.608-3.218 1.045.151-2.505 3.027-2.428 3.819.078.792 1.675-.376 2.738-.65 1.919-.495 3.577.12 4.891-1.363" fill="#cff1ef" transform="translate(30.934 65.7982)"/><path d="m0 92.337h-105.698s-27.596-50.258 0-26.177c27.595 24.081 26.108.56 14.031-17.651-12.076-18.211-4.357-41.841 30.9-17.644 20.266 13.908-4.931-30.865 21.447-27.917 27.625 3.087 38.315 32.732 40.218 48.232 1.905 15.5 10.781 11.716 14.418 24.536 3.639 12.82-15.316 16.621-15.316 16.621" fill="#effafa" fill-rule="nonzero" transform="translate(128.829 .827)"/><path d="m142.704 65.788h125.949v.774h-125.949z" fill="#cff1ef" transform="matrix(-1 0 0 1 279.59 27.3052)"/><path d="m0 69.176c.005 1.269-.982 2.313-2.214 2.313h-42.514c-1.219 0-2.226-1.044-2.231-2.313l-.258-70.004c-.005-1.269.995-2.301 2.215-2.301h42.514c1.231 0 2.226 1.032 2.23 2.301zm-3.252-76.151h-41.015c-2.515 0-5.748 2.929-5.738 5.546l1.474 71.292c.01 2.617 2.05 4.732 4.564 4.732l40.825 1.556c2.515 0 4.73-3.671 4.72-6.288l-.266-72.106c-.009-2.617-2.049-4.732-4.564-4.732" fill="#e9d2f4" fill-rule="nonzero" transform="translate(120.693 17.717)"/><path d="m0 70.732c.005 1.269-.982 2.313-2.215 2.313h-42.514c-1.218 0-2.226-1.044-2.231-2.313l-.257-70.004c-.005-1.269.994-2.3 2.214-2.3h42.514c1.232 0 2.226 1.031 2.231 2.3zm-3.253-76.151h-41.015c-2.514 0-4.539 2.115-4.53 4.733l.266 72.105c.01 2.618 2.05 4.732 4.565 4.732h41.015c2.515 0 4.539-2.114 4.529-4.732l-.265-72.105c-.009-2.618-2.05-4.733-4.565-4.733" fill="#be79df" fill-rule="nonzero" transform="translate(119.407 17.8602)"/><path d="m-.92-.919c-.528-.002-.957.408-.957.916s.429.921.957.923c.529.002.958-.408.958-.916s-.429-.921-.958-.923" fill="#fff" fill-rule="nonzero" transform="matrix(0 -1 -1 0 95.654 13.3451)"/><path d="m0 1.08h-9.145c-.286 0-.519-.242-.52-.54s.23-.54.517-.54h9.143c.287 0 .521.242.522.54s-.231.54-.517.54" fill="#fff" fill-rule="nonzero" transform="translate(108.714 13.7251)"/><path d="m0-11.448c-.075.477-.15.979-.251 1.532-1.029 5.197-3.766 12.905-5.272 12.929-.453-.024-2.009-1.38-4.017-3.364-3.34-3.314-7.909-8.36-10.871-12.101-.176-.201-.326-.402-.478-.578l.101-.1.401-.377.855-.853.099-.101.427.402 11.625 11.147 3.866-8.536c.954-1.531 3.54-1.632 3.515 0" fill="#cff1ef" transform="translate(93.851 43.4342)"/><path d="m0 1.808-.854.854-.401.376c-.025-.025-.05-.075-.1-.1l-.026-.025c-1.656-1.983-3.59-4.143-1.958-3.766.201.552.478 1.055 1.105 1.33.226.126.477.176.803.227.729.075 1.055.602 1.306.954.025.025.025.05.025.05.05.05.076.075.1.1" fill="#ffd5b0" transform="translate(74.418 27.3662)"/><path d="m0 17.047c-.075 0-.226-.025-.451-.101-3.34-3.314-7.909-8.36-10.871-12.101-.051.076-.478-.577-.478-.577.026-.051.051-.101.075-.126-1.656-1.983-3.589-4.142-1.958-3.766.202.552.478 1.055 1.105 1.331.326.828.728 1.431 1.155 1.958.05.025.101.075.125.126l.402.402c.929.928 2.059 1.757 3.44 3.414 2.586 3.113 4.945 5.975 7.456 6.98 2.511 1.003.829 2.46 0 2.46" opacity=".1" transform="translate(84.762 26.137)"/><path d="m0 .841h-1.758l.033-.636 1.67-.194.044-.011z" fill="#ffd5b0" transform="translate(91.574 88.3562)"/><path d="m0-40.542-.852 2.835-.054.194-.959 3.191-.841 2.781-.205.69-.647 2.145-2.22 7.352-.625 2.091c.539 5.703-.043 13.141-.659 19.263h-2.931l-2.091-20.006c-.194-5.088.313-10.133 1.52-15.146.226-.938.474-1.875.765-2.803.011-.075.032-.15.065-.226.086-.313.172-.614.28-.927 0-.021.011-.033.011-.054v-.011c.021-.064.043-.129.064-.194.087-.312.205-.636.302-.959h.183l.248-.011.345-.011 3.449-.075 3.04-.076h.022z" fill="#dee6f3" transform="translate(99.141 89.1962)"/><path d="m0-35.433-.14.809-.215 1.347-1.811 10.898-.518 3.115c.539 5.703-.043 13.141-.658 19.264h-.7c.054-.259.097-.539.14-.83.583-3.806.571-9.034-.41-11.771-1.272-3.504-1.412-11.394 1.661-18.294.496-1.11 1.067-2.188 1.735-3.212.13-.205.259-.409.41-.615.161-.237.334-.474.506-.711" opacity=".1" transform="translate(95.422 89.1972)"/><path d="m0-12.935c-1.028 5.186-3.762 12.897-5.261 12.935-1.263-.094-3.846-2.838-6.826-6.392.34.32.689.613 1.056.895.613.472 1.273.896 1.962 1.254.433.227 2.262 1.754 2.734 1.868 1.433.33.872-1.881 1.654-3.135.424-.688.759-2.123.994-2.905.509-1.669 1.952-2.408 2.999-3.813.198-.254.423-.519.688-.707" opacity=".1" transform="translate(93.59 46.4572)"/><path d="m0 .992h-1.778l-.065-.463 1.369-.442.27-.087z" fill="#ffd5b0" transform="translate(102.116 88.2052)"/><path d="m0 44.24h-2.997l-5.832-18.929c-.15-.647-.291-1.477-.409-2.425-.033-.334-.075-.669-.108-1.024-.248-2.512-.399-5.627-.485-8.517-.043-1.724-.065-3.352-.065-4.731 0-.841 0-1.575.011-2.189.011-.819.043-1.391.065-1.617l1.508-.992 2.005-1.326h.012l.506-.345.41-.269h.011v-.011l1.455-.959.916-.604.021-.011.432-.291c.075.442.15.863.216 1.283.021.14.054.291.064.431.076.443.14.863.195 1.283.075.507.129.981.182 1.455.205 1.854.291 3.45.302 4.873 0 .345 0 .668-.011.992-.01.69-.043 1.336-.096 1.951-.377 4.829-1.639 7.632-1.423 12.677 1.671 5.584 2.533 13.129 3.115 19.295" fill="#dee6f3" transform="translate(102.601 44.9572)"/><path d="m0 44.24h-.981c.022-.302.022-.604.022-.905-.011-4.442-1.779-9.184-4.172-15.437-2.652-6.888 2.889-11.124 0-14.089-.367-.377-.712-.755-1.035-1.11-.528-.604-.981-1.186-1.369-1.736-.205-.28-.399-.56-.561-.83-.216-.323-.398-.646-.55-.948-.571-1.035-.894-1.951-1.045-2.695-.162-.712-.183-1.272-.129-1.682l1.508-.992 2.005-1.326h.012l.506-.345.41-.269h.011v-.011l1.455-.959.916-.604.021-.011.432-.291c.075.442.15.863.216 1.283.021.14.054.291.064.431.076.443.14.863.195 1.283.075.507.129.981.182 1.455.205 1.854.291 3.45.302 4.873 0 .345 0 .668-.011.992-.01.69-.043 1.336-.096 1.951-.377 4.829-1.639 7.632-1.423 12.677 1.671 5.584 2.533 13.129 3.115 19.295" opacity=".1" transform="translate(102.601 44.9572)"/><path d="m0 21.59c-4.619 2.752-9.343 1.961-14.141-2.376.254-.273.491-.556.707-.83 6.024-7.721-2.527-15.772 1.791-18.987 3.706-2.149 6.388-2.108 8.603.483.349.538.834 1.091 1.022 1.704 1.472 4.912-1.819 12.106 2.018 20.006" fill="#fff" transform="translate(103.102 31.6926)"/><path d="m0 17.254c-4.619 2.752-9.343 1.961-14.141-2.376.254-.273.491-.556.707-.83 1.113.462 2.197 1.075 3.356 1.405 1.15.33 1.782.484 2.817-.1 2.69-1.516.957-6.046.986-6.612.018-.377 3.098 2.13 3.032 1.772-.358-1.942-.716-3.875-1.074-5.807-.199-1.066-.397-2.15-.34-3.234.048-1.084.368-2.197 1.103-2.998.424-.471.962-.971 1.536-1.226 1.472 4.912-1.819 12.106 2.018 20.006" opacity=".1" transform="translate(103.102 36.0282)"/><path d="m0 2.912c-.075.075-.151.151-.251.201-.227.201-.503.301-.778.377-.779.226-1.632.05-1.859-.377.227-.151.377-.402.427-.728.025-.1.051-.176.051-.276.05-.477.024-1.03 0-1.657 0-.427 0-.854.024-1.256l1.582.703.528.226.125 1.205z" fill="#ffd5b0" transform="translate(97.225 26.8116)"/><path d="m0 3.138c-.075.075-.151.151-.251.201-.227.201-.503.301-.778.377v-.202c-.026-.2-.302-.2-.403-.376-.175-.326-.125-.477-.551-.502l-.478-.025c.051-.477.025-1.18.051-1.933 0-.427 0-.854.024-1.256l1.582.703c.075.176.126.352.151.528.05.326.276.602.502.903z" opacity=".1" transform="translate(97.225 26.5856)"/><path d="m0-6.009-.592 4.984c-.181.091-.363.182-.546.273-1.775.82-2.799.683-3.072-.455-.114-.478-.159-.979-.114-1.479.046-1.07.41-2.185 1.07-3.391z" fill="#ffd5b0" transform="translate(97.943 28.9127)"/><path d="m0-5.189-.592 4.984c-.181.091-.363.182-.546.273-.022-.046-.045-.068-.068-.113-.137-.228-.228-.501-.409-.729-.183-.25.088-1.001-.162-1.184-.25-.136-1.022.274-1.295.183-.365-.137-.774-.114-1.16-.114-.024 0-.069 0-.092.023.046-1.07.41-2.185 1.07-3.391z" opacity=".1" transform="translate(97.943 28.0927)"/><path d="m0 19.784-2.109 1.205-.803.452v.025l-2.461 1.406-4.846-14.361 1.833-6.452 1.407-5.147c.853.226 1.707.904 2.535 2.335l.126 1.833.652 9.44z" fill="#cff1ef" transform="translate(105.174 33.0909)"/><path d="m0 17.047-2.109 1.205-.803.452c1.205-7.657-.904-5.724-3.113-10.068-2.235-4.343-1.281-4.845 1.707-10.293l.652 9.44z" opacity=".1" transform="translate(105.174 35.8282)"/><path d="m0-3.875-4.44 14.283-.849-1.857-.198-.425 1.669-9.304.065-1.085.622-10.2c.99-1.32 1.886-1.697 2.763-1.82z" fill="#cff1ef" transform="translate(93.402 44.4772)"/><path d="m0-3.41c1.565 1.605 2.158-.166 3.278 1.013 1.12 1.178-.945 1.638.709 4.009 1.655 2.372 2.127 2.237 3.14.548 1.013-1.688-.675-1.485-.776-3.511-.102-2.025 1.114-3.916-.338-4.524s-1.958.203-1.958.203-.304-1.722-1.925-1.351c-1.62.372-3.349 2.363-2.13 3.613" fill-rule="nonzero" transform="translate(93.218 27.8391)"/><path d="m0 14.327h-9.587c-.616 0-1.231-.456-1.339-.991l-.401-1.848-2.33-10.524c-.108-.536.295-.964.91-.964h9.587c.054 0 .107 0 .161.027.562.053 1.045.455 1.179.937l2.704 12.372c.134.535-.268.991-.884.991" fill="#fbcffc" fill-rule="nonzero" transform="translate(89.618 36.6932)"/><path d="m0-.027v.134c0 .375-.268.643-.696.643h-1.875c-.482 0-.937-.349-1.044-.777v-.134c0-.08 0-.134.026-.187.081-.268.321-.429.67-.429h1.875c.482 0 .937.348 1.044.75" fill="#be79df" fill-rule="nonzero" transform="translate(83.512 36.8802)"/><path d="m0 14.3h-9.587c-.616 0-1.231-.456-1.339-.991l-.401-1.848c.856.241 1.74-.401 2.141-1.151.162-.322.295-.67.537-.911.588-.562 1.552-.294 2.302 0 .724.295 1.447.589 2.169.884.616.241 1.366.482 1.929.08.455-.321.562-.937.562-1.473.027-.562-.053-1.097-.267-1.606-.188-.429-.456-.777-.724-1.179-.884-1.312-1.339-2.865-1.634-4.418-.08-.563-.106-1.232.349-1.527.214-.133.482-.16.723-.16h.241c.562.053 1.045.455 1.179.937l2.704 12.372c.134.535-.268.991-.884.991" fill-rule="nonzero" opacity=".1" transform="translate(89.618 36.7202)"/><path d="m0-.027v.134c0 .375-.268.643-.696.643h-1.875c-.482 0-.937-.349-1.044-.777v-.134c0-.08 0-.134.026-.187.027 0 .027.027.054.027.241.107.429.24.67.321.535.187 1.151 0 1.686-.188.081-.026.188-.053.215-.133.027-.027 0-.081 0-.135-.027-.133-.107-.24-.187-.321h.107c.482 0 .937.348 1.044.75" fill-rule="nonzero" opacity=".1" transform="translate(83.512 36.8802)"/><path d="m0 12.553c-.452 2.034-7.884.803-13.482-.326-.277-.05-.552-.101-.804-.151-.176-.05-.326-.075-.477-.101v-.15l-.05-.301-.1-1.331.929.025h.15l.628.025 9.214.327c-1.782-3.817-2.711-7.582-2.837-11.273l2.385-1.331c.829.929 1.682 2.586 2.41 4.519 1.356 3.566 2.31 7.984 2.034 10.068" fill="#cff1ef" transform="translate(105.174 34.3717)"/><path d="m0 2.084c-.025.075-.05.15-.101.201-.049.05-.251 0-.452-.076-.2-.05-.376-.125-.476-.125-.026 0-.05.025-.05.025-1.055 1.029-2.938-.728-2.888-1.782 0-.101 0-.176.026-.226.175-.955.954-.352 1.606.15.352.251-.226-1.305-.126-1.305.428.1.503.075 1.155 1.18l1.08.301.125.025v.025c.076.151.352 1.055.101 1.607" fill="#ffd5b0" transform="translate(91.441 44.1122)"/><path d="m0 8.034c-.452 2.034-7.884.803-13.482-.326-.239-.044-1.281-.402-1.281-.402-.025 0-.05.025-.05.025-1.054 1.029-2.937-.728-2.887-1.782 0-.101 0-.176.025-.226.2.075.451.276.753.577.401.427 1.155.803 2.109 1.105.151.05.327.1.502.125.176.075.376.126.578.176.075 0 .15.025.225.05 3.038.653 7.181.779 9.541.276 3.489-.728 2.41-3.314 1.933-9.666 1.356 3.566 2.31 7.984 2.034 10.068" opacity=".1" transform="translate(105.174 38.8902)"/><path d="m3.622-3.622c.292 0 .528 1.621.528 3.622 0 1.999-.236 3.622-.528 3.622s-.527-1.623-.527-3.622c0-2.001.235-3.622.527-3.622" opacity=".1" transform="matrix(0 1 1 0 19.78 96.8742)"/><path d="m0 4.398-1.736-.023-1.308-.023c.081-.302.15-.591.196-.88.186-.972.267-1.933.232-2.905 0-.186-.011-.371-.023-.567l1.181.034.972.024c-.012.231-.012.474 0 .706.011.891.104 1.782.278 2.697.069.312.127.625.208.937" fill="#ffd5b0" transform="translate(28.055 93.4642)"/><path d="m0 2.408c-2.141.405-2.951-.776-4.062-.22-.197.093-.417.255-.648.486l-1.25-.012-.429-.891c-.265-.636-.231-1.354.093-2.153.012.012.035.012.046.023.278.151.567.244.868.278.544.07 1.135-.023 1.772-.289.034-.012.057-.023.092-.035.857 1.54 5.636 2.095 3.518 2.813" fill="#d296e9" transform="translate(31.458 97.2942)"/><path d="m0-31.367c-.034 8.843-1.539 20.718-4.479 35.637-.347.139-.706.231-1.077.266-.37.058-.752.07-1.145.023-.324-.046-.649-.115-.985-.219-.219-.059-.451-.14-.682-.232.834-15.244-2.581-30.996.914-39.7l7.339-.381c.092 1.435.127 2.962.115 4.606" fill="#e9d2f4" transform="translate(33.125 89.6912)"/><path d="m0 40.973c-2.141.405-2.951-.776-4.062-.22-.232-.313-.463-.637-.671-.961-.139-.22-.289-.451-.406-.683-.103-.208-.184-.405-.243-.625-.034-.092-.057-.185-.069-.278-.104-.613.057-1.25.22-1.851.069-.278.139-.556.197-.834.057-.254.115-.509.174-.752.706-3.241 1.145-6.528 1.284-9.838.035-.637.047-1.308-.174-1.91-.208-.567-.613-1.042-.821-1.609-.336-.937-.07-1.99.011-2.986.151-1.863-.336-3.726-.185-5.59.069-.938.312-1.852.544-2.766.741-2.87 1.169-6.169 2.315-8.912.497-1.204.833-1.389 1.99-1.435.58-.035 1.077-.059 1.563-.128-.034 8.843-1.539 20.718-4.48 35.637-.346.139-.705.231-1.076.266.012.892.105 1.783.279 2.697.034-.012.057-.023.092-.035.857 1.54 5.636 2.095 3.518 2.813" opacity=".1" transform="translate(31.458 58.7292)"/><path d="m0-2.893c-.128.208-.243.405-.348.625-.439.764-.798 1.585-1.111 2.465-.103.301-.196.602-.289.914l-1.516-.891v-.011l-1.099-.648c.219-.22.427-.44.613-.672.659-.74 1.203-1.539 1.644-2.384.103-.173.196-.335.277-.509l.556.336z" fill="#ffd5b0" transform="translate(22.361 95.9752)"/><path d="m0 5.139c-2.06-.729-2.152-2.165-3.414-2.234-.22-.011-.475.024-.787.105l-1.076-.637.081-.984c.081-.694.463-1.296 1.145-1.817.012.011.024.035.035.046.174.266.382.498.637.694.428.325.983.521 1.654.614.036 0 .059.012.093.012-.022 1.77 3.831 4.629 1.632 4.201" fill="#d296e9" transform="translate(22.627 95.2462)"/><path d="m0 1.135c-3.981 5.44-8.924 11.863-14.814 19.236-.36-.046-.718-.151-1.054-.289-.475-.185-.914-.463-1.343-.834-.139-.115-.277-.254-.416-.393-.162-.174-.312-.359-.475-.556 4.167-6.4 7.443-11.91 10.637-18.067 2.002-3.518.012-7.789-.359-12.836-.151-2.025-.034-4.178.718-6.458l8.206-.174c1.609 9.63 1.238 16.413-1.1 20.371" fill="#e9d2f4" transform="translate(37.881 73.6252)"/><path d="m0 32.211c-.439.764-.798 1.585-1.111 2.465.035 0 .058.012.092.012-.022 1.771 3.832 4.629 1.632 4.201-2.059-.729-2.152-2.164-3.414-2.234-.069-.254-.127-.509-.15-.763-.046-.406-.024-.799.035-1.193v-.011c.034-.208.092-.417.15-.625.278-.949.81-1.84 1.423-2.685.14-.197.279-.382.417-.567.186-.232.37-.463.556-.683 1.123-1.378 2.245-2.767 3.38-4.144.914-1.134 1.828-2.257 2.696-3.414 3.647-4.861 6.471-10.348 8.311-16.146.428-1.343.798-2.824.3-4.144-.589-1.586-1.07-1.371-2.745-2.884-.436-.394-2.638-2.939-3.517-2.881-.151-2.026-.045-1.168.707-3.448l8.206-.173c1.609 9.629 1.238 16.412-1.1 20.37-3.981 5.44-8.924 11.864-14.814 19.237-.36-.047-.718-.151-1.054-.29" opacity=".1" transform="translate(22.013 61.4962)"/><path d="m0-2.789c-.058 1.076-.625 2.801-2.222 3.519-.069.034-.139.069-.209.092l-.162-.081s-.15 0-.335-.034c-.428-.07-1.077-.302-.834-1.031.035-.115.093-.208.162-.289.533-.648 1.98-.174 2.419-1.227.105-.255.209-.486.336-.683.429-.764.892-1.088.845-.266" fill="#ffd5b0" transform="translate(57.28 37.5022)"/><path d="m0 17.488c-2.187 1.979-5.277 2.732-9.282 2.257h-.012c-1.933-.232-4.085-.752-6.446-1.551 3.634-6.736-.498-18.183 4.259-20.15 2.812-.776 5.648-.73 8.46.104h.012c.046.011.105.034.151.046.116.104.219.22.312.336v.011c.081.093.15.197.197.301.011.012.011.012.023.023.903 1.586.637 4.398.451 7.523-.058.811-.104 1.632-.115 2.466-.07 3.067.231 6.215 1.99 8.634" fill="#d296e9" transform="translate(39.976 38.1282)"/><path d="m0-12.465c-.012.035-.035.069-.046.104-3.6 8.391-6.435 13.033-8.739 13.681-1.019.289-3.379-.88-6.585-3.472-.556-.44-1.135-.926-1.748-1.459-.417-.359-.845-.752-1.285-1.169-.335-.289-.671-.613-1.007-.937l1.378-8.357c.162.116.358.266.555.451.011.012.011.012.023.024 1.204 1.099 2.975 3.322 4.815 5.903.335.485.683.972 1.019 1.469.694 1.019 1.4 2.06 2.071 3.056l8.079-10.579.046.046 1.1.961z" fill="#ffd5b0" transform="translate(55.104 50.5932)"/><path d="m0 3.368c-.29.173-.591.301-.868.37-.787.232-1.54.105-2.246-.37l.116-1.007.301-2.697 2.025-.266c-.265 1.62-.046 2.94.672 3.97" fill="#ffd5b0" transform="translate(34.34 32.3756)"/><path d="m0 3.6c-.29.173-.591.301-.868.37-.14-.301-.29-.59-.532-.81-.279-.266-.661-.405-1.031-.521-.128-.035-.255-.069-.393-.069-.059 0-.116 0-.174.023l.301-2.697 2.025-.266c-.265 1.62-.046 2.94.672 3.97" opacity=".1" transform="translate(34.34 32.1436)"/><path d="m1.296-.745c2.349.068 3.517.62 3.502 1.658.037.938-1.129 2.438-3.502 4.498l-2.719-1.899z" fill="#ffd5b0" transform="matrix(.868663 .495404 .495404 -.868663 30.321 32.062)"/><path d="m0-1.215c1.236.587 2.176.597 2.819.028.912-1.013.974-2.233.183-3.657-.934.041-1.946.391-3.039 1.052-.87-.57-1.604-.607-2.2-.111-1.063.068-1.55.869-1.461 2.402-.442.683-.064 1.375 1.134 2.076-.374.594-.672 1.177-.897 1.748.574.787 1.403 1.222 2.488 1.306.566-.056.999-.293 1.302-.711-.635-1.084-.96-1.815-.975-2.194.013-.406.194-.589.544-.548.331.138.472.486.423 1.044.259-.001.455-.125.591-.372-.429-.748-.732-1.435-.912-2.063" transform="translate(33.278 31.3043)"/><path d="m0-7.069c-.752-.278-1.505.399-2.26 2.032.521 4.574-.32 6.459-2.521 5.656-1.914-.532-2.132-2.828-.653-6.888.776-1.775 2.34-2.222 4.695-1.342.318.412.564.592.739.542" transform="translate(30.981 39.1092)"/><path d="m.858-1.3c-.327.024-.562.223-.704.595.032.473.267.897.704 1.271.304.055.518-.135.64-.569-.304-.031-.518-.463-.64-1.297" fill="#d296e9" transform="matrix(-.397216 .917725 .917725 .397216 30.607 30.9009)"/><path d="m0 4.016c-.66 1.319-1.713 2.431-2.709 3.275-.358.302-.718.568-1.041.799-.556-.44-1.135-.926-1.748-1.458-.417-.359-.845-.753-1.285-1.169-.335-.289-.671-.614-1.007-.938l1.262-8.599h.011c.139.104.289.231.463.382v.011c1.216 1.076 3.125 3.507 5.035 6.227.335.486.683.972 1.019 1.47" fill="#d296e9" transform="translate(43.484 40.3502)"/><path d="m0-22.813c-.058 1.076-.625 2.801-2.222 3.519-3.599 8.391-6.435 13.032-8.739 13.68-1.018.29-3.379-.879-6.585-3.472-.556-.44-1.135-.926-1.748-1.458-.069 3.067.232 6.215 1.99 8.634-2.186 1.979-5.277 2.732-9.282 2.257 1.806-.683 5-1.354 5.243-3.09.209-1.505.522-3.716.811-5.197.081-.417.255-.81.324-1.215.139-.857-.14-1.714-.371-2.558-.034-.128-.069-.255-.104-.382-.29-1.146-.381-2.338-.278-3.507.556.891 1.147 1.759 1.782 2.592.811 1.077 1.691 2.107 2.628 3.079.012.012.034.035.046.046 1.192 1.239 2.721 2.419 4.41 2.223 1.296-.139 2.362-1.077 3.16-2.107 2.315-2.986 3.217-7.083 6.007-9.548.139-.128.278-.244.428-.359.012-.012.035-.024.047-.035.59-.44 1.319-.856 1.597-1.574.162-.44.081-.845.011-1.262.429-.764.892-1.088.845-.266" opacity=".1" transform="translate(57.28 57.5262)"/><path d="m0 12.349c-3.413 0-6.174-2.762-6.174-6.174 0-3.413 2.761-6.174 6.174-6.174 3.412 0 6.174 2.761 6.174 6.174 0 3.412-2.762 6.174-6.174 6.174m0-14.162c-4.411 0-7.988 3.577-7.988 7.988s3.577 7.987 7.988 7.987 7.987-3.576 7.987-7.987-3.576-7.988-7.987-7.988" fill="#ecdaf8" transform="translate(50.952 18.377)"/><path d="m0-1.517v1.517c0 .341-.278.619-.626.619h-1.662v1.662c0 .348-.277.626-.619.626h-1.517c-.341 0-.619-.278-.619-.626v-1.662h-1.662c-.348 0-.625-.278-.625-.619v-1.517c0-.341.277-.619.625-.619h1.662v-1.662c0-.348.278-.626.619-.626h1.517c.342 0 .619.278.619.626v1.662h1.662c.348 0 .626.278.626.619" fill="#fbcffc" transform="translate(54.617 25.3104)"/><g fill-rule="nonzero"><path d="m0 .012c0 .474-.388.862-.873.862h-31.703c-.356 0-.657-.216-.787-.517-.054-.108-.075-.226-.075-.345 0-.485.387-.874.862-.874h31.703c.485 0 .873.389.873.874" fill="#e9d2f4" transform="translate(143.877 46.1422)"/><path d="m0 .012c0 .474-.388.862-.873.862h-31.703c-.356 0-.657-.216-.787-.517h25.58s4.807-.27 5.401-1.219h1.509c.485 0 .873.389.873.874" opacity=".1" transform="translate(143.877 46.1422)"/><path d="m0-11.836v10.144c0 1.434-3.407 4.29-4.852 4.29l-.075-.011-17.247-1.681c-1.434 0-2.598-1.164-2.598-2.598l-.841-3.094-1.606-5.918v-.022c.032-1.444 3.621-3.708 5.045-3.708h19.565c1.444 0 2.609 1.164 2.609 2.598" fill="#be79df" transform="translate(140.945 43.9012)"/><path d="m0-10.134v10.133c0 1.38-1.067 2.512-2.415 2.598-.064.011-.118.011-.184.011h-19.564c-1.444 0-2.609-1.164-2.609-2.609v-10.133c0-.194.021-.377.065-.561v-.021c.258-1.153 1.304-2.026 2.544-2.026h19.564c.95 0 1.78.506 2.232 1.272.226.388.367.84.367 1.336" fill="#e9d2f4" transform="translate(138.433 43.8912)"/><path d="m0-13.906v10.015c0 1.433-3.407 4.29-4.852 4.29l-.075-.011c-.064.011-.118.011-.183.011h-19.565c-1.444 0-2.609-1.164-2.609-2.609v-5.045c.388.054.776.108 1.153.173.173.032.346.064.518.097.592.107 1.186.258 1.747.496.732.312 1.401.787 2.112 1.174 3.428 1.887 7.578 1.768 11.47 1.326.528-.064 1.089-.14 1.628-.28 1.175-.259 2.285-.754 2.899-1.703.065-.097.119-.194.173-.302.42-.84.388-1.811.452-2.738.087-1.304.378-2.641 1.164-3.686.292-.389.669-.733 1.089-.981.701-.432 1.531-.626 2.318-.432.205.043.388.119.561.205" opacity=".1" transform="translate(140.945 46.1002)"/><path d="m0 4.923h-11.599c-.42 0-.759-.34-.759-.76v-3.403c0-.42.339-.76.759-.76h11.599c.42 0 .76.34.76.76v3.403c0 .42-.34.76-.76.76" fill="#fff" transform="translate(128.967 32.8557)"/><path d="m0 1.797h-1.258c-.149 0-.269-.121-.269-.27v-1.258c0-.148.12-.269.269-.269h1.258c.148 0 .27.121.27.269v1.258c0 .149-.122.27-.27.27" fill="#fff" transform="translate(118.136 39.7102)"/><path d="m0 1.797h-1.258c-.148 0-.269-.121-.269-.27v-1.258c0-.148.121-.269.269-.269h1.258c.149 0 .27.121.27.269v1.258c0 .149-.121.27-.27.27" fill="#fff" transform="translate(121.91 39.7102)"/><path d="m0 1.797h-1.258c-.149 0-.269-.121-.269-.27v-1.258c0-.148.12-.269.269-.269h1.258c.148 0 .27.121.27.269v1.258c0 .149-.122.27-.27.27" fill="#fff" transform="translate(125.684 39.7102)"/><path d="m0 1.797h-1.258c-.148 0-.269-.121-.269-.27v-1.258c0-.148.121-.269.269-.269h1.258c.149 0 .27.121.27.269v1.258c0 .149-.121.27-.27.27" fill="#fff" transform="translate(129.458 39.7102)"/><path d="m0 1.797h-1.258c-.149 0-.269-.121-.269-.27v-1.257c0-.149.12-.27.269-.27h1.258c.148 0 .27.121.27.27v1.257c0 .149-.122.27-.27.27" fill="#fff" transform="translate(118.136 42.4832)"/><path d="m0 1.797h-1.258c-.148 0-.269-.121-.269-.27v-1.257c0-.149.121-.27.269-.27h1.258c.149 0 .27.121.27.27v1.257c0 .149-.121.27-.27.27" fill="#fff" transform="translate(121.91 42.4832)"/><path d="m0 1.797h-1.258c-.149 0-.269-.121-.269-.27v-1.257c0-.149.12-.27.269-.27h1.258c.148 0 .27.121.27.27v1.257c0 .149-.122.27-.27.27" fill="#fff" transform="translate(125.684 42.4832)"/><path d="m0 1.797h-1.258c-.148 0-.269-.121-.269-.27v-1.257c0-.149.121-.27.269-.27h1.258c.149 0 .27.121.27.27v1.257c0 .149-.121.27-.27.27" fill="#fff" transform="translate(129.458 42.4832)"/><path d="m0 1.797h-1.258c-.148 0-.269-.121-.269-.27v-1.257c0-.149.121-.27.269-.27h1.258c.149 0 .27.121.27.27v1.257c0 .149-.121.27-.27.27" fill="#fbcffc" transform="translate(117.862 39.5372)"/><path d="m0 1.797h-1.258c-.148 0-.269-.121-.269-.27v-1.257c0-.149.121-.27.269-.27h1.258c.149 0 .271.121.271.27v1.257c0 .149-.122.27-.271.27" fill="#fbcffc" transform="translate(121.635 39.5372)"/><path d="m0 1.797h-1.258c-.149 0-.269-.121-.269-.27v-1.257c0-.149.12-.27.269-.27h1.258c.148 0 .27.121.27.27v1.257c0 .149-.122.27-.27.27" fill="#fbcffc" transform="translate(125.41 39.5372)"/><path d="m0 1.797h-1.258c-.148 0-.269-.121-.269-.27v-1.257c0-.149.121-.27.269-.27h1.258c.149 0 .27.121.27.27v1.257c0 .149-.121.27-.27.27" fill="#fbcffc" transform="translate(129.183 39.5372)"/><path d="m0 1.797h-1.258c-.148 0-.269-.121-.269-.27v-1.257c0-.149.121-.27.269-.27h1.258c.149 0 .27.121.27.27v1.257c0 .149-.121.27-.27.27" fill="#fbcffc" transform="translate(117.862 42.3092)"/><path d="m0 1.797h-1.258c-.148 0-.269-.121-.269-.27v-1.257c0-.149.121-.27.269-.27h1.258c.149 0 .271.121.271.27v1.257c0 .149-.122.27-.271.27" fill="#fbcffc" transform="translate(121.635 42.3092)"/><path d="m0 1.797h-1.258c-.149 0-.269-.121-.269-.27v-1.257c0-.149.12-.27.269-.27h1.258c.148 0 .27.121.27.27v1.257c0 .149-.122.27-.27.27" fill="#fbcffc" transform="translate(125.41 42.3092)"/><path d="m0 1.797h-1.258c-.148 0-.269-.121-.269-.27v-1.257c0-.149.121-.27.269-.27h1.258c.149 0 .27.121.27.27v1.257c0 .149-.121.27-.27.27" fill="#fbcffc" transform="translate(129.183 42.3092)"/><path d="m0 4.678-.619-3.519-.691 1.306h-2.16v-.269h1.998l.984-1.857.547 3.122.353-1.265h1.31l.366-1.417.309.988.99-1.767.489 2.985.459-.789h1.542l.601-1.688.736 2.606.313-1.101.295.441.837-2.086.449 1.828h.54v.269h-.75l-.299-1.22-.717 1.784-.255-.381-.413 1.453-.767-2.707-.381 1.071h-1.576l-.76 1.303-.485-2.963-.917 1.641-.215-.687-.182.706h-1.315z" fill="#fbcffc" transform="translate(120.079 32.9875)"/><path d="m0-.82v.809c0 .161-.13.28-.28.28h-1.241v1.24c0 .161-.128.291-.291.291h-.797c-.162 0-.291-.13-.291-.291v-1.24h-1.24c-.151 0-.28-.119-.28-.28v-.809c0-.151.129-.28.28-.28h1.24v-1.24c0-.162.129-.28.291-.28h.797c.163 0 .291.118.291.28v1.24h1.241c.15 0 .28.129.28.28" fill="#fff" transform="translate(136.707 41.9172)"/><path d="m0 .731c-.148 0-.27-.121-.27-.27 0-.148.122-.269.27-.269.335 0 .667-.05.983-.148.143-.044.294.035.337.177.044.142-.035.293-.176.337-.371.115-.754.173-1.144.173" fill="#be79df" transform="translate(140.293 34.1107)"/><path d="m0-32.372h-2.189c-.149 0-.27-.121-.27-.27 0-.148.121-.269.27-.269h2.189c.148 0 .269.121.269.269 0 .149-.121.27-.269.27m4.378 0h-2.189c-.148 0-.269-.121-.269-.27 0-.148.121-.269.269-.269h2.189c.148 0 .269.121.269.269 0 .149-.121.27-.269.27m4.378 0h-2.19c-.148 0-.269-.121-.269-.27 0-.148.121-.269.269-.269h2.19c.148 0 .269.121.269.269 0 .149-.121.27-.269.27m4.377 0h-2.189c-.148 0-.269-.121-.269-.27 0-.148.121-.269.269-.269h2.189c.148 0 .269.121.269.269 0 .149-.121.27-.269.27m4.379 0h-2.191c-.148 0-.269-.121-.269-.27 0-.148.121-.269.269-.269h2.191c.148 0 .269.121.269.269 0 .149-.121.27-.269.27m4.377.001h-.009l-.094-.001h-2.086c-.148 0-.269-.121-.269-.27 0-.148.121-.269.269-.269l2.196.002c.149.004.266.129.262.278-.005.145-.124.26-.269.26m-28.431.217c-.109 0-.213-.068-.253-.177-.052-.14.021-.294.16-.346.425-.155.872-.234 1.327-.234h.93c.149 0 .27.121.27.269 0 .149-.121.27-.27.27h-.93c-.392 0-.776.068-1.141.202-.03.011-.063.016-.093.016m31.729 2.236c-.113 0-.218-.072-.256-.185-.215-.647-.619-1.206-1.168-1.615-.119-.089-.145-.258-.056-.377.09-.119.259-.143.377-.055.64.476 1.108 1.125 1.358 1.877.046.141-.029.294-.171.341-.028.009-.056.014-.084.014m-34.077.867h-.269c-.001-.799.238-1.561.69-2.21.087-.123.254-.15.376-.067.121.086.152.253.067.376-.39.558-.595 1.212-.594 1.893zm34.259 3.49c-.148 0-.269-.121-.269-.269v-2.189c0-.149.121-.27.269-.27.149 0 .269.121.269.27v2.189c0 .148-.12.269-.269.269m-34.259 1.158c-.148 0-.269-.121-.269-.27v-2.189c0-.149.121-.27.269-.27.149 0 .27.121.27.27v2.189c0 .149-.121.27-.27.27m34.259 3.22c-.148 0-.269-.12-.269-.269v-2.189c0-.149.121-.27.269-.27.149 0 .269.121.269.27v2.189c0 .149-.12.269-.269.269m0 4.378c-.148 0-.269-.121-.269-.27v-2.189c0-.149.121-.269.269-.269.149 0 .269.12.269.269v2.189c0 .149-.12.27-.269.27m0 4.378c-.148 0-.269-.121-.269-.27v-2.189c0-.149.121-.269.269-.269.149 0 .269.12.269.269v2.189c0 .149-.12.27-.269.27m0 4.377c-.148 0-.269-.12-.269-.269v-2.189c0-.149.121-.269.269-.269.149 0 .269.12.269.269v2.189c0 .149-.12.269-.269.269m0 4.378c-.148 0-.269-.12-.269-.269v-2.189c0-.149.121-.269.269-.269.149 0 .269.12.269.269v2.189c0 .149-.12.269-.269.269m-.748 4.211c-.058 0-.115-.018-.164-.056-.118-.091-.14-.26-.05-.378.418-.54.656-1.187.688-1.87.008-.148.145-.279.282-.256.148.007.264.133.257.282-.038.793-.314 1.545-.799 2.174-.054.068-.134.104-.214.104" fill="#be79df" transform="translate(118.507 32.911)"/><path d="m0 1.617c-.148 0-.27-.121-.27-.27v-1.077c0-.149.122-.27.27-.27s.27.121.27.27v1.077c0 .149-.122.27-.27.27" fill="#be79df" transform="translate(109.618 10.1827)"/><path d="m0 3.234c-.306 0-.554-.248-.554-.554v-2.126c0-.306.248-.554.554-.554s.554.248.554.554v2.126c0 .306-.248.554-.554.554" fill="#be79df" transform="translate(109.618 8.5657)"/><path d="m-.698-.919c-.489-.388-2.103 1.649-1.614 2.037.497.394 1.219.311 1.614-.187l.187-.236c.394-.497.311-1.22-.187-1.614" fill="#be79df" transform="matrix(.621063 -.783761 -.783761 -.621063 110.631 10.214)"/></g></svg>