<svg clip-rule="evenodd" fill-rule="evenodd" stroke-linejoin="round" stroke-miterlimit="1.41421" viewBox="0 0 806 806" xmlns="http://www.w3.org/2000/svg">
  <g fill-rule="nonzero" transform="matrix(8.33333 0 0 8.33333 -2853.39 -1374.31)">
    <path d="m390.746 164.918c-26.697 0-48.339 21.64-48.339 48.336s21.642 48.335 48.339 48.335 48.339-21.639 48.339-48.335-21.642-48.336-48.339-48.336" fill="#fff"/>
    <path d="m390.746 164.918c-26.697 0-48.339 21.64-48.339 48.336 0 11.49 4.012 22.042 10.708 30.335 3.785-12.48 16.902-20.551 18.974-21.761l5.144-9.154c-.42-1.113-1.204-3.343-1.899-6.13-.098-.238-.174-.451-.223-.631-1.087-4.098-1.384-6.835-1.14-9.409.001-2.103.231-4.19.802-6.124 2.653-8.997 10.502-15.073 20.99-11.951.925.275 2.204.779 3.653 1.409 1.034.383 2.013.827 2.93 1.328 5.399 2.529 11.5 5.755 11.5 5.755s.085 3.646-3.178 5.573c.366 2.691.004 5.604-1.089 8.625l1.294 8.659c.087.49-.151 1.078-.616 1.505-.487.449-1.127.629-1.73.492h-1.343l-.863 3.715-.14.14c-.087.088-.904.847-2.587.528-1.324-.25-2.305.022-2.93.329l3.817 2.026-2.252 3.447c-.747 2.041-2.944 3.155-5.043 2.544l-.063-.019-4.82-2.506-3.172 6.9.852 3.318c.007.003.011.003.011.003s9.44 15.645 10.203 28.464c2.818-.559 5.549-1.362 8.168-2.387l2.881-12.754-.361-5.716c-.072-1.531.36-3.87 1.478-5.689l4.358-8.471.467.047c.111.011 1.084.134 1.7 1.058.547.825.6 1.973.156 3.414l-.039.1c-.497 1.018-1.289 2.69-1.433 3.119-.112.333-.183.933-.038 1.372.803-.892 2.43-3.009 3.647-6.631.469-1.401.093-5.905-.091-7.522l-.011-.098.016-.097c.012-.071.129-.713.501-1.373.544-.966 1.386-1.499 2.371-1.499h.005l.569.001 2.3 11.86-7.304 18.54-.096 4.213c11.915-8.802 19.644-22.946 19.644-38.897 0-26.696-21.642-48.336-48.339-48.336" fill="#ddeee7"/>
    <path d="m408.221 200.807c1.03-2.782 1.407-5.393 1.131-7.81-1.983.118-9.316-.508-12.489.511-2.046.658-3.929 4.579-3.929 4.579s-4.367-2.497-5.844 2.56c-.929 3.179.314 4.97.314 4.97s-4.997 4.186-6.643 5.558c-.519.432-1.29.978-1.948 1.427-.019.064-.039.126-.065.185l-.033.068-5.478 9.749c1.27 1.317 2.588 2.464 3.898 3.457 1.124.721 2.556 1.584 4.385 2.615 1.173.662 2.348 1.301 3.432 1.88 1.416.594 2.625.994 3.503 1.251l-.785-3.061 3.984-8.663 5.983 3.111c1.396.375 2.845-.392 3.315-1.767l.03-.081 1.515-2.323-4.271-2.266.615-.659c.072-.078 1.818-1.901 5.009-1.297.647.12 1.041.008 1.231-.081l1.005-4.328h2.626l.095.028c.137.041.276.015.415-.075.176-.116.268-.284.285-.35l-1.348-9.021z" fill="#fff"/>
    <g fill="#0a322b">
      <path d="m377.233 212.673-5.144 9.154c.18-.105.854.474 1.148.778l5.478-9.749.034-.069c.024-.059.046-.121.064-.185-.704.478-1.278.846-1.278.846s-.115-.276-.302-.775"/>
      <path d="m409.578 201.119c1.094-3.021 1.455-5.936 1.089-8.626-.269.158-.558.307-.873.439-.077.032-.231.053-.442.065.276 2.417-.101 5.028-1.132 7.81l-.06.166 1.347 9.022c-.017.066-.109.234-.286.35-.138.09-.278.116-.414.075l-.096-.028h-2.626l-1.004 4.328c-.191.089-.585.201-1.231.081-3.192-.604-4.937 1.219-5.009 1.297l-.616.659 4.271 2.266-1.516 2.323-.027.081c-.473 1.375-1.918 2.142-3.315 1.767l-5.985-3.111-3.983 8.663.785 3.061c.895.262 1.447.374 1.527.39l-.851-3.318 3.171-6.901 4.821 2.507.063.019c2.099.611 4.296-.504 5.043-2.545l2.251-3.448-3.817-2.024c.626-.307 1.607-.579 2.93-.329 1.684.319 2.5-.441 2.588-.528l.14-.14.863-3.715h1.342c.603.137 1.242-.043 1.73-.492.465-.428.704-1.016.616-1.506z"/>
      <path d="m402.346 181.165c-1.018-.475-2.009-.927-2.93-1.328-1.451-.629-2.727-1.133-3.653-1.409-10.488-3.121-18.336 2.955-20.991 11.951-.571 1.933-.801 4.022-.803 6.124-.004 3.529.63 7.096 1.364 10.041.695 2.787 1.481 5.017 1.899 6.129.188.499.302.774.302.774s.575-.367 1.279-.846c.657-.448 1.429-.994 1.948-1.427 1.646-1.371 6.643-5.557 6.643-5.557s-1.243-1.79-.314-4.97c1.478-5.058 5.844-2.561 5.844-2.561s1.883-3.92 3.929-4.578c3.173-1.019 10.506-.393 12.489-.51.213-.013.364-.034.442-.066.317-.132.604-.281.872-.439 3.265-1.926 3.18-5.572 3.18-5.572s-6.101-3.227-11.5-5.756"/>
    </g>
    <path d="m389.983 232.197c-.08-.016-.632-.128-1.527-.39-.878-.256-2.088-.657-3.503-1.251-1.085-.579-2.259-1.218-3.434-1.88-1.829-1.032-3.261-1.894-4.383-2.615-1.312-.993-2.629-2.14-3.9-3.457-.292-.303-.722-.703-1.008-1.025 0 0-.099.054-.279.159-2.071 1.21-15.048 9.369-18.834 21.851 6.621 8.202 15.868 14.195 26.466 16.701l3.263.653c2.573.421 5.209.646 7.902.646 3.234 0 6.393-.32 9.451-.926-.764-12.819-10.203-28.464-10.203-28.464s-.004-.001-.011-.002" fill="#00a183"/>
    <path d="m423.972 217.537h-.005c-.985 0-1.828.533-2.372 1.499-.371.66-.488 1.301-.5 1.373l-.018.096.012.098c.186 1.617.562 6.122.091 7.523-1.218 3.62-2.843 5.738-3.646 6.63-.145-.439-.074-1.038.039-1.37.142-.43.935-2.102 1.432-3.121l.039-.101c.444-1.44.391-2.588-.158-3.412-.614-.925-1.588-1.047-1.698-1.059l-.467-.047-4.358 8.471c-1.118 1.82-1.548 4.159-1.48 5.688l.363 5.718-2.88 12.754c.525-.207 1.045-.424 1.561-.647l2.711-11.996-.374-5.904c-.058-1.269.321-3.347 1.288-4.91l3.904-7.584c.101.068.206.163.289.295.289.449.286 1.202-.006 2.177-.209.432-1.269 2.617-1.478 3.239-.322.963-.356 2.669.863 3.424l.427.265.385-.324c.109-.095 2.749-2.374 4.554-7.746.625-1.859.094-7.015-.015-8.01.063-.279.313-1.167.951-1.505l1.982 10.215-7.247 18.394-.125 5.49c.474-.324.943-.656 1.405-.998l.096-4.214 7.303-18.54-2.3-11.86z" fill="#0a322b"/>
    <path d="m414.618 214.173-6.019.728c-.421.051-.723.435-.672.857.046.393.38.68.764.68.031 0 .064-.002.095-.005l6.018-.728c.421-.051.725-.436.673-.859-.05-.423-.436-.724-.859-.673" fill="#ff3494"/>
    <path d="m414.39 220.127-4.989-1.932c-.398-.153-.845.044-.998.442-.154.398.044.845.441.999l4.989 1.93c.091.036.185.053.279.053.308 0 .6-.188.719-.494.154-.397-.044-.844-.441-.998" fill="#ff3494"/>
    <path d="m406.965 221.154c-.278-.323-.766-.358-1.089-.08-.322.279-.357.766-.079 1.089l3.96 4.588c.153.176.369.267.585.267.178 0 .357-.06.504-.187.322-.279.359-.765.08-1.088z" fill="#ff3494"/>
  </g>
</svg>
