<svg clip-rule="evenodd" fill-rule="evenodd" stroke-miterlimit="10" viewBox="0 0 834 869" xmlns="http://www.w3.org/2000/svg" xmlns:xlink="http://www.w3.org/1999/xlink"><clipPath id="a"><path clip-rule="evenodd" d="m184.554 365.452c0 27.626 22.396 50.021 50.022 50.021 27.625 0 50.021-22.395 50.021-50.021s-22.396-50.021-50.021-50.021c-27.626 0-50.022 22.395-50.022 50.021z"/></clipPath><g clip-path="url(#a)" transform="matrix(8.33333 0 0 8.33333 -1537.95 -2628.59)"><path d="m284.597 365.452c0 27.626-22.396 50.021-50.021 50.021-27.626 0-50.022-22.395-50.022-50.021s22.396-50.021 50.022-50.021c27.625 0 50.021 22.395 50.021 50.021" fill="#33da97" fill-rule="nonzero"/><path d="m232.458 379.019c0 1.123-.91 2.034-2.033 2.034-1.124 0-2.034-.911-2.034-2.034s.91-2.033 2.034-2.033c1.123 0 2.033.91 2.033 2.033" fill="#ec5530" fill-rule="nonzero"/><path d="m230.425 383.422c-2.429 0-4.404-1.975-4.404-4.403s1.975-4.404 4.404-4.404c2.428 0 4.403 1.976 4.403 4.404s-1.975 4.403-4.403 4.403z" fill="none" stroke="#ec5530"/><path d="m230.425 385.703c-3.687 0-6.685-2.998-6.685-6.685 0-3.685 2.998-6.684 6.685-6.684 3.686 0 6.684 2.999 6.684 6.684 0 3.687-2.998 6.685-6.684 6.685z" fill="none" stroke="#ec5530"/><g fill-rule="nonzero"><path d="m256.184 357.28c-.102-.036-10.149-3.553-11.231-3.988-.25-.101-.574-.218-.916-.342-.731-.267-1.641-.597-2.177-.891-.2-.109-.326-.328-.329-.568l-.051-5.042-6.903 1.545-7.216-1.54-.051 5.074c-.002.228-.118.44-.302.553-.542.335-1.481.697-2.235.989-.208.08-.401.154-.568.222-1.083.435-11.13 3.952-11.23 3.987-.2.069-4.912 1.74-5.951 6.471-.572 2.608-.869 15.001-1.018 15.799h57.144c-.148-.798-.445-13.189-1.018-15.799-1.038-4.731-5.751-6.402-5.948-6.47" fill="#fff"/><path d="m206.582 379.021c.038-.622.084-1.687.153-3.299.172-4.046.432-10.161.804-11.858.976-4.442 5.419-6.02 5.609-6.086.102-.035 10.158-3.556 11.252-3.995.165-.067.357-.141.563-.22.774-.3 1.737-.672 2.322-1.032.336-.207.548-.589.553-.997l.044-4.429 6.584 1.406c.074.016.151.016.225-.001l6.267-1.403.045 4.39c.004.431.235.825.602 1.026.572.312 1.501.65 2.252.924.338.123.657.238.898.336 1.046.42 10.201 3.627 11.241 3.991.001.001.015.006.016.006.188.064 4.63 1.641 5.604 6.084.373 1.699.633 7.815.805 11.862.068 1.609.114 2.674.153 3.295zm56.894-3.34c-.184-4.328-.436-10.255-.829-12.044-1.1-5.013-6.081-6.783-6.302-6.859-3.767-1.319-10.365-3.641-11.196-3.975-.258-.103-.585-.222-.936-.35-.713-.259-1.6-.582-2.101-.856-.026-.014-.053-.055-.053-.111l-.052-5.042c-.001-.159-.074-.31-.199-.408-.125-.099-.288-.136-.444-.102l-6.791 1.521-7.102-1.517c-.156-.033-.317.006-.44.104-.124.099-.196.249-.198.407l-.051 5.074c-.001.052-.026.094-.051.109-.502.31-1.415.662-2.149.946-.21.082-.406.157-.575.225-1.072.431-11.106 3.944-11.204 3.978-.212.073-5.195 1.843-6.295 6.856-.392 1.787-.644 7.714-.828 12.041-.077 1.822-.151 3.542-.193 3.775-.028.154.013.313.114.433.099.121.249.191.405.191h57.143c.158 0 .306-.07.406-.191.1-.12.142-.279.114-.433-.043-.233-.116-1.952-.193-3.772" fill="#16547a"/><path d="m262.537 363.654c-1.089-4.964-6.016-6.711-6.225-6.782-.097-.034-10.135-3.549-11.21-3.981-.256-.102-.583-.221-.928-.347-.718-.261-1.612-.586-2.12-.865-.066-.036-.108-.11-.109-.194l-.045-4.515-.01-1.053-.997.222-6.319 1.415-6.636-1.416-.987-.211-.011 1.043-.046 4.554c-.001.078-.039.151-.098.188-.511.314-1.469.684-2.169.955-.207.08-.403.156-.573.224-1.075.432-11.114 3.947-11.214 3.982-.205.07-5.131 1.817-6.221 6.781-.575 2.618-.873 7.834-1.02 8.634l-.016.08h.846c.154-.821.448-6.011 1-8.524.999-4.548 5.676-6.157 5.676-6.157s10.145-3.551 11.249-3.995c.78-.313 2.137-.792 2.867-1.242.309-.191.5-.539.504-.917l.045-4.553 6.808 1.453 6.491-1.453.046 4.515c.004.398.215.761.55.944.817.447 2.351.938 3.137 1.253 1.103.444 11.248 3.995 11.248 3.995s4.678 1.609 5.677 6.157c.551 2.513.846 7.703 1 8.524h.846l-.014-.08c-.149-.8-.447-6.016-1.022-8.634" fill="#0a322b"/><path d="m245.938 333.728c-.477 0-.844.544-.979.777l-.007.013-.115.23-1.376-9.542-7.8-4.082h-2.165l-7.832 3.129-1.344 10.495-.114-.23-.008-.013c-.135-.233-.502-.777-.979-.777-.196 0-.551.092-.724.704-.225.789.167 3.236.32 3.634l1.312 3.352c.049.124.505 1.213 1.364 1.213.059 0 .119-.006.178-.016.026.103.051.206.077.307.28 1.127.507 2.073.649 2.667.147.619.393 1.2.73 1.724.401.626 1.073 1.613 1.998 2.768 1.713 2.141 3.727 2.287 3.812 2.292l.012.001h3.262l.013-.001c.085-.005 2.098-.151 3.813-2.292.924-1.155 1.596-2.142 1.998-2.768.337-.524.582-1.105.729-1.724.141-.592.367-1.535.649-2.667.025-.101.05-.204.077-.307.058.01.118.016.179.016.858 0 1.313-1.089 1.363-1.215l1.311-3.35c.154-.398.545-2.844.322-3.634-.175-.612-.53-.704-.725-.704" fill="#fff"/><path d="m245.85 337.873-1.312 3.35c-.096.244-.442.88-.872.88-.028 0-.056-.002-.083-.007-.274-.05-.54.12-.608.39l-.076.309c-.304 1.221-.538 2.198-.651 2.672-.133.561-.355 1.086-.66 1.56-.395.616-1.056 1.587-1.966 2.723-1.517 1.895-3.243 2.08-3.431 2.096h-3.228c-.116-.009-1.881-.162-3.428-2.096-.91-1.136-1.572-2.107-1.966-2.722-.305-.474-.528-1-.66-1.561-.143-.6-.372-1.55-.651-2.672l-.077-.309c-.067-.27-.333-.44-.607-.39-.028.005-.055.007-.083.007-.431 0-.776-.634-.872-.877l-1.312-3.351c-.126-.326-.49-2.648-.305-3.299.044-.155.124-.32.217-.32.108 0 .323.176.521.512l.106.214c.104.208.332.326.561.286.229-.039.406-.223.436-.454l1.305-10.186 7.449-2.976h1.934l7.447 3.896 1.337 9.274c.033.23.211.41.438.447.229.036.454-.08.557-.287l.106-.214c.195-.333.413-.512.522-.512.093 0 .173.165.217.32.184.651-.18 2.973-.305 3.297m.088-4.673c-.29 0-.541.104-.754.255l-1.2-8.325c-.025-.168-.128-.314-.278-.393l-7.8-4.081c-.077-.039-.16-.059-.245-.059h-2.165c-.067 0-.133.012-.196.037l-7.833 3.129c-.178.07-.303.232-.327.422l-1.186 9.257c-.208-.143-.454-.242-.735-.242-.217 0-.945.078-1.232 1.087-.274.961.176 3.554.337 3.971l1.312 3.353c.096.241.595 1.376 1.62 1.531.268 1.078.487 1.989.625 2.569.161.678.43 1.312.799 1.887.408.636 1.093 1.64 2.03 2.812.759.947 1.702 1.675 2.726 2.104.804.337 1.401.381 1.467.385l.012.001c.011 0 .021.001.032.001h3.262c.011 0 .035-.001.044-.002.067-.004.663-.048 1.468-.385 1.024-.429 1.966-1.157 2.726-2.104.937-1.172 1.621-2.176 2.03-2.812.368-.575.638-1.209.799-1.887.109-.46.333-1.397.624-2.569 1.024-.155 1.525-1.29 1.621-1.533l1.313-3.353c.161-.415.609-3.008.335-3.968-.286-1.01-1.014-1.088-1.231-1.088" fill="#16547a"/><path d="m247.061 334.311c-.26-.914-.872-1.013-1.123-1.013-.217 0-.411.066-.582.167l.067-.859h-.833l-.337 4.258 1.062-2.137s.33-.57.623-.57c.125 0 .242.104.326.396.189.662-.182 3.07-.307 3.352l-1.312 3.35s-.374.947-.979.947c-.096 0-.198-.026-.305-.079-.061-.033-.113-.058-.158-.082-.066.26-.131.519-.195.774-.276 1.114-.503 2.053-.649 2.672-.135.566-.36 1.103-.673 1.588-.406.634-1.067 1.601-1.972 2.731-1.619 2.022-3.516 2.137-3.516 2.137h-3.239s-1.898-.115-3.517-2.137c-.904-1.13-1.565-2.097-1.972-2.731-.311-.485-.537-1.022-.672-1.588-.147-.619-.373-1.558-.65-2.672-.064-.255-.128-.514-.193-.774-.046.024-.099.049-.159.082-.107.053-.21.079-.305.079-.605 0-.979-.947-.979-.947l-1.312-3.35c-.126-.282-.495-2.69-.307-3.352.083-.292.201-.396.326-.396.293 0 .623.57.623.57l1.062 2.137-.337-4.258h-.391c-.166 0-.315-.028-.449-.074l.074.933c-.171-.101-.366-.167-.582-.167-.251 0-.863.099-1.123 1.013-.257.904.142 3.399.334 3.916l1.313 3.351c.022.059.144.353.364.661.426.596.89.779 1.243.815.276 1.112.501 2.048.642 2.638.159.667.423 1.292.787 1.859.406.634 1.088 1.635 2.023 2.803 1.829 2.284 4.016 2.442 4.109 2.447l.024.002h3.287l.025-.002c.091-.005 2.279-.163 4.107-2.447.936-1.168 1.617-2.169 2.024-2.803.364-.567.628-1.192.787-1.859.14-.59.366-1.526.642-2.638.353-.036.817-.219 1.243-.815.22-.308.341-.602.364-.659l1.312-3.353c.192-.517.592-3.012.335-3.916" fill="#0a322b"/><path d="m242.753 322.134s-1.592-3.597-4.104-3.943-8.584-.563-10.928 1.516c-2.345 2.08-3.811 3.684-3.727 5.504 0 0-1.089 5.37-.084 9.573.309 1.292.555 2.232.746 2.914.099.348.61.282.617-.081.043-2.567.168-6.995.521-7.816.503-1.17 1.257-3.38 3.937-3.38 2.679 0 9.588.217 10.928-.953 0 0 2.303 1.863 2.889 5.243.355 2.046.476 4.352.517 6.006.008.367.533.422.619.065.198-.819.406-1.837.557-2.98.348-2.62.443-8.028-.395-9.545-.837-1.517-2.093-2.123-2.093-2.123" fill="#0a322b"/><path d="m256.422 356.788c-.072-.026-7.726-2.705-10.401-3.679l-.413-.15-.337.29c-2.364 2.036-6.313 3.252-10.564 3.252h-.064-.065c-4.252 0-8.201-1.216-10.564-3.252l-.336-.29-.413.15c-2.677.974-10.329 3.653-10.403 3.679-.208.071-5.614 1.371-7.279 8.973-1.38 6.3-6.63 53.039-6.776 53.839l74.402-2.667c-.146-.799-8.128-44.872-9.508-51.172-1.665-7.602-7.071-8.902-7.279-8.973" fill="#00a183"/><path d="m240.571 397.973c0 1.655-1.342 2.997-2.997 2.997-1.656 0-2.998-1.342-2.998-2.997 0-1.656 1.342-2.998 2.998-2.998 1.655 0 2.997 1.342 2.997 2.998" fill="#ff3494"/></g><path d="m237.574 404.462c-3.579 0-6.49-2.911-6.49-6.49 0-3.578 2.911-6.489 6.49-6.489 3.578 0 6.489 2.911 6.489 6.489 0 3.579-2.911 6.49-6.489 6.49z" fill="none" stroke="#ff3494"/><path d="m237.574 407.824c-5.433 0-9.853-4.42-9.853-9.853 0-5.431 4.42-9.851 9.853-9.851 5.432 0 9.852 4.42 9.852 9.851 0 5.433-4.42 9.853-9.852 9.853z" fill="none" stroke="#ff3494"/></g></svg>