<svg clip-rule="evenodd" fill-rule="evenodd" stroke-linejoin="round" stroke-miterlimit="1.41421" viewBox="0 0 806 806" xmlns="http://www.w3.org/2000/svg">
  <g fill-rule="nonzero" transform="matrix(8.33333 0 0 8.33333 -1924.91 -1374.31)">
    <path d="m279.328 164.918c-26.697 0-48.339 21.64-48.339 48.336 0 12.85 5.016 24.527 13.195 33.185 3.627-9.274 11.763-16.192 14.616-18.41l4.221-10.203c-.548-1.056-1.593-3.176-2.617-5.858-.125-.227-.227-.43-.296-.602-1.569-3.939-2.189-6.622-2.257-9.205-.247-2.088-.269-4.189.067-6.178 1.561-9.249 8.629-16.217 19.415-14.37.95.163 2.279.511 3.793.963 1.073.257 2.099.582 3.07.969 5.663 1.867 12.103 4.342 12.103 4.342s.519 3.609-2.492 5.912c.685 2.628.675 5.564-.05 8.694l2.318 8.443c.148.475-.02 1.087-.432 1.567-.428.504-1.043.758-1.658.694l-1.334.162-.402 3.705-1.791 3.938-.896 2.502c-.483 2.139-2.543 3.53-4.712 3.168l-.06-.012-5.673-1.466-2.349 7.301 1.245 3.193c.005 0 .01.001.01.001s9.784 12.541 12.952 24.484c21.07-5.212 36.692-24.239 36.692-46.919 0-26.696-21.642-48.336-48.339-48.336" fill="#ddeee7"/>
    <path d="m292.373 202.344c.69-2.886.749-5.521.187-7.887-1.959.352-9.307.606-12.335 1.997-1.953.896-3.354 5.014-3.354 5.014s-4.634-1.958-5.497 3.239c-.543 3.269.903 4.897.903 4.897s-4.461 4.753-5.929 6.311c-.465.492-1.166 1.126-1.767 1.65-.009.066-.022.13-.039.192l-.025.071-4.118 9.947c2.85 2.402 5.764 4.083 8.381 5.255.136.057.27.113.408.171.582.242 1.164.479 1.734.707 2.306.86 4.25 1.314 5.516 1.548l-1.134-2.918 2.898-9.008 6.904 1.783c1.445.227 2.81-.712 3.117-2.146l.025-.089.942-2.623 1.708-3.762.499-4.577 2.609-.313.096.017c.141.023.276-.018.403-.125.161-.136.232-.314.242-.382l-2.415-8.796z" fill="#fff"/>
    <path d="m263.022 217.825-4.222 10.203c.638-.496 1.404-.418 1.599-.253l4.117-9.947.026-.07c.016-.063.029-.128.039-.193-.64.559-1.165.993-1.165.993s-.148-.261-.394-.733" fill="#0a322b"/>
    <path d="m293.757 202.493c.726-3.13.736-6.066.05-8.694-.246.19-.516.37-.813.539-.074.043-.223.081-.434.119.561 2.366.504 5.003-.188 7.888l-.042.172 2.416 8.796c-.01.069-.081.246-.242.382-.126.107-.262.149-.402.125l-.097-.016-2.608.313-.499 4.577-1.708 3.761-.943 2.624-.025.089c-.307 1.433-1.672 2.372-3.116 2.145l-6.905-1.782-2.897 9.007 1.136 2.919c.924.171 1.49.223 1.571.23l-1.242-3.193 2.349-7.299 5.673 1.465.06.011c2.168.363 4.228-1.029 4.712-3.167l.896-2.502 1.788-3.939.405-3.705 1.334-.16c.614.063 1.227-.191 1.658-.695.41-.48.578-1.093.43-1.568z" fill="#0a322b"/>
    <path d="m268.78 233.031c.741.332 1.458.623 2.143.878-.572-.23-1.152-.465-1.735-.707-.139-.059-.272-.114-.408-.171" fill="#175071"/>
    <path d="m284.197 183.545c-1.068-.352-2.107-.682-3.071-.969-1.515-.453-2.841-.8-3.793-.964-10.785-1.847-17.852 5.122-19.414 14.371-.336 1.988-.314 4.09-.067 6.178.417 3.503 1.473 6.968 2.553 9.806 1.023 2.683 2.068 4.803 2.617 5.857.246.473.394.733.394.733s.525-.432 1.166-.991c.599-.525 1.301-1.159 1.764-1.651 1.47-1.558 5.931-6.31 5.931-6.31s-1.445-1.629-.903-4.897c.863-5.198 5.497-3.24 5.497-3.24s1.402-4.117 3.353-5.014c3.029-1.39 10.376-1.645 12.336-1.996.212-.039.362-.078.435-.12.297-.169.566-.351.813-.54 3.011-2.302 2.492-5.911 2.492-5.911s-6.441-2.475-12.103-4.342" fill="#0a322b"/>
    <path d="m278.011 235.687c-.081-.007-.646-.06-1.572-.231-1.267-.233-3.21-.686-5.517-1.548-.685-.254-1.401-.546-2.142-.877-2.618-1.173-5.532-2.854-8.38-5.257-.197-.165-.9-.617-1.094-.79 0 0-.375.263-1.013.759-2.851 2.218-10.481 9.421-14.108 18.695 8.812 9.328 21.297 15.151 35.142 15.151 4.018 0 7.917-.493 11.648-1.416-3.168-11.943-12.953-24.485-12.953-24.485s-.004-.001-.011-.001" fill="#00a183"/>
    <path d="m308.261 233.129v-20.423c0-1.736-1.412-3.15-3.149-3.15s-3.15 1.414-3.15 3.15v20.423c-1.159.945-1.843 2.37-1.843 3.869 0 2.753 2.24 4.992 4.993 4.992s4.993-2.239 4.993-4.992c0-1.499-.685-2.924-1.844-3.869" fill="#fff"/>
    <path d="m305.112 241.414c-2.438 0-4.416-1.978-4.416-4.416 0-1.479.728-2.783 1.843-3.584v-20.708c0-1.42 1.152-2.572 2.573-2.572s2.572 1.152 2.572 2.572v20.708c1.116.801 1.844 2.105 1.844 3.584 0 2.438-1.978 4.416-4.416 4.416m3.727-8.549v-20.159c0-2.054-1.671-3.726-3.727-3.726-2.055 0-3.727 1.672-3.727 3.726v20.159c-1.164 1.05-1.842 2.554-1.842 4.133 0 3.071 2.498 5.57 5.569 5.57s5.57-2.499 5.57-5.57c0-1.579-.679-3.083-1.843-4.133" fill="#0a322b"/>
    <path d="m306.784 234.667-.643-.461v-15.325c0-.568-.461-1.03-1.029-1.03s-1.028.462-1.028 1.03v15.325l-.644.461c-.752.541-1.201 1.413-1.201 2.332 0 1.584 1.289 2.872 2.873 2.872 1.585 0 2.873-1.288 2.873-2.872 0-.919-.45-1.791-1.201-2.332" fill="#ff3494"/>
    <path d="m282.082 201.854c0 .965.782 1.747 1.748 1.747s1.748-.782 1.748-1.747-1.748-3.295-1.748-3.295-1.748 2.33-1.748 3.295" fill="#00a183"/>
    <path d="m277.652 207.245c0 .965.782 1.748 1.748 1.748s1.747-.783 1.747-1.748-1.747-3.295-1.747-3.295-1.748 2.33-1.748 3.295" fill="#00a183"/>
  </g>
</svg>
