<svg clip-rule="evenodd" fill-rule="evenodd" stroke-linejoin="round" stroke-miterlimit="1.41421" viewBox="0 0 799 799" xmlns="http://www.w3.org/2000/svg"><g fill-rule="nonzero" transform="matrix(8.33333 0 0 8.33333 -2468.47 -2644.42)"><path d="m344.121 317.33c-26.457 0-47.904 21.448-47.904 47.905 0 12.637 4.895 24.129 12.89 32.69 4.498-12.216 17.803-20.941 18.997-21.704l4.964-8.834c-.499-1.312-1.649-4.547-2.447-8.477-.572-2.459-.815-4.395-.802-6.158-.125-2.591.057-5.213.759-7.599 2.632-8.915 10.409-14.937 20.803-11.844 4.596 1.369 17.92 8.417 17.92 8.417s.088 3.695-3.257 5.586c.351 2.644-.009 5.506-1.088 8.474l1.286 8.612c.082.449-.142.992-.573 1.39-.468.43-1.057.593-1.627.458h-1.433l-.851 3.671-3.413 5.498c-.716 1.979-2.839 3.062-4.868 2.471l-5.536-1.662-3.254 7.076.843 3.273c.086.02.133.028.133.028s7.948 13.176 9.785 25.189c20.989-5.089 36.578-24 36.578-46.555 0-26.457-21.448-47.905-47.905-47.905" fill="#fbcd74"/><path d="m347.318 374.842 6.485 1.947c1.456.427 2.989-.368 3.482-1.807l.021-.062 3.38-5.446 1.016-4.371h2.497l.078.023c.227.066.42-.027.542-.117.204-.15.292-.347.298-.412l-.003-.018-1.332-8.913.051-.137c1.027-2.774 1.403-5.377 1.129-7.788-1.783.15-9.282-.516-12.492.515-2.026.651-3.892 4.537-3.892 4.537s-4.328-2.474-5.792 2.537c-.92 3.152.31 4.926.31 4.926s-4.952 4.149-6.582 5.508c-.556.464-1.404 1.057-2.087 1.519-.005.012-.006.025-.011.036l-.028.056-5.414 9.633c1.73 1.806 3.547 3.288 5.322 4.5.809.491 1.735 1.034 2.797 1.635.745.421 1.491.833 2.214 1.225 2.064.968 3.819 1.555 4.959 1.882l-.786-3.059z" fill="#fff"/><g fill="#284d7b"><path d="m328.974 377.008 5.414-9.633.027-.056c.005-.011.007-.024.012-.036-.624.422-1.11.734-1.11.734s-.093-.223-.248-.63l-4.964 8.834c.057-.037.089-.057.089-.057.258.289.518.57.78.844"/><path d="m330.621 358.91c-.392-1.934-.699-4.035-.802-6.158-.013 1.762.23 3.699.802 6.158"/><path d="m365.286 347.684c-.062.026-.174.045-.325.058.274 2.41-.102 5.013-1.129 7.787l-.051.137 1.332 8.914.003.017c-.006.066-.094.262-.298.412-.122.09-.315.183-.542.117l-.078-.023h-2.497l-1.016 4.371-3.379 5.446-.022.062c-.493 1.439-2.025 2.234-3.481 1.807l-6.486-1.947-3.838 8.349.786 3.059c.621.178 1.058.28 1.264.324l-.842-3.274 3.254-7.076 5.536 1.662c2.028.592 4.152-.491 4.867-2.471l3.413-5.498.852-3.671h1.433c.57.135 1.159-.028 1.626-.458.432-.398.656-.941.574-1.389l-1.286-8.612c1.078-2.968 1.439-5.831 1.088-8.474-.236.133-.487.258-.758.371"/><path d="m334.295 381.508c1.757 1.201 3.47 2.138 5.012 2.86-.724-.392-1.47-.804-2.214-1.225-1.063-.601-1.988-1.144-2.798-1.635"/><path d="m334.427 367.283c.683-.462 1.53-1.056 2.087-1.52 1.63-1.358 6.582-5.507 6.582-5.507s-1.231-1.775-.311-4.926c1.464-5.012 5.792-2.537 5.792-2.537s1.867-3.886 3.893-4.537c3.21-1.032 10.709-.366 12.491-.515.152-.013.263-.031.325-.058.271-.113.523-.238.758-.371 3.345-1.891 3.257-5.586 3.257-5.586s-13.323-7.048-17.92-8.417c-10.393-3.093-18.172 2.929-20.803 11.844-.703 2.386-.883 5.008-.758 7.599.101 2.123.409 4.224.801 6.158.798 3.93 1.949 7.165 2.448 8.477.155.407.248.629.248.629s.486-.311 1.11-.733"/></g><path d="m345.53 386.573c-.206-.044-.644-.146-1.264-.323-1.14-.327-2.895-.914-4.959-1.882-1.542-.723-3.255-1.659-5.011-2.86-1.775-1.212-3.592-2.695-5.322-4.5-.261-.275-.522-.555-.78-.844 0 0-.032.019-.089.056-1.194.764-14.499 9.489-18.997 21.705 8.743 9.361 21.193 15.214 35.014 15.214 3.902 0 7.694-.469 11.326-1.349-1.836-12.013-9.784-25.189-9.784-25.189s-.047-.008-.134-.028" fill="#1d96c7"/><path d="m345.21 374.839c0 1.414-1.146 2.56-2.56 2.56-1.413 0-2.558-1.146-2.558-2.56 0-1.413 1.145-2.559 2.558-2.559 1.414 0 2.56 1.146 2.56 2.559" fill="#ec5530"/><path d="m342.651 370.521c-2.381 0-4.318 1.937-4.318 4.318 0 2.382 1.937 4.319 4.318 4.319 2.382 0 4.318-1.937 4.318-4.319 0-2.381-1.936-4.318-4.318-4.318m0 9.86c-3.056 0-5.541-2.486-5.541-5.542 0-3.055 2.485-5.541 5.541-5.541s5.542 2.486 5.542 5.541c0 3.056-2.486 5.542-5.542 5.542" fill="#ec5530"/><path d="m342.651 367.476c-4.06 0-7.363 3.303-7.363 7.363 0 4.061 3.303 7.365 7.363 7.365 4.061 0 7.364-3.304 7.364-7.365 0-4.06-3.303-7.363-7.364-7.363m0 15.776c-4.638 0-8.412-3.774-8.412-8.413 0-4.638 3.774-8.412 8.412-8.412 4.639 0 8.413 3.774 8.413 8.412 0 4.639-3.774 8.413-8.413 8.413" fill="#ec5530"/><path d="m344.121 317.33c-26.457 0-47.904 21.448-47.904 47.905 0 12.637 4.895 24.129 12.89 32.69 4.498-12.216 17.803-20.941 18.997-21.704l4.964-8.834c-.499-1.312-1.649-4.547-2.447-8.477-.572-2.459-.815-4.395-.802-6.158-.125-2.591.057-5.213.759-7.599 2.632-8.915 10.409-14.937 20.803-11.844 4.596 1.369 17.92 8.417 17.92 8.417s.088 3.695-3.257 5.586c.351 2.644-.009 5.506-1.088 8.474l1.286 8.612c.082.449-.142.992-.573 1.39-.468.43-1.057.593-1.627.458h-1.433l-.851 3.671-3.413 5.498c-.716 1.979-2.839 3.062-4.868 2.471l-5.536-1.662-3.254 7.076.843 3.273c.086.02.133.028.133.028s7.948 13.176 9.785 25.189c20.989-5.089 36.578-24 36.578-46.555 0-26.457-21.448-47.905-47.905-47.905" fill="#33da97"/><path d="m347.318 374.842 6.485 1.947c1.456.427 2.989-.368 3.482-1.807l.021-.062 3.38-5.446 1.016-4.371h2.497l.078.023c.227.066.42-.027.542-.117.204-.15.292-.347.298-.412l-.003-.018-1.332-8.913.051-.137c1.027-2.774 1.403-5.377 1.129-7.788-1.783.15-9.282-.516-12.492.515-2.026.651-3.892 4.537-3.892 4.537s-4.328-2.474-5.792 2.537c-.92 3.152.31 4.926.31 4.926s-4.952 4.149-6.582 5.508c-.556.464-1.404 1.057-2.087 1.519-.005.012-.006.025-.011.036l-.028.056-5.414 9.633c1.73 1.806 3.547 3.288 5.322 4.5.809.491 1.735 1.034 2.797 1.635.745.421 1.491.833 2.214 1.225 2.064.968 3.819 1.555 4.959 1.882l-.786-3.059z" fill="#fff"/><path d="m328.974 377.008 5.414-9.633.027-.056c.005-.011.007-.024.012-.036-.624.422-1.11.734-1.11.734s-.093-.223-.248-.63l-4.964 8.834c.057-.037.089-.057.089-.057.258.289.518.57.78.844" fill="#0a322b"/><path d="m330.621 358.91c-.392-1.934-.699-4.035-.802-6.158-.013 1.762.23 3.699.802 6.158" fill="#284d7b"/><path d="m365.286 347.684c-.062.026-.174.045-.325.058.274 2.41-.102 5.013-1.129 7.787l-.051.137 1.332 8.914.003.017c-.006.066-.094.262-.298.412-.122.09-.315.183-.542.117l-.078-.023h-2.497l-1.016 4.371-3.379 5.446-.022.062c-.493 1.439-2.025 2.234-3.481 1.807l-6.486-1.947-3.838 8.349.786 3.059c.621.178 1.058.28 1.264.324l-.842-3.274 3.254-7.076 5.536 1.662c2.028.592 4.152-.491 4.867-2.471l3.413-5.498.852-3.671h1.433c.57.135 1.159-.028 1.626-.458.432-.398.656-.941.574-1.389l-1.286-8.612c1.078-2.968 1.439-5.831 1.088-8.474-.236.133-.487.258-.758.371" fill="#0a322b"/><path d="m334.295 381.508c1.757 1.201 3.47 2.138 5.012 2.86-.724-.392-1.47-.804-2.214-1.225-1.063-.601-1.988-1.144-2.798-1.635" fill="#284d7b"/><path d="m334.427 367.283c.683-.462 1.53-1.056 2.087-1.52 1.63-1.358 6.582-5.507 6.582-5.507s-1.231-1.775-.311-4.926c1.464-5.012 5.792-2.537 5.792-2.537s1.867-3.886 3.893-4.537c3.21-1.032 10.709-.366 12.491-.515.152-.013.263-.031.325-.058.271-.113.523-.238.758-.371 3.345-1.891 3.257-5.586 3.257-5.586s-13.323-7.048-17.92-8.417c-10.393-3.093-18.172 2.929-20.803 11.844-.703 2.386-.883 5.008-.758 7.599.101 2.123.409 4.224.801 6.158.798 3.93 1.949 7.165 2.448 8.477.155.407.248.629.248.629s.486-.311 1.11-.733" fill="#0a322b"/><path d="m345.53 386.573c-.206-.044-.644-.146-1.264-.323-1.14-.327-2.895-.914-4.959-1.882-1.542-.723-3.255-1.659-5.011-2.86-1.775-1.212-3.592-2.695-5.322-4.5-.261-.275-.522-.555-.78-.844 0 0-.032.019-.089.056-1.194.764-14.499 9.489-18.997 21.705 8.743 9.361 21.193 15.214 35.014 15.214 3.902 0 7.694-.469 11.326-1.349-1.836-12.013-9.784-25.189-9.784-25.189s-.047-.008-.134-.028" fill="#00a183"/><path d="m345.21 374.839c0 1.414-1.146 2.56-2.56 2.56-1.413 0-2.558-1.146-2.558-2.56 0-1.413 1.145-2.559 2.558-2.559 1.414 0 2.56 1.146 2.56 2.559" fill="#ff3494"/><path d="m342.651 370.521c-2.381 0-4.318 1.937-4.318 4.318 0 2.382 1.937 4.319 4.318 4.319 2.382 0 4.318-1.937 4.318-4.319 0-2.381-1.936-4.318-4.318-4.318m0 9.86c-3.056 0-5.541-2.486-5.541-5.542 0-3.055 2.485-5.541 5.541-5.541s5.542 2.486 5.542 5.541c0 3.056-2.486 5.542-5.542 5.542" fill="#ff3494"/><path d="m342.651 367.476c-4.06 0-7.363 3.303-7.363 7.363 0 4.061 3.303 7.365 7.363 7.365 4.061 0 7.364-3.304 7.364-7.365 0-4.06-3.303-7.363-7.364-7.363m0 15.776c-4.638 0-8.412-3.774-8.412-8.413 0-4.638 3.774-8.412 8.412-8.412 4.639 0 8.413 3.774 8.413 8.412 0 4.639-3.774 8.413-8.413 8.413" fill="#ff3494"/></g></svg>