<svg clip-rule="evenodd" fill-rule="evenodd" stroke-linejoin="round" stroke-miterlimit="1.41421" viewBox="0 0 809 809" xmlns="http://www.w3.org/2000/svg"><g fill-rule="nonzero"><g transform="matrix(8.33333 0 0 8.33333 -4718.91 -1373.13)"><path d="m614.769 164.775c-26.785 0-48.5 21.711-48.5 48.492 0 26.78 21.715 48.491 48.5 48.491 26.787 0 48.501-21.711 48.501-48.491 0-26.781-21.714-48.492-48.501-48.492" fill="#33da97"/><path d="m621.191 218.073c0 7.801-3.006 14.124-6.714 14.124s-6.714-6.323-6.714-14.124c0-7.8 3.006-14.124 6.714-14.124s6.714 6.324 6.714 14.124" fill="#fff"/><path d="m623.979 214.338h1.009c-.356-.383-.693-.806-1.009-1.268z" fill="#175071"/><path d="m630.499 201.3c-.532 0-1.305 1.016-1.305 2.608s.773 2.607 1.305 2.607c.531 0 1.304-1.015 1.304-2.607s-.773-2.608-1.304-2.608" fill="#175071"/><path d="m630.499 209.123c-2.193 0-3.912-2.291-3.912-5.215 0-2.925 1.719-5.216 3.912-5.216s3.911 2.291 3.911 5.216c0 2.924-1.718 5.215-3.911 5.215m0-15.646c-1.64 0-3.22 1.014-4.447 2.856-1.337 2.005-2.073 4.695-2.073 7.575s.736 5.569 2.073 7.574c1.227 1.842 2.807 2.856 4.447 2.856 3.58 0 6.605-4.776 6.605-10.43 0-5.655-3.025-10.431-6.605-10.431" fill="#fff"/><path d="m618.763 216.946h-5.215v-2.608h5.215zm-7.823 0h-5.216v-2.608h5.216zm-6.52-23.469c-3.581 0-6.606 4.776-6.606 10.431v10.43h5.216v2.608h-5.216v15.821h23.558v-28.859c0-3.389.89-6.593 2.509-9.021.345-.518.715-.988 1.107-1.41z" fill="#fff"/><path d="m630.499 206.515c-.532 0-1.305-1.016-1.305-2.607 0-1.592.773-2.608 1.305-2.608.531 0 1.304 1.016 1.304 2.608 0 1.591-.773 2.607-1.304 2.607m0-7.823c-2.193 0-3.912 2.291-3.912 5.216 0 2.924 1.719 5.215 3.912 5.215s3.911-2.291 3.911-5.215c0-2.925-1.718-5.216-3.911-5.216" fill="#175071"/><path d="m630.499 214.338c-1.64 0-3.22-1.014-4.447-2.856-1.337-2.005-2.073-4.695-2.073-7.575s.736-5.569 2.073-7.574c1.227-1.842 2.807-2.857 4.447-2.857 3.58 0 6.605 4.777 6.605 10.431 0 5.655-3.025 10.431-6.605 10.431m-6.52 0v-1.268c.317.462.654.885 1.009 1.268zm-.097-19.452c-1.619 2.429-2.51 5.632-2.51 9.021v28.859h-23.558v-15.82h5.216v-2.608h-5.216v-10.431c0-5.654 3.026-10.431 6.607-10.431h20.567c-.391.423-.761.893-1.106 1.41m6.617-4.018h-26.078c-2.541 0-4.904 1.425-6.655 4.011-1.65 2.438-2.559 5.644-2.559 9.028v31.467h28.772v-18.428h6.52c2.541 0 4.904-1.424 6.654-4.01 1.651-2.438 2.56-5.644 2.56-9.029 0-3.384-.909-6.59-2.56-9.028-1.75-2.586-4.113-4.011-6.654-4.011" fill="#0a322b"/></g><path d="m393.98795484 413.01928554h43.45831595v21.73332464h-43.45831595z" fill="#0a322b" stroke-width="8.33333"/><path d="m328.78798092 413.01928554h43.46664928v21.73332464h-43.46664928z" fill="#0a322b" stroke-width="8.33333"/></g></svg>