<?xml version="1.0" encoding="UTF-8" standalone="no"?>
<!DOCTYPE svg PUBLIC "-//W3C//DTD SVG 1.1//EN" "http://www.w3.org/Graphics/SVG/1.1/DTD/svg11.dtd">
<svg width="100%" height="100%" viewBox="0 0 145 102" version="1.1" xmlns="http://www.w3.org/2000/svg" xmlns:xlink="http://www.w3.org/1999/xlink" xml:space="preserve" xmlns:serif="http://www.serif.com/" style="fill-rule:evenodd;clip-rule:evenodd;stroke-linejoin:round;stroke-miterlimit:2;">
    <g transform="matrix(1,0,0,1,-469.267,-65.3448)">
        <g transform="matrix(1,0,0,1,337.5,0)">
            <g transform="matrix(-0.275124,-0.961409,-0.961409,0.275124,189.01,78.7675)">
                <path d="M-3.799,-13.551C-7.228,-14.091 -18.987,-9.751 -9.897,-7.085C-6.566,-6.108 -7.109,-0.491 -3.799,0.555C-0.489,1.601 2.821,-2.225 2.718,-5.695C2.617,-9.165 0.562,-12.865 -3.799,-13.551" style="fill:rgb(239,250,250);"/>
            </g>
        </g>
        <g transform="matrix(1,0,0,1,337.5,0)">
            <g transform="matrix(1,0,0,1,163.825,112.929)">
                <path d="M0,37.11C2.674,37.266 5.424,34.659 5.972,33.726C6.519,32.793 1.482,34.523 2.189,33.377C2.896,32.23 7.274,31.798 8.8,29.14C9.748,27.486 10.396,24.955 9,24.26C7.475,23.484 5.964,27.438 3.646,27.035C2.839,26.895 1.863,26.468 2.218,25.5C2.81,22.419 8.188,23.706 9.514,20.525C9.895,19.611 10.187,18.335 9.054,18.03C6.769,17.11 5.073,21.847 2.412,20.903C1.646,20.631 1.187,19.837 1.448,19.056C2.319,16.36 6.32,18.078 7.945,15.74C9.036,14.172 9.795,11.466 8.513,10.878C7.146,10.233 5.524,14.095 3.13,13.876C2.339,13.803 1.357,13.47 1.561,12.578C1.78,10.778 4.585,11.046 5.78,9.353C6.554,8.256 7.794,6.541 6.833,6.08C5.792,5.542 2.455,8.364 1.939,7.862C1.423,7.36 5.047,5.836 4.768,4.069C4.65,3.189 3.776,2.896 2.917,2.879C1.618,2.854 0.173,5.029 0.047,4.569C-0.079,4.109 2.851,2.169 2.412,1.039C2.015,-0.006 -0.167,-0.156 -1.113,0.788C-2.039,1.71 0.152,3.671 -0.863,4.221C-2.007,4.862 -4.183,2.22 -4.974,2.429C-5.758,2.631 -4.503,4.051 -4,4.998C-3.399,6.128 -1.586,7.491 -2.111,7.678C-2.637,7.865 -5.868,4.788 -6.102,5.746C-6.335,6.704 -2.93,10.465 -3.044,11.508C-3.159,12.551 -5.348,9.026 -6.561,9.918C-8.245,11.077 -8.498,13.952 -7.281,16.017C-6.356,17.587 -3.43,16.564 -2.961,17.784C-2.541,18.695 -3.953,19.247 -4.943,19.449C-6.92,19.853 -8.459,17.189 -9.888,17.942C-10.763,18.265 -10.171,19.254 -9.797,19.938C-8.328,22.622 -3.8,23.533 -3.392,24.46C-2.983,25.386 -6.753,22.46 -8.163,23.644C-9.665,24.905 -9.327,27.129 -8.261,28.866C-6.787,31.264 -2.286,31.108 -1.768,32.005C-1.249,32.901 -5.622,31.912 -6.186,32.453C-6.748,32.994 -4.878,33.515 -4.021,34.168C-2.475,35.346 -1.941,36.997 0,37.11" style="fill:rgb(223,246,244);"/>
            </g>
        </g>
        <g transform="matrix(1,0,0,1,337.5,0)">
            <g transform="matrix(1,0,0,1,155.774,108.162)">
                <path d="M0,21.799L1.27,14.107C-0.867,10.903 -3.629,7.33 -6.504,4.048L-9.063,8.769L-9.231,1.059C-13.768,-3.695 -18.187,-7.227 -20.528,-6.998C-20.627,-1.782 -20.136,2.94 -19.055,7.169L-16.601,8.121L-18.634,8.696C-17.313,13.127 -15.308,16.983 -12.616,20.264L-8.759,21.19L-11.183,21.887C-9.166,24.015 -6.823,25.871 -4.154,27.452C-2.025,28.685 0.616,29.026 3.771,28.476C4.991,25.95 5.529,24.072 5.387,22.84C5.445,21.504 4.381,19.116 2.64,16.252L0,21.799Z" style="fill:rgb(222,230,243);"/>
            </g>
        </g>
        <g transform="matrix(1,0,0,1,337.5,0)">
            <g transform="matrix(1,0,0,1,162.626,106.572)">
                <path d="M0,33.031C-0.076,33.103 -0.195,33.11 -0.279,33.043C-0.443,32.911 -16.802,19.657 -24.672,0.243C-24.715,0.133 -24.665,0.01 -24.555,-0.034C-24.445,-0.079 -24.321,-0.026 -24.277,0.083C-16.448,19.396 -0.176,32.579 -0.013,32.71C0.079,32.784 0.094,32.917 0.021,33.009C0.014,33.017 0.007,33.024 0,33.031" style="fill:white;fill-rule:nonzero;"/>
            </g>
        </g>
        <g transform="matrix(1,0,0,1,337.5,0)">
            <g transform="matrix(1,0,0,1,158.606,105.19)">
                <path d="M0,22.816L4.064,17.787C3.835,14.602 3.306,10.894 2.576,7.35L-1.204,9.707L1.831,4.077C0.506,-1.208 -1.236,-5.566 -3.019,-6.359C-5.226,-2.637 -6.804,0.97 -7.755,4.463L-6.375,6.154L-8.077,5.737C-8.938,9.474 -9.07,13.076 -8.472,16.545L-6.068,18.791L-8.103,18.302C-7.519,20.663 -6.589,22.96 -5.311,25.193C-4.279,26.954 -2.514,28.281 -0.014,29.175C1.9,27.854 3.058,26.719 3.459,25.772C4.049,24.832 4.259,22.674 4.175,19.896L0,22.816Z" style="fill:rgb(236,218,248);"/>
            </g>
        </g>
        <g transform="matrix(1,0,0,1,337.5,0)">
            <g transform="matrix(1,0,0,1,159.602,103.873)">
                <path d="M0,33.894C-0.085,33.915 -0.174,33.871 -0.207,33.788C-0.271,33.626 -6.645,17.369 -4.374,0.144C-4.36,0.047 -4.273,-0.021 -4.176,-0.008C-4.079,0.005 -4.011,0.093 -4.023,0.19C-6.282,17.326 0.058,33.496 0.122,33.657C0.157,33.748 0.114,33.85 0.023,33.886C0.016,33.889 0.008,33.892 0,33.894" style="fill:white;fill-rule:nonzero;"/>
            </g>
        </g>
        <g transform="matrix(1,0,0,1,337.5,0)">
            <g transform="matrix(1,0,0,1,162.701,131.143)">
                <path d="M0,22.715C1.812,20.673 1.46,16.827 1.058,15.8C0.656,14.774 -1.136,19.897 -1.607,18.608C-2.079,17.319 0.336,13.541 -0.829,10.644C-1.554,8.842 -3.172,6.726 -4.608,7.406C-6.191,8.137 -3.98,11.84 -5.766,13.443C-6.386,14 -7.343,14.512 -7.895,13.616C-9.986,11.2 -5.564,7.707 -7.274,4.639C-7.766,3.758 -8.603,2.719 -9.561,3.434C-11.739,4.683 -9.017,9.027 -11.451,10.562C-12.152,11.004 -13.077,10.869 -13.538,10.169C-15.146,7.771 -11.247,5.652 -12.093,2.877C-12.66,1.014 -14.348,-1.3 -15.628,-0.644C-17.006,0.043 -14.938,3.777 -16.623,5.555C-17.18,6.143 -18.065,6.717 -18.651,5.993C-19.953,4.681 -17.97,2.606 -18.571,0.581C-18.961,-0.73 -19.552,-2.805 -20.527,-2.326C-21.614,-1.832 -21.459,2.619 -22.187,2.715C-22.915,2.811 -21.85,-1.05 -23.438,-1.941C-24.218,-2.402 -25.004,-1.887 -25.559,-1.211C-26.398,-0.187 -25.568,2.342 -26.017,2.153C-26.465,1.964 -26.17,-1.606 -27.351,-1.967C-28.437,-2.308 -29.934,-0.656 -29.775,0.696C-29.621,2.019 -26.67,1.502 -26.869,2.662C-27.077,3.982 -30.564,4.057 -30.896,4.822C-31.229,5.577 -29.301,5.467 -28.226,5.662C-26.942,5.895 -24.708,5.302 -24.89,5.841C-25.071,6.38 -29.572,7.026 -28.952,7.816C-28.333,8.607 -23.174,8.254 -22.412,9.004C-21.649,9.753 -25.852,9.282 -25.902,10.815C-26.038,12.895 -23.896,14.91 -21.475,15.239C-19.636,15.488 -18.608,12.501 -17.337,12.895C-16.342,13.134 -16.792,14.612 -17.254,15.532C-18.178,17.369 -21.28,16.921 -21.579,18.539C-21.872,19.444 -20.708,19.593 -19.924,19.725C-16.849,20.242 -13.264,17.194 -12.265,17.451C-11.266,17.708 -15.986,18.88 -15.927,20.755C-15.864,22.753 -13.872,23.885 -11.809,24.127C-8.96,24.46 -6.246,20.759 -5.201,20.909C-4.156,21.06 -7.706,23.936 -7.629,24.728C-7.551,25.52 -5.954,24.352 -4.891,24.078C-2.972,23.583 -1.314,24.198 0,22.715" style="fill:rgb(207,241,239);"/>
            </g>
        </g>
        <g transform="matrix(1,0,0,1,337.5,0)">
            <g transform="matrix(1,0,0,1,260.596,66.1718)">
                <path d="M0,92.337L-105.698,92.337C-105.698,92.337 -133.294,42.079 -105.698,66.16C-78.103,90.241 -79.59,66.72 -91.667,48.509C-103.743,30.298 -96.024,6.668 -60.767,30.865C-40.501,44.773 -65.698,0 -39.32,2.948C-11.695,6.035 -1.005,35.68 0.898,51.18C2.803,66.68 11.679,62.896 15.316,75.716C18.955,88.536 0,92.337 0,92.337" style="fill:rgb(239,250,250);fill-rule:nonzero;"/>
            </g>
        </g>
        <g transform="matrix(1,0,0,1,337.5,0)">
            <g transform="matrix(-1,0,0,1,411.357,92.65)">
                <rect x="142.704" y="65.788" width="125.949" height="0.774" style="fill:rgb(207,241,239);"/>
            </g>
        </g>
        <g transform="matrix(1,0,0,1,337.5,0)">
            <g transform="matrix(1,0,0,1,252.46,83.0618)">
                <path d="M0,69.176C0.005,70.445 -0.982,71.489 -2.214,71.489L-44.728,71.489C-45.947,71.489 -46.954,70.445 -46.959,69.176L-47.217,-0.828C-47.222,-2.097 -46.222,-3.129 -45.002,-3.129L-2.488,-3.129C-1.257,-3.129 -0.262,-2.097 -0.258,-0.828L0,69.176ZM-3.252,-6.975L-44.267,-6.975C-46.782,-6.975 -50.015,-4.046 -50.005,-1.429L-48.531,69.863C-48.521,72.48 -46.481,74.595 -43.967,74.595L-3.142,76.151C-0.627,76.151 1.588,72.48 1.578,69.863L1.312,-2.243C1.303,-4.86 -0.737,-6.975 -3.252,-6.975" style="fill:rgb(233,210,244);fill-rule:nonzero;"/>
            </g>
        </g>
        <g transform="matrix(1,0,0,1,337.5,0)">
            <g transform="matrix(1,0,0,1,251.174,83.205)">
                <path d="M0,70.732C0.005,72.001 -0.982,73.045 -2.215,73.045L-44.729,73.045C-45.947,73.045 -46.955,72.001 -46.96,70.732L-47.217,0.728C-47.222,-0.541 -46.223,-1.572 -45.003,-1.572L-2.489,-1.572C-1.257,-1.572 -0.263,-0.541 -0.258,0.728L0,70.732ZM-3.253,-5.419L-44.268,-5.419C-46.782,-5.419 -48.807,-3.304 -48.798,-0.686L-48.532,71.419C-48.522,74.037 -46.482,76.151 -43.967,76.151L-2.952,76.151C-0.437,76.151 1.587,74.037 1.577,71.419L1.312,-0.686C1.303,-3.304 -0.738,-5.419 -3.253,-5.419" style="fill:rgb(190,121,223);fill-rule:nonzero;"/>
            </g>
        </g>
        <g transform="matrix(1,0,0,1,337.5,0)">
            <g transform="matrix(0,-1,-1,0,227.421,78.6899)">
                <path d="M-0.92,-0.919C-1.448,-0.921 -1.877,-0.511 -1.877,-0.003C-1.877,0.505 -1.448,0.918 -0.92,0.92C-0.391,0.922 0.038,0.512 0.038,0.004C0.038,-0.504 -0.391,-0.917 -0.92,-0.919" style="fill:white;fill-rule:nonzero;"/>
            </g>
        </g>
        <g transform="matrix(1,0,0,1,337.5,0)">
            <g transform="matrix(1,0,0,1,240.481,79.0699)">
                <path d="M0,1.08L-9.145,1.08C-9.431,1.08 -9.664,0.838 -9.665,0.54C-9.666,0.242 -9.435,0 -9.148,0L-0.005,0C0.282,0 0.516,0.242 0.517,0.54C0.518,0.838 0.286,1.08 0,1.08" style="fill:white;fill-rule:nonzero;"/>
            </g>
        </g>
        <g transform="matrix(1,0,0,1,337.5,0)">
            <g transform="matrix(1,0,0,1,225.618,108.779)">
                <path d="M0,-11.448C-0.075,-10.971 -0.15,-10.469 -0.251,-9.916C-1.28,-4.719 -4.017,2.989 -5.523,3.013C-5.976,2.989 -7.532,1.633 -9.54,-0.351C-12.88,-3.665 -17.449,-8.711 -20.411,-12.452C-20.587,-12.653 -20.737,-12.854 -20.889,-13.03L-20.788,-13.13L-20.387,-13.507L-19.532,-14.36L-19.433,-14.461L-19.006,-14.059L-7.381,-2.912L-3.515,-11.448C-2.561,-12.979 0.025,-13.08 0,-11.448" style="fill:rgb(207,241,239);"/>
            </g>
        </g>
        <g transform="matrix(1,0,0,1,337.5,0)">
            <g transform="matrix(1,0,0,1,206.185,92.711)">
                <path d="M0,1.808L-0.854,2.662L-1.255,3.038C-1.28,3.013 -1.305,2.963 -1.355,2.938L-1.381,2.913C-3.037,0.93 -4.971,-1.23 -3.339,-0.853C-3.138,-0.301 -2.861,0.202 -2.234,0.477C-2.008,0.603 -1.757,0.653 -1.431,0.704C-0.702,0.779 -0.376,1.306 -0.125,1.658C-0.1,1.683 -0.1,1.708 -0.1,1.708C-0.05,1.758 -0.024,1.783 0,1.808" style="fill:rgb(255,213,176);"/>
            </g>
        </g>
        <g transform="matrix(1,0,0,1,337.5,0)">
            <g opacity="0.1">
                <g transform="matrix(1,0,0,1,216.529,91.4818)">
                    <path d="M0,17.047C-0.075,17.047 -0.226,17.022 -0.451,16.946C-3.791,13.632 -8.36,8.586 -11.322,4.845C-11.373,4.921 -11.8,4.268 -11.8,4.268C-11.774,4.217 -11.749,4.167 -11.725,4.142C-13.381,2.159 -15.314,0 -13.683,0.376C-13.481,0.928 -13.205,1.431 -12.578,1.707C-12.252,2.535 -11.85,3.138 -11.423,3.665C-11.373,3.69 -11.322,3.74 -11.298,3.791L-10.896,4.193C-9.967,5.121 -8.837,5.95 -7.456,7.607C-4.87,10.72 -2.511,13.582 0,14.587C2.511,15.59 0.829,17.047 0,17.047"/>
                </g>
            </g>
        </g>
        <g transform="matrix(1,0,0,1,337.5,0)">
            <g transform="matrix(1,0,0,1,223.341,153.701)">
                <path d="M0,0.841L-1.758,0.841L-1.725,0.205L-0.055,0.011L-0.011,0L0,0.841Z" style="fill:rgb(255,213,176);"/>
            </g>
        </g>
        <g transform="matrix(1,0,0,1,337.5,0)">
            <g transform="matrix(1,0,0,1,230.908,154.541)">
                <path d="M0,-40.542L-0.852,-37.707L-0.906,-37.513L-1.865,-34.322L-2.706,-31.541L-2.911,-30.851L-3.558,-28.706L-5.778,-21.354L-6.403,-19.263C-5.864,-13.56 -6.446,-6.122 -7.062,0L-9.993,0L-12.084,-20.006C-12.278,-25.094 -11.771,-30.139 -10.564,-35.152C-10.338,-36.09 -10.09,-37.027 -9.799,-37.955C-9.788,-38.03 -9.767,-38.105 -9.734,-38.181C-9.648,-38.494 -9.562,-38.795 -9.454,-39.108C-9.454,-39.129 -9.443,-39.141 -9.443,-39.162L-9.443,-39.173C-9.422,-39.237 -9.4,-39.302 -9.379,-39.367C-9.292,-39.679 -9.174,-40.003 -9.077,-40.326L-8.894,-40.326L-8.646,-40.337L-8.301,-40.348L-4.852,-40.423L-1.812,-40.499L-1.79,-40.499L0,-40.542Z" style="fill:rgb(222,230,243);"/>
            </g>
        </g>
        <g transform="matrix(1,0,0,1,337.5,0)">
            <g opacity="0.1">
                <g transform="matrix(1,0,0,1,227.189,154.542)">
                    <path d="M0,-35.433L-0.14,-34.624L-0.355,-33.277L-2.166,-22.379L-2.684,-19.264C-2.145,-13.561 -2.727,-6.123 -3.342,0L-4.042,0C-3.988,-0.259 -3.945,-0.539 -3.902,-0.83C-3.319,-4.636 -3.331,-9.864 -4.312,-12.601C-5.584,-16.105 -5.724,-23.995 -2.651,-30.895C-2.155,-32.005 -1.584,-33.083 -0.916,-34.107C-0.786,-34.312 -0.657,-34.516 -0.506,-34.722C-0.345,-34.959 -0.172,-35.196 0,-35.433"/>
                </g>
            </g>
        </g>
        <g transform="matrix(1,0,0,1,337.5,0)">
            <g opacity="0.1">
                <g transform="matrix(1,0,0,1,225.357,111.802)">
                    <path d="M0,-12.935C-1.028,-7.749 -3.762,-0.038 -5.261,0C-6.524,-0.094 -9.107,-2.838 -12.087,-6.392C-11.747,-6.072 -11.398,-5.779 -11.031,-5.497C-10.418,-5.025 -9.758,-4.601 -9.069,-4.243C-8.636,-4.016 -6.807,-2.489 -6.335,-2.375C-4.902,-2.045 -5.463,-4.256 -4.681,-5.51C-4.257,-6.198 -3.922,-7.633 -3.687,-8.415C-3.178,-10.084 -1.735,-10.823 -0.688,-12.228C-0.49,-12.482 -0.265,-12.747 0,-12.935"/>
                </g>
            </g>
        </g>
        <g transform="matrix(1,0,0,1,337.5,0)">
            <g transform="matrix(1,0,0,1,233.883,153.55)">
                <path d="M0,0.992L-1.778,0.992L-1.843,0.529L-0.474,0.087L-0.204,0L0,0.992Z" style="fill:rgb(255,213,176);"/>
            </g>
        </g>
        <g transform="matrix(1,0,0,1,337.5,0)">
            <g transform="matrix(1,0,0,1,234.368,110.302)">
                <path d="M0,44.24L-2.997,44.24L-8.829,25.311C-8.979,24.664 -9.12,23.834 -9.238,22.886C-9.271,22.552 -9.313,22.217 -9.346,21.862C-9.594,19.35 -9.745,16.235 -9.831,13.345C-9.874,11.621 -9.896,9.993 -9.896,8.614C-9.896,7.773 -9.896,7.039 -9.885,6.425C-9.874,5.606 -9.842,5.034 -9.82,4.808L-8.312,3.816L-6.307,2.49L-6.295,2.49L-5.789,2.145L-5.379,1.876L-5.368,1.876L-5.368,1.865L-3.913,0.906L-2.997,0.302L-2.976,0.291L-2.544,0C-2.469,0.442 -2.394,0.863 -2.328,1.283C-2.307,1.423 -2.274,1.574 -2.264,1.714C-2.188,2.157 -2.124,2.577 -2.069,2.997C-1.994,3.504 -1.94,3.978 -1.887,4.452C-1.682,6.306 -1.596,7.902 -1.585,9.325C-1.585,9.67 -1.585,9.993 -1.596,10.317C-1.606,11.007 -1.639,11.653 -1.692,12.268C-2.069,17.097 -3.331,19.9 -3.115,24.945C-1.444,30.529 -0.582,38.074 0,44.24" style="fill:rgb(222,230,243);"/>
            </g>
        </g>
        <g transform="matrix(1,0,0,1,337.5,0)">
            <g opacity="0.1">
                <g transform="matrix(1,0,0,1,234.368,110.302)">
                    <path d="M0,44.24L-0.981,44.24C-0.959,43.938 -0.959,43.636 -0.959,43.335C-0.97,38.893 -2.738,34.151 -5.131,27.898C-7.783,21.01 -2.242,16.774 -5.131,13.809C-5.498,13.432 -5.843,13.054 -6.166,12.699C-6.694,12.095 -7.147,11.513 -7.535,10.963C-7.74,10.683 -7.934,10.403 -8.096,10.133C-8.312,9.81 -8.494,9.487 -8.646,9.185C-9.217,8.15 -9.54,7.234 -9.691,6.49C-9.853,5.778 -9.874,5.218 -9.82,4.808L-8.312,3.816L-6.307,2.49L-6.295,2.49L-5.789,2.145L-5.379,1.876L-5.368,1.876L-5.368,1.865L-3.913,0.906L-2.997,0.302L-2.976,0.291L-2.544,0C-2.469,0.442 -2.394,0.863 -2.328,1.283C-2.307,1.423 -2.274,1.574 -2.264,1.714C-2.188,2.157 -2.124,2.577 -2.069,2.997C-1.994,3.504 -1.94,3.978 -1.887,4.452C-1.682,6.306 -1.596,7.902 -1.585,9.325C-1.585,9.67 -1.585,9.993 -1.596,10.317C-1.606,11.007 -1.639,11.653 -1.692,12.268C-2.069,17.097 -3.331,19.9 -3.115,24.945C-1.444,30.529 -0.582,38.074 0,44.24"/>
                </g>
            </g>
        </g>
        <g transform="matrix(1,0,0,1,337.5,0)">
            <g transform="matrix(1,0,0,1,234.869,97.0374)">
                <path d="M0,21.59C-4.619,24.342 -9.343,23.551 -14.141,19.214C-13.887,18.941 -13.65,18.658 -13.434,18.384C-7.41,10.663 -15.961,2.612 -11.643,-0.603C-7.937,-2.752 -5.255,-2.711 -3.04,-0.12C-2.691,0.418 -2.206,0.971 -2.018,1.584C-0.546,6.496 -3.837,13.69 0,21.59" style="fill:white;"/>
            </g>
        </g>
        <g transform="matrix(1,0,0,1,337.5,0)">
            <g opacity="0.1">
                <g transform="matrix(1,0,0,1,234.869,101.373)">
                    <path d="M0,17.254C-4.619,20.006 -9.343,19.215 -14.141,14.878C-13.887,14.605 -13.65,14.322 -13.434,14.048C-12.321,14.51 -11.237,15.123 -10.078,15.453C-8.928,15.783 -8.296,15.937 -7.261,15.353C-4.571,13.837 -6.304,9.307 -6.275,8.741C-6.257,8.364 -3.177,10.871 -3.243,10.513C-3.601,8.571 -3.959,6.638 -4.317,4.706C-4.516,3.64 -4.714,2.556 -4.657,1.472C-4.609,0.388 -4.289,-0.725 -3.554,-1.526C-3.13,-1.997 -2.592,-2.497 -2.018,-2.752C-0.546,2.16 -3.837,9.354 0,17.254"/>
                </g>
            </g>
        </g>
        <g transform="matrix(1,0,0,1,337.5,0)">
            <g transform="matrix(1,0,0,1,228.992,92.1564)">
                <path d="M0,2.912C-0.075,2.987 -0.151,3.063 -0.251,3.113C-0.478,3.314 -0.754,3.414 -1.029,3.49C-1.808,3.716 -2.661,3.54 -2.888,3.113C-2.661,2.962 -2.511,2.711 -2.461,2.385C-2.436,2.285 -2.41,2.209 -2.41,2.109C-2.36,1.632 -2.386,1.079 -2.41,0.452C-2.41,0.025 -2.41,-0.402 -2.386,-0.804L-0.804,-0.101L-0.276,0.125L-0.151,1.33L0,2.912Z" style="fill:rgb(255,213,176);"/>
            </g>
        </g>
        <g transform="matrix(1,0,0,1,337.5,0)">
            <g opacity="0.1">
                <g transform="matrix(1,0,0,1,228.992,91.9304)">
                    <path d="M0,3.138C-0.075,3.213 -0.151,3.289 -0.251,3.339C-0.478,3.54 -0.754,3.64 -1.029,3.716L-1.029,3.514C-1.055,3.314 -1.331,3.314 -1.432,3.138C-1.607,2.812 -1.557,2.661 -1.983,2.636L-2.461,2.611C-2.41,2.134 -2.436,1.431 -2.41,0.678C-2.41,0.251 -2.41,-0.176 -2.386,-0.578L-0.804,0.125C-0.729,0.301 -0.678,0.477 -0.653,0.653C-0.603,0.979 -0.377,1.255 -0.151,1.556L0,3.138Z"/>
                </g>
            </g>
        </g>
        <g transform="matrix(1,0,0,1,337.5,0)">
            <g transform="matrix(1,0,0,1,229.71,94.2575)">
                <path d="M0,-6.009L-0.592,-1.025C-0.773,-0.934 -0.955,-0.843 -1.138,-0.752C-2.913,0.068 -3.937,-0.069 -4.21,-1.207C-4.324,-1.685 -4.369,-2.186 -4.324,-2.686C-4.278,-3.756 -3.914,-4.871 -3.254,-6.077L0,-6.009Z" style="fill:rgb(255,213,176);"/>
            </g>
        </g>
        <g transform="matrix(1,0,0,1,337.5,0)">
            <g opacity="0.1">
                <g transform="matrix(1,0,0,1,229.71,93.4375)">
                    <path d="M0,-5.189L-0.592,-0.205C-0.773,-0.114 -0.955,-0.023 -1.138,0.068C-1.16,0.022 -1.183,0 -1.206,-0.045C-1.343,-0.273 -1.434,-0.546 -1.615,-0.774C-1.798,-1.024 -1.527,-1.775 -1.777,-1.958C-2.027,-2.094 -2.799,-1.684 -3.072,-1.775C-3.437,-1.912 -3.846,-1.889 -4.232,-1.889C-4.256,-1.889 -4.301,-1.889 -4.324,-1.866C-4.278,-2.936 -3.914,-4.051 -3.254,-5.257L0,-5.189Z"/>
                </g>
            </g>
        </g>
        <g transform="matrix(1,0,0,1,337.5,0)">
            <g transform="matrix(1,0,0,1,236.941,98.4357)">
                <path d="M0,19.784L-2.109,20.989L-2.912,21.441L-2.912,21.466L-5.373,22.872L-10.219,8.511L-8.386,2.059L-6.979,-3.088C-6.126,-2.862 -5.272,-2.184 -4.444,-0.753L-4.318,1.08L-3.666,10.52L0,19.784Z" style="fill:rgb(207,241,239);"/>
            </g>
        </g>
        <g transform="matrix(1,0,0,1,337.5,0)">
            <g opacity="0.1">
                <g transform="matrix(1,0,0,1,236.941,101.173)">
                    <path d="M0,17.047L-2.109,18.252L-2.912,18.704C-1.707,11.047 -3.816,12.98 -6.025,8.636C-8.26,4.293 -7.306,3.791 -4.318,-1.657L-3.666,7.783L0,17.047Z"/>
                </g>
            </g>
        </g>
        <g transform="matrix(1,0,0,1,337.5,0)">
            <g transform="matrix(1,0,0,1,225.169,109.822)">
                <path d="M0,-3.875L-4.44,10.408L-5.289,8.551L-5.487,8.126L-3.818,-1.178L-3.753,-2.263L-3.131,-12.463C-2.141,-13.783 -1.245,-14.16 -0.368,-14.283L0,-3.875Z" style="fill:rgb(207,241,239);"/>
            </g>
        </g>
        <g transform="matrix(1,0,0,1,337.5,0)">
            <g transform="matrix(1,0,0,1,224.985,93.1839)">
                <path d="M0,-3.41C1.565,-1.805 2.158,-3.576 3.278,-2.397C4.398,-1.219 2.333,-0.759 3.987,1.612C5.642,3.984 6.114,3.849 7.127,2.16C8.14,0.472 6.452,0.675 6.351,-1.351C6.249,-3.376 7.465,-5.267 6.013,-5.875C4.561,-6.483 4.055,-5.672 4.055,-5.672C4.055,-5.672 3.751,-7.394 2.13,-7.023C0.51,-6.651 -1.219,-4.66 0,-3.41" style="fill-rule:nonzero;"/>
            </g>
        </g>
        <g transform="matrix(1,0,0,1,337.5,0)">
            <g transform="matrix(1,0,0,1,221.385,102.038)">
                <path d="M0,14.327L-9.587,14.327C-10.203,14.327 -10.818,13.871 -10.926,13.336L-11.327,11.488L-13.657,0.964C-13.765,0.428 -13.362,0 -12.747,0L-3.16,0C-3.106,0 -3.053,0 -2.999,0.027C-2.437,0.08 -1.954,0.482 -1.82,0.964L0.884,13.336C1.018,13.871 0.616,14.327 0,14.327" style="fill:rgb(251,207,252);fill-rule:nonzero;"/>
            </g>
        </g>
        <g transform="matrix(1,0,0,1,337.5,0)">
            <g transform="matrix(1,0,0,1,215.279,102.225)">
                <path d="M0,-0.027L0,0.107C0,0.482 -0.268,0.75 -0.696,0.75L-2.571,0.75C-3.053,0.75 -3.508,0.401 -3.615,-0.027L-3.615,-0.161C-3.615,-0.241 -3.615,-0.295 -3.589,-0.348C-3.508,-0.616 -3.268,-0.777 -2.919,-0.777L-1.044,-0.777C-0.562,-0.777 -0.107,-0.429 0,-0.027" style="fill:rgb(190,121,223);fill-rule:nonzero;"/>
            </g>
        </g>
        <g transform="matrix(1,0,0,1,337.5,0)">
            <g opacity="0.1">
                <g transform="matrix(1,0,0,1,221.385,102.065)">
                    <path d="M0,14.3L-9.587,14.3C-10.203,14.3 -10.818,13.844 -10.926,13.309L-11.327,11.461C-10.471,11.702 -9.587,11.06 -9.186,10.31C-9.024,9.988 -8.891,9.64 -8.649,9.399C-8.061,8.837 -7.097,9.105 -6.347,9.399C-5.623,9.694 -4.9,9.988 -4.178,10.283C-3.562,10.524 -2.812,10.765 -2.249,10.363C-1.794,10.042 -1.687,9.426 -1.687,8.89C-1.66,8.328 -1.74,7.793 -1.954,7.284C-2.142,6.855 -2.41,6.507 -2.678,6.105C-3.562,4.793 -4.017,3.24 -4.312,1.687C-4.392,1.124 -4.418,0.455 -3.963,0.16C-3.749,0.027 -3.481,0 -3.24,0L-2.999,0C-2.437,0.053 -1.954,0.455 -1.82,0.937L0.884,13.309C1.018,13.844 0.616,14.3 0,14.3" style="fill-rule:nonzero;"/>
                </g>
            </g>
        </g>
        <g transform="matrix(1,0,0,1,337.5,0)">
            <g opacity="0.1">
                <g transform="matrix(1,0,0,1,215.279,102.225)">
                    <path d="M0,-0.027L0,0.107C0,0.482 -0.268,0.75 -0.696,0.75L-2.571,0.75C-3.053,0.75 -3.508,0.401 -3.615,-0.027L-3.615,-0.161C-3.615,-0.241 -3.615,-0.295 -3.589,-0.348C-3.562,-0.348 -3.562,-0.321 -3.535,-0.321C-3.294,-0.214 -3.106,-0.081 -2.865,0C-2.33,0.187 -1.714,0 -1.179,-0.188C-1.098,-0.214 -0.991,-0.241 -0.964,-0.321C-0.937,-0.348 -0.964,-0.402 -0.964,-0.456C-0.991,-0.589 -1.071,-0.696 -1.151,-0.777L-1.044,-0.777C-0.562,-0.777 -0.107,-0.429 0,-0.027" style="fill-rule:nonzero;"/>
                </g>
            </g>
        </g>
        <g transform="matrix(1,0,0,1,337.5,0)">
            <g transform="matrix(1,0,0,1,236.941,99.7165)">
                <path d="M0,12.553C-0.452,14.587 -7.884,13.356 -13.482,12.227C-13.759,12.177 -14.034,12.126 -14.286,12.076C-14.462,12.026 -14.612,12.001 -14.763,11.975L-14.763,11.825L-14.813,11.524L-14.913,10.193L-13.984,10.218L-13.834,10.218L-13.206,10.243L-3.992,10.57C-5.774,6.753 -6.703,2.988 -6.829,-0.703L-4.444,-2.034C-3.615,-1.105 -2.762,0.552 -2.034,2.485C-0.678,6.051 0.276,10.469 0,12.553" style="fill:rgb(207,241,239);"/>
            </g>
        </g>
        <g transform="matrix(1,0,0,1,337.5,0)">
            <g transform="matrix(1,0,0,1,223.208,109.457)">
                <path d="M0,2.084C-0.025,2.159 -0.05,2.234 -0.101,2.285C-0.15,2.335 -0.352,2.285 -0.553,2.209C-0.753,2.159 -0.929,2.084 -1.029,2.084C-1.055,2.084 -1.079,2.109 -1.079,2.109C-2.134,3.138 -4.017,1.381 -3.967,0.327C-3.967,0.226 -3.967,0.151 -3.941,0.101C-3.766,-0.854 -2.987,-0.251 -2.335,0.251C-1.983,0.502 -2.561,-1.054 -2.461,-1.054C-2.033,-0.954 -1.958,-0.979 -1.306,0.126L-0.226,0.427L-0.101,0.452L-0.101,0.477C-0.025,0.628 0.251,1.532 0,2.084" style="fill:rgb(255,213,176);"/>
            </g>
        </g>
        <g transform="matrix(1,0,0,1,337.5,0)">
            <g opacity="0.1">
                <g transform="matrix(1,0,0,1,236.941,104.235)">
                    <path d="M0,8.034C-0.452,10.068 -7.884,8.837 -13.482,7.708C-13.721,7.664 -14.763,7.306 -14.763,7.306C-14.788,7.306 -14.813,7.331 -14.813,7.331C-15.867,8.36 -17.75,6.603 -17.7,5.549C-17.7,5.448 -17.7,5.373 -17.675,5.323C-17.475,5.398 -17.224,5.599 -16.922,5.9C-16.521,6.327 -15.767,6.703 -14.813,7.005C-14.662,7.055 -14.486,7.105 -14.311,7.13C-14.135,7.205 -13.935,7.256 -13.733,7.306C-13.658,7.306 -13.583,7.331 -13.508,7.356C-10.47,8.009 -6.327,8.135 -3.967,7.632C-0.478,6.904 -1.557,4.318 -2.034,-2.034C-0.678,1.532 0.276,5.95 0,8.034"/>
                </g>
            </g>
        </g>
        <g transform="matrix(1,0,0,1,337.5,0)">
            <g opacity="0.1">
                <g transform="matrix(0,1,1,0,151.547,162.219)">
                    <path d="M3.622,-3.622C3.914,-3.622 4.15,-2.001 4.15,-0C4.15,1.999 3.914,3.622 3.622,3.622C3.33,3.622 3.095,1.999 3.095,-0C3.095,-2.001 3.33,-3.622 3.622,-3.622"/>
                </g>
            </g>
        </g>
        <g transform="matrix(1,0,0,1,337.5,0)">
            <g transform="matrix(1,0,0,1,159.822,158.809)">
                <path d="M0,4.398L-1.736,4.375L-3.044,4.352C-2.963,4.05 -2.894,3.761 -2.848,3.472C-2.662,2.5 -2.581,1.539 -2.616,0.567C-2.616,0.381 -2.627,0.196 -2.639,0L-1.458,0.034L-0.486,0.058C-0.498,0.289 -0.498,0.532 -0.486,0.764C-0.475,1.655 -0.382,2.546 -0.208,3.461C-0.139,3.773 -0.081,4.086 0,4.398" style="fill:rgb(255,213,176);"/>
            </g>
        </g>
        <g transform="matrix(1,0,0,1,337.5,0)">
            <g transform="matrix(1,0,0,1,163.225,162.639)">
                <path d="M0,2.408C-2.141,2.813 -2.951,1.632 -4.062,2.188C-4.259,2.281 -4.479,2.443 -4.71,2.674L-5.96,2.662L-6.389,1.771C-6.654,1.135 -6.62,0.417 -6.296,-0.382C-6.284,-0.37 -6.261,-0.37 -6.25,-0.359C-5.972,-0.208 -5.683,-0.115 -5.382,-0.081C-4.838,-0.011 -4.247,-0.104 -3.61,-0.37C-3.576,-0.382 -3.553,-0.393 -3.518,-0.405C-2.661,1.135 2.118,1.69 0,2.408" style="fill:rgb(210,150,233);"/>
            </g>
        </g>
        <g transform="matrix(1,0,0,1,337.5,0)">
            <g transform="matrix(1,0,0,1,164.892,155.036)">
                <path d="M0,-31.367C-0.034,-22.524 -1.539,-10.649 -4.479,4.27C-4.826,4.409 -5.185,4.501 -5.556,4.536C-5.926,4.594 -6.308,4.606 -6.701,4.559C-7.025,4.513 -7.35,4.444 -7.686,4.34C-7.905,4.281 -8.137,4.2 -8.368,4.108C-7.534,-11.136 -10.949,-26.888 -7.454,-35.592L-0.115,-35.973C-0.023,-34.538 0.012,-33.011 0,-31.367" style="fill:rgb(233,210,244);"/>
            </g>
        </g>
        <g transform="matrix(1,0,0,1,337.5,0)">
            <g opacity="0.1">
                <g transform="matrix(1,0,0,1,163.225,124.074)">
                    <path d="M0,40.973C-2.141,41.378 -2.951,40.197 -4.062,40.753C-4.294,40.44 -4.525,40.116 -4.733,39.792C-4.872,39.572 -5.022,39.341 -5.139,39.109C-5.242,38.901 -5.323,38.704 -5.382,38.484C-5.416,38.392 -5.439,38.299 -5.451,38.206C-5.555,37.593 -5.394,36.956 -5.231,36.355C-5.162,36.077 -5.092,35.799 -5.034,35.521C-4.977,35.267 -4.919,35.012 -4.86,34.769C-4.154,31.528 -3.715,28.241 -3.576,24.931C-3.541,24.294 -3.529,23.623 -3.75,23.021C-3.958,22.454 -4.363,21.979 -4.571,21.412C-4.907,20.475 -4.641,19.422 -4.56,18.426C-4.409,16.563 -4.896,14.7 -4.745,12.836C-4.676,11.898 -4.433,10.984 -4.201,10.07C-3.46,7.2 -3.032,3.901 -1.886,1.158C-1.389,-0.046 -1.053,-0.231 0.104,-0.277C0.684,-0.312 1.181,-0.336 1.667,-0.405C1.633,8.438 0.128,20.313 -2.813,35.232C-3.159,35.371 -3.518,35.463 -3.889,35.498C-3.877,36.39 -3.784,37.281 -3.61,38.195C-3.576,38.183 -3.553,38.172 -3.518,38.16C-2.661,39.7 2.118,40.255 0,40.973"/>
                </g>
            </g>
        </g>
        <g transform="matrix(1,0,0,1,337.5,0)">
            <g transform="matrix(1,0,0,1,154.128,161.32)">
                <path d="M0,-2.893C-0.128,-2.685 -0.243,-2.488 -0.348,-2.268C-0.787,-1.504 -1.146,-0.683 -1.459,0.197C-1.562,0.498 -1.655,0.799 -1.748,1.111L-3.264,0.22L-3.264,0.209L-4.363,-0.439C-4.144,-0.659 -3.936,-0.879 -3.75,-1.111C-3.091,-1.851 -2.547,-2.65 -2.106,-3.495C-2.003,-3.668 -1.91,-3.83 -1.829,-4.004L-1.273,-3.668L0,-2.893Z" style="fill:rgb(255,213,176);"/>
            </g>
        </g>
        <g transform="matrix(1,0,0,1,337.5,0)">
            <g transform="matrix(1,0,0,1,154.394,160.591)">
                <path d="M0,5.139C-2.06,4.41 -2.152,2.974 -3.414,2.905C-3.634,2.894 -3.889,2.929 -4.201,3.01L-5.277,2.373L-5.196,1.389C-5.115,0.695 -4.733,0.093 -4.051,-0.428C-4.039,-0.417 -4.027,-0.393 -4.016,-0.382C-3.842,-0.116 -3.634,0.116 -3.379,0.312C-2.951,0.637 -2.396,0.833 -1.725,0.926C-1.689,0.926 -1.666,0.938 -1.632,0.938C-1.654,2.708 2.199,5.567 0,5.139" style="fill:rgb(210,150,233);"/>
            </g>
        </g>
        <g transform="matrix(1,0,0,1,337.5,0)">
            <g transform="matrix(1,0,0,1,169.648,138.97)">
                <path d="M0,1.135C-3.981,6.575 -8.924,12.998 -14.814,20.371C-15.174,20.325 -15.532,20.22 -15.868,20.082C-16.343,19.897 -16.782,19.619 -17.211,19.248C-17.35,19.133 -17.488,18.994 -17.627,18.855C-17.789,18.681 -17.939,18.496 -18.102,18.299C-13.935,11.899 -10.659,6.389 -7.465,0.232C-5.463,-3.286 -7.453,-7.557 -7.824,-12.604C-7.975,-14.629 -7.858,-16.782 -7.106,-19.062L1.1,-19.236C2.709,-9.606 2.338,-2.823 0,1.135" style="fill:rgb(233,210,244);"/>
            </g>
        </g>
        <g transform="matrix(1,0,0,1,337.5,0)">
            <g opacity="0.1">
                <g transform="matrix(1,0,0,1,153.78,126.841)">
                    <path d="M0,32.211C-0.439,32.975 -0.798,33.796 -1.111,34.676C-1.076,34.676 -1.053,34.688 -1.019,34.688C-1.041,36.459 2.813,39.317 0.613,38.889C-1.446,38.16 -1.539,36.725 -2.801,36.655C-2.87,36.401 -2.928,36.146 -2.951,35.892C-2.997,35.486 -2.975,35.093 -2.916,34.699L-2.916,34.688C-2.882,34.48 -2.824,34.271 -2.766,34.063C-2.488,33.114 -1.956,32.223 -1.343,31.378C-1.203,31.181 -1.064,30.996 -0.926,30.811C-0.74,30.579 -0.556,30.348 -0.37,30.128C0.753,28.75 1.875,27.361 3.01,25.984C3.924,24.85 4.838,23.727 5.706,22.57C9.353,17.709 12.177,12.222 14.017,6.424C14.445,5.081 14.815,3.6 14.317,2.28C13.728,0.694 13.247,0.909 11.572,-0.604C11.136,-0.998 8.934,-3.543 8.055,-3.485C7.904,-5.511 8.01,-4.653 8.762,-6.933L16.968,-7.106C18.577,2.523 18.206,9.306 15.868,13.264C11.887,18.704 6.944,25.128 1.054,32.501C0.694,32.454 0.336,32.35 0,32.211"/>
                </g>
            </g>
        </g>
        <g transform="matrix(1,0,0,1,337.5,0)">
            <g transform="matrix(1,0,0,1,189.047,102.847)">
                <path d="M0,-2.789C-0.058,-1.713 -0.625,0.012 -2.222,0.73C-2.291,0.764 -2.361,0.799 -2.431,0.822L-2.593,0.741C-2.593,0.741 -2.743,0.741 -2.928,0.707C-3.356,0.637 -4.005,0.405 -3.762,-0.324C-3.727,-0.439 -3.669,-0.532 -3.6,-0.613C-3.067,-1.261 -1.62,-0.787 -1.181,-1.84C-1.076,-2.095 -0.972,-2.326 -0.845,-2.523C-0.416,-3.287 0.047,-3.611 0,-2.789" style="fill:rgb(255,213,176);"/>
            </g>
        </g>
        <g transform="matrix(1,0,0,1,337.5,0)">
            <g transform="matrix(1,0,0,1,171.743,103.473)">
                <path d="M0,17.488C-2.187,19.467 -5.277,20.22 -9.282,19.745L-9.294,19.745C-11.227,19.513 -13.379,18.993 -15.74,18.194C-12.106,11.458 -16.238,0.011 -11.481,-1.956C-8.669,-2.732 -5.833,-2.686 -3.021,-1.852L-3.009,-1.852C-2.963,-1.841 -2.904,-1.818 -2.858,-1.806C-2.742,-1.702 -2.639,-1.586 -2.546,-1.47L-2.546,-1.459C-2.465,-1.366 -2.396,-1.262 -2.349,-1.158C-2.338,-1.146 -2.338,-1.146 -2.326,-1.135C-1.423,0.451 -1.689,3.263 -1.875,6.388C-1.933,7.199 -1.979,8.02 -1.99,8.854C-2.06,11.921 -1.759,15.069 0,17.488" style="fill:rgb(210,150,233);"/>
            </g>
        </g>
        <g transform="matrix(1,0,0,1,337.5,0)">
            <g transform="matrix(1,0,0,1,186.871,115.938)">
                <path d="M0,-12.465C-0.012,-12.43 -0.035,-12.396 -0.046,-12.361C-3.646,-3.97 -6.481,0.672 -8.785,1.32C-9.804,1.609 -12.164,0.44 -15.37,-2.152C-15.926,-2.592 -16.505,-3.078 -17.118,-3.611C-17.535,-3.97 -17.963,-4.363 -18.403,-4.78C-18.738,-5.069 -19.074,-5.393 -19.41,-5.717L-18.032,-14.074C-17.87,-13.958 -17.674,-13.808 -17.477,-13.623C-17.466,-13.611 -17.466,-13.611 -17.454,-13.599C-16.25,-12.5 -14.479,-10.277 -12.639,-7.696C-12.304,-7.211 -11.956,-6.724 -11.62,-6.227C-10.926,-5.208 -10.22,-4.167 -9.549,-3.171L-1.47,-13.75L-1.424,-13.704L-0.324,-12.743L0,-12.465Z" style="fill:rgb(255,213,176);"/>
            </g>
        </g>
        <g transform="matrix(1,0,0,1,337.5,0)">
            <g transform="matrix(1,0,0,1,166.107,97.7204)">
                <path d="M0,3.368C-0.29,3.541 -0.591,3.669 -0.868,3.738C-1.655,3.97 -2.408,3.843 -3.114,3.368L-2.998,2.361L-2.697,-0.336L-0.672,-0.602C-0.937,1.018 -0.718,2.338 0,3.368" style="fill:rgb(255,213,176);"/>
            </g>
        </g>
        <g transform="matrix(1,0,0,1,337.5,0)">
            <g opacity="0.1">
                <g transform="matrix(1,0,0,1,166.107,97.4884)">
                    <path d="M0,3.6C-0.29,3.773 -0.591,3.901 -0.868,3.97C-1.008,3.669 -1.158,3.38 -1.4,3.16C-1.679,2.894 -2.061,2.755 -2.431,2.639C-2.559,2.604 -2.686,2.57 -2.824,2.57C-2.883,2.57 -2.94,2.57 -2.998,2.593L-2.697,-0.104L-0.672,-0.37C-0.937,1.25 -0.718,2.57 0,3.6"/>
                </g>
            </g>
        </g>
        <g transform="matrix(1,0,0,1,337.5,0)">
            <g transform="matrix(0.868663,0.495404,0.495404,-0.868663,162.088,97.4068)">
                <path d="M1.296,-0.745C3.645,-0.677 4.813,-0.125 4.798,0.913C4.835,1.851 3.669,3.351 1.296,5.411L-1.423,3.512L1.296,-0.745Z" style="fill:rgb(255,213,176);"/>
            </g>
        </g>
        <g transform="matrix(1,0,0,1,337.5,0)">
            <g transform="matrix(1,0,0,1,165.045,96.6491)">
                <path d="M0,-1.215C1.236,-0.628 2.176,-0.618 2.819,-1.187C3.731,-2.2 3.793,-3.42 3.002,-4.844C2.068,-4.803 1.056,-4.453 -0.037,-3.792C-0.907,-4.362 -1.641,-4.399 -2.237,-3.903C-3.3,-3.835 -3.787,-3.034 -3.698,-1.501C-4.14,-0.818 -3.762,-0.126 -2.564,0.575C-2.938,1.169 -3.236,1.752 -3.461,2.323C-2.887,3.11 -2.058,3.545 -0.973,3.629C-0.407,3.573 0.026,3.336 0.329,2.918C-0.306,1.834 -0.631,1.103 -0.646,0.724C-0.633,0.318 -0.452,0.135 -0.102,0.176C0.229,0.314 0.37,0.662 0.321,1.22C0.58,1.219 0.776,1.095 0.912,0.848C0.483,0.1 0.18,-0.587 0,-1.215"/>
            </g>
        </g>
        <g transform="matrix(1,0,0,1,337.5,0)">
            <g transform="matrix(1,0,0,1,162.748,104.454)">
                <path d="M0,-7.069C-0.752,-7.347 -1.505,-6.67 -2.26,-5.037C-1.739,-0.463 -2.58,1.422 -4.781,0.619C-6.695,0.087 -6.913,-2.209 -5.434,-6.269C-4.658,-8.044 -3.094,-8.491 -0.739,-7.611C-0.421,-7.199 -0.175,-7.019 0,-7.069"/>
            </g>
        </g>
        <g transform="matrix(1,0,0,1,337.5,0)">
            <g transform="matrix(-0.397216,0.917725,0.917725,0.397216,162.374,96.2457)">
                <path d="M0.858,-1.3C0.531,-1.276 0.296,-1.077 0.154,-0.705C0.186,-0.232 0.421,0.192 0.858,0.566C1.162,0.621 1.376,0.431 1.498,-0.003C1.194,-0.034 0.98,-0.466 0.858,-1.3" style="fill:rgb(210,150,233);"/>
            </g>
        </g>
        <g transform="matrix(1,0,0,1,337.5,0)">
            <g transform="matrix(1,0,0,1,175.251,105.695)">
                <path d="M0,4.016C-0.66,5.335 -1.713,6.447 -2.709,7.291C-3.067,7.593 -3.427,7.859 -3.75,8.09C-4.306,7.65 -4.885,7.164 -5.498,6.632C-5.915,6.273 -6.343,5.879 -6.783,5.463C-7.118,5.174 -7.454,4.849 -7.79,4.525L-6.528,-4.074L-6.517,-4.074C-6.378,-3.97 -6.228,-3.843 -6.054,-3.692L-6.054,-3.681C-4.838,-2.605 -2.929,-0.174 -1.019,2.546C-0.684,3.032 -0.336,3.518 0,4.016" style="fill:rgb(210,150,233);"/>
            </g>
        </g>
        <g transform="matrix(1,0,0,1,337.5,0)">
            <g opacity="0.1">
                <g transform="matrix(1,0,0,1,189.047,122.871)">
                    <path d="M0,-22.813C-0.058,-21.737 -0.625,-20.012 -2.222,-19.294C-5.821,-10.903 -8.657,-6.262 -10.961,-5.614C-11.979,-5.324 -14.34,-6.493 -17.546,-9.086C-18.102,-9.526 -18.681,-10.012 -19.294,-10.544C-19.363,-7.477 -19.062,-4.329 -17.304,-1.91C-19.49,0.069 -22.581,0.822 -26.586,0.347C-24.78,-0.336 -21.586,-1.007 -21.343,-2.743C-21.134,-4.248 -20.821,-6.459 -20.532,-7.94C-20.451,-8.357 -20.277,-8.75 -20.208,-9.155C-20.069,-10.012 -20.348,-10.869 -20.579,-11.713C-20.613,-11.841 -20.648,-11.968 -20.683,-12.095C-20.973,-13.241 -21.064,-14.433 -20.961,-15.602C-20.405,-14.711 -19.814,-13.843 -19.179,-13.01C-18.368,-11.933 -17.488,-10.903 -16.551,-9.931C-16.539,-9.919 -16.517,-9.896 -16.505,-9.885C-15.313,-8.646 -13.784,-7.466 -12.095,-7.662C-10.799,-7.801 -9.733,-8.739 -8.935,-9.769C-6.62,-12.755 -5.718,-16.852 -2.928,-19.317C-2.789,-19.445 -2.65,-19.561 -2.5,-19.676C-2.488,-19.688 -2.465,-19.7 -2.453,-19.711C-1.863,-20.151 -1.134,-20.567 -0.856,-21.285C-0.694,-21.725 -0.775,-22.13 -0.845,-22.547C-0.416,-23.311 0.047,-23.635 0,-22.813"/>
                </g>
            </g>
        </g>
        <g transform="matrix(1,0,0,1,337.5,0)">
            <g transform="matrix(1,0,0,1,182.719,83.7218)">
                <path d="M0,12.349C-3.413,12.349 -6.174,9.587 -6.174,6.175C-6.174,2.762 -3.413,0.001 0,0.001C3.412,0.001 6.174,2.762 6.174,6.175C6.174,9.587 3.412,12.349 0,12.349M0,-1.813C-4.411,-1.813 -7.988,1.764 -7.988,6.175C-7.988,10.586 -4.411,14.162 0,14.162C4.411,14.162 7.987,10.586 7.987,6.175C7.987,1.764 4.411,-1.813 0,-1.813" style="fill:rgb(236,218,248);"/>
            </g>
        </g>
        <g transform="matrix(1,0,0,1,337.5,0)">
            <g transform="matrix(1,0,0,1,186.384,90.6552)">
                <path d="M0,-1.517L0,0C0,0.341 -0.278,0.619 -0.626,0.619L-2.288,0.619L-2.288,2.281C-2.288,2.629 -2.565,2.907 -2.907,2.907L-4.424,2.907C-4.765,2.907 -5.043,2.629 -5.043,2.281L-5.043,0.619L-6.705,0.619C-7.053,0.619 -7.33,0.341 -7.33,0L-7.33,-1.517C-7.33,-1.858 -7.053,-2.136 -6.705,-2.136L-5.043,-2.136L-5.043,-3.798C-5.043,-4.146 -4.765,-4.424 -4.424,-4.424L-2.907,-4.424C-2.565,-4.424 -2.288,-4.146 -2.288,-3.798L-2.288,-2.136L-0.626,-2.136C-0.278,-2.136 0,-1.858 0,-1.517" style="fill:rgb(251,207,252);"/>
            </g>
        </g>
        <g transform="matrix(1,0,0,1,337.5,0)">
            <g transform="matrix(1,0,0,1,275.644,111.487)">
                <path d="M0,0.012C0,0.486 -0.388,0.874 -0.873,0.874L-32.576,0.874C-32.932,0.874 -33.233,0.658 -33.363,0.357C-33.417,0.249 -33.438,0.131 -33.438,0.012C-33.438,-0.473 -33.051,-0.862 -32.576,-0.862L-0.873,-0.862C-0.388,-0.862 0,-0.473 0,0.012" style="fill:rgb(233,210,244);fill-rule:nonzero;"/>
            </g>
        </g>
        <g transform="matrix(1,0,0,1,337.5,0)">
            <g opacity="0.1">
                <g transform="matrix(1,0,0,1,275.644,111.487)">
                    <path d="M0,0.012C0,0.486 -0.388,0.874 -0.873,0.874L-32.576,0.874C-32.932,0.874 -33.233,0.658 -33.363,0.357L-7.783,0.357C-7.783,0.357 -2.976,0.087 -2.382,-0.862L-0.873,-0.862C-0.388,-0.862 0,-0.473 0,0.012" style="fill-rule:nonzero;"/>
                </g>
            </g>
        </g>
        <g transform="matrix(1,0,0,1,337.5,0)">
            <g transform="matrix(1,0,0,1,272.712,109.246)">
                <path d="M0,-11.836L0,-1.692C0,-0.258 -3.407,2.598 -4.852,2.598L-4.927,2.587L-22.174,0.906C-23.608,0.906 -24.772,-0.258 -24.772,-1.692L-25.613,-4.786L-27.219,-10.704L-27.219,-10.726C-27.187,-12.17 -23.598,-14.434 -22.174,-14.434L-2.609,-14.434C-1.165,-14.434 0,-13.27 0,-11.836" style="fill:rgb(190,121,223);fill-rule:nonzero;"/>
            </g>
        </g>
        <g transform="matrix(1,0,0,1,337.5,0)">
            <g transform="matrix(1,0,0,1,270.2,109.236)">
                <path d="M0,-10.134L0,-0.001C0,1.379 -1.067,2.511 -2.415,2.597C-2.479,2.608 -2.533,2.608 -2.599,2.608L-22.163,2.608C-23.607,2.608 -24.772,1.444 -24.772,-0.001L-24.772,-10.134C-24.772,-10.328 -24.751,-10.511 -24.707,-10.695L-24.707,-10.716C-24.449,-11.869 -23.403,-12.742 -22.163,-12.742L-2.599,-12.742C-1.649,-12.742 -0.819,-12.236 -0.367,-11.47C-0.141,-11.082 0,-10.63 0,-10.134" style="fill:rgb(233,210,244);fill-rule:nonzero;"/>
            </g>
        </g>
        <g transform="matrix(1,0,0,1,337.5,0)">
            <g opacity="0.1">
                <g transform="matrix(1,0,0,1,272.712,111.445)">
                    <path d="M0,-13.906L0,-3.891C0,-2.458 -3.407,0.399 -4.852,0.399L-4.927,0.388C-4.991,0.399 -5.045,0.399 -5.11,0.399L-24.675,0.399C-26.119,0.399 -27.284,-0.765 -27.284,-2.21L-27.284,-7.255C-26.896,-7.201 -26.508,-7.147 -26.131,-7.082C-25.958,-7.05 -25.785,-7.018 -25.613,-6.985C-25.021,-6.878 -24.427,-6.727 -23.866,-6.489C-23.134,-6.177 -22.465,-5.702 -21.754,-5.315C-18.326,-3.428 -14.176,-3.547 -10.284,-3.989C-9.756,-4.053 -9.195,-4.129 -8.656,-4.269C-7.481,-4.528 -6.371,-5.023 -5.757,-5.972C-5.692,-6.069 -5.638,-6.166 -5.584,-6.274C-5.164,-7.114 -5.196,-8.085 -5.132,-9.012C-5.045,-10.316 -4.754,-11.653 -3.968,-12.698C-3.676,-13.087 -3.299,-13.431 -2.879,-13.679C-2.178,-14.111 -1.348,-14.305 -0.561,-14.111C-0.356,-14.068 -0.173,-13.992 0,-13.906" style="fill-rule:nonzero;"/>
                </g>
            </g>
        </g>
        <g transform="matrix(1,0,0,1,337.5,0)">
            <g transform="matrix(1,0,0,1,260.734,98.2005)">
                <path d="M0,4.923L-11.599,4.923C-12.019,4.923 -12.358,4.583 -12.358,4.163L-12.358,0.76C-12.358,0.34 -12.019,0 -11.599,0L0,0C0.42,0 0.76,0.34 0.76,0.76L0.76,4.163C0.76,4.583 0.42,4.923 0,4.923" style="fill:white;fill-rule:nonzero;"/>
            </g>
        </g>
        <g transform="matrix(1,0,0,1,337.5,0)">
            <g transform="matrix(1,0,0,1,249.903,105.055)">
                <path d="M0,1.797L-1.258,1.797C-1.407,1.797 -1.527,1.676 -1.527,1.527L-1.527,0.269C-1.527,0.121 -1.407,0 -1.258,0L0,0C0.148,0 0.27,0.121 0.27,0.269L0.27,1.527C0.27,1.676 0.148,1.797 0,1.797" style="fill:white;fill-rule:nonzero;"/>
            </g>
        </g>
        <g transform="matrix(1,0,0,1,337.5,0)">
            <g transform="matrix(1,0,0,1,253.677,105.055)">
                <path d="M0,1.797L-1.258,1.797C-1.406,1.797 -1.527,1.676 -1.527,1.527L-1.527,0.269C-1.527,0.121 -1.406,0 -1.258,0L0,0C0.149,0 0.27,0.121 0.27,0.269L0.27,1.527C0.27,1.676 0.149,1.797 0,1.797" style="fill:white;fill-rule:nonzero;"/>
            </g>
        </g>
        <g transform="matrix(1,0,0,1,337.5,0)">
            <g transform="matrix(1,0,0,1,257.451,105.055)">
                <path d="M0,1.797L-1.258,1.797C-1.407,1.797 -1.527,1.676 -1.527,1.527L-1.527,0.269C-1.527,0.121 -1.407,0 -1.258,0L0,0C0.148,0 0.27,0.121 0.27,0.269L0.27,1.527C0.27,1.676 0.148,1.797 0,1.797" style="fill:white;fill-rule:nonzero;"/>
            </g>
        </g>
        <g transform="matrix(1,0,0,1,337.5,0)">
            <g transform="matrix(1,0,0,1,261.225,105.055)">
                <path d="M0,1.797L-1.258,1.797C-1.406,1.797 -1.527,1.676 -1.527,1.527L-1.527,0.269C-1.527,0.121 -1.406,0 -1.258,0L0,0C0.149,0 0.27,0.121 0.27,0.269L0.27,1.527C0.27,1.676 0.149,1.797 0,1.797" style="fill:white;fill-rule:nonzero;"/>
            </g>
        </g>
        <g transform="matrix(1,0,0,1,337.5,0)">
            <g transform="matrix(1,0,0,1,249.903,107.828)">
                <path d="M0,1.797L-1.258,1.797C-1.407,1.797 -1.527,1.676 -1.527,1.527L-1.527,0.27C-1.527,0.121 -1.407,0 -1.258,0L0,0C0.148,0 0.27,0.121 0.27,0.27L0.27,1.527C0.27,1.676 0.148,1.797 0,1.797" style="fill:white;fill-rule:nonzero;"/>
            </g>
        </g>
        <g transform="matrix(1,0,0,1,337.5,0)">
            <g transform="matrix(1,0,0,1,253.677,107.828)">
                <path d="M0,1.797L-1.258,1.797C-1.406,1.797 -1.527,1.676 -1.527,1.527L-1.527,0.27C-1.527,0.121 -1.406,0 -1.258,0L0,0C0.149,0 0.27,0.121 0.27,0.27L0.27,1.527C0.27,1.676 0.149,1.797 0,1.797" style="fill:white;fill-rule:nonzero;"/>
            </g>
        </g>
        <g transform="matrix(1,0,0,1,337.5,0)">
            <g transform="matrix(1,0,0,1,257.451,107.828)">
                <path d="M0,1.797L-1.258,1.797C-1.407,1.797 -1.527,1.676 -1.527,1.527L-1.527,0.27C-1.527,0.121 -1.407,0 -1.258,0L0,0C0.148,0 0.27,0.121 0.27,0.27L0.27,1.527C0.27,1.676 0.148,1.797 0,1.797" style="fill:white;fill-rule:nonzero;"/>
            </g>
        </g>
        <g transform="matrix(1,0,0,1,337.5,0)">
            <g transform="matrix(1,0,0,1,261.225,107.828)">
                <path d="M0,1.797L-1.258,1.797C-1.406,1.797 -1.527,1.676 -1.527,1.527L-1.527,0.27C-1.527,0.121 -1.406,0 -1.258,0L0,0C0.149,0 0.27,0.121 0.27,0.27L0.27,1.527C0.27,1.676 0.149,1.797 0,1.797" style="fill:white;fill-rule:nonzero;"/>
            </g>
        </g>
        <g transform="matrix(1,0,0,1,337.5,0)">
            <g transform="matrix(1,0,0,1,249.629,104.882)">
                <path d="M0,1.797L-1.258,1.797C-1.406,1.797 -1.527,1.676 -1.527,1.527L-1.527,0.27C-1.527,0.121 -1.406,0 -1.258,0L0,0C0.149,0 0.27,0.121 0.27,0.27L0.27,1.527C0.27,1.676 0.149,1.797 0,1.797" style="fill:rgb(251,207,252);fill-rule:nonzero;"/>
            </g>
        </g>
        <g transform="matrix(1,0,0,1,337.5,0)">
            <g transform="matrix(1,0,0,1,253.402,104.882)">
                <path d="M0,1.797L-1.258,1.797C-1.406,1.797 -1.527,1.676 -1.527,1.527L-1.527,0.27C-1.527,0.121 -1.406,0 -1.258,0L0,0C0.149,0 0.271,0.121 0.271,0.27L0.271,1.527C0.271,1.676 0.149,1.797 0,1.797" style="fill:rgb(251,207,252);fill-rule:nonzero;"/>
            </g>
        </g>
        <g transform="matrix(1,0,0,1,337.5,0)">
            <g transform="matrix(1,0,0,1,257.177,104.882)">
                <path d="M0,1.797L-1.258,1.797C-1.407,1.797 -1.527,1.676 -1.527,1.527L-1.527,0.27C-1.527,0.121 -1.407,0 -1.258,0L0,0C0.148,0 0.27,0.121 0.27,0.27L0.27,1.527C0.27,1.676 0.148,1.797 0,1.797" style="fill:rgb(251,207,252);fill-rule:nonzero;"/>
            </g>
        </g>
        <g transform="matrix(1,0,0,1,337.5,0)">
            <g transform="matrix(1,0,0,1,260.95,104.882)">
                <path d="M0,1.797L-1.258,1.797C-1.406,1.797 -1.527,1.676 -1.527,1.527L-1.527,0.27C-1.527,0.121 -1.406,0 -1.258,0L0,0C0.149,0 0.27,0.121 0.27,0.27L0.27,1.527C0.27,1.676 0.149,1.797 0,1.797" style="fill:rgb(251,207,252);fill-rule:nonzero;"/>
            </g>
        </g>
        <g transform="matrix(1,0,0,1,337.5,0)">
            <g transform="matrix(1,0,0,1,249.629,107.654)">
                <path d="M0,1.797L-1.258,1.797C-1.406,1.797 -1.527,1.676 -1.527,1.527L-1.527,0.27C-1.527,0.121 -1.406,0 -1.258,0L0,0C0.149,0 0.27,0.121 0.27,0.27L0.27,1.527C0.27,1.676 0.149,1.797 0,1.797" style="fill:rgb(251,207,252);fill-rule:nonzero;"/>
            </g>
        </g>
        <g transform="matrix(1,0,0,1,337.5,0)">
            <g transform="matrix(1,0,0,1,253.402,107.654)">
                <path d="M0,1.797L-1.258,1.797C-1.406,1.797 -1.527,1.676 -1.527,1.527L-1.527,0.27C-1.527,0.121 -1.406,0 -1.258,0L0,0C0.149,0 0.271,0.121 0.271,0.27L0.271,1.527C0.271,1.676 0.149,1.797 0,1.797" style="fill:rgb(251,207,252);fill-rule:nonzero;"/>
            </g>
        </g>
        <g transform="matrix(1,0,0,1,337.5,0)">
            <g transform="matrix(1,0,0,1,257.177,107.654)">
                <path d="M0,1.797L-1.258,1.797C-1.407,1.797 -1.527,1.676 -1.527,1.527L-1.527,0.27C-1.527,0.121 -1.407,0 -1.258,0L0,0C0.148,0 0.27,0.121 0.27,0.27L0.27,1.527C0.27,1.676 0.148,1.797 0,1.797" style="fill:rgb(251,207,252);fill-rule:nonzero;"/>
            </g>
        </g>
        <g transform="matrix(1,0,0,1,337.5,0)">
            <g transform="matrix(1,0,0,1,260.95,107.654)">
                <path d="M0,1.797L-1.258,1.797C-1.406,1.797 -1.527,1.676 -1.527,1.527L-1.527,0.27C-1.527,0.121 -1.406,0 -1.258,0L0,0C0.149,0 0.27,0.121 0.27,0.27L0.27,1.527C0.27,1.676 0.149,1.797 0,1.797" style="fill:rgb(251,207,252);fill-rule:nonzero;"/>
            </g>
        </g>
        <g transform="matrix(1,0,0,1,337.5,0)">
            <g transform="matrix(1,0,0,1,251.846,98.3323)">
                <path d="M0,4.678L-0.619,1.159L-1.31,2.465L-3.47,2.465L-3.47,2.196L-1.472,2.196L-0.488,0.339L0.059,3.461L0.412,2.196L1.722,2.196L2.088,0.779L2.397,1.767L3.387,0L3.876,2.985L4.335,2.196L5.877,2.196L6.478,0.508L7.214,3.114L7.527,2.013L7.822,2.454L8.659,0.368L9.108,2.196L9.648,2.196L9.648,2.465L8.898,2.465L8.599,1.245L7.882,3.029L7.627,2.648L7.214,4.101L6.447,1.394L6.066,2.465L4.49,2.465L3.73,3.768L3.245,0.805L2.328,2.446L2.113,1.759L1.931,2.465L0.616,2.465L0,4.678Z" style="fill:rgb(251,207,252);fill-rule:nonzero;"/>
            </g>
        </g>
        <g transform="matrix(1,0,0,1,337.5,0)">
            <g transform="matrix(1,0,0,1,268.474,107.262)">
                <path d="M0,-0.82L0,-0.011C0,0.15 -0.13,0.269 -0.28,0.269L-1.521,0.269L-1.521,1.509C-1.521,1.67 -1.649,1.8 -1.812,1.8L-2.609,1.8C-2.771,1.8 -2.9,1.67 -2.9,1.509L-2.9,0.269L-4.14,0.269C-4.291,0.269 -4.42,0.15 -4.42,-0.011L-4.42,-0.82C-4.42,-0.971 -4.291,-1.1 -4.14,-1.1L-2.9,-1.1L-2.9,-2.34C-2.9,-2.502 -2.771,-2.62 -2.609,-2.62L-1.812,-2.62C-1.649,-2.62 -1.521,-2.502 -1.521,-2.34L-1.521,-1.1L-0.28,-1.1C-0.13,-1.1 0,-0.971 0,-0.82" style="fill:white;fill-rule:nonzero;"/>
            </g>
        </g>
        <g transform="matrix(1,0,0,1,337.5,0)">
            <g transform="matrix(1,0,0,1,272.06,99.4555)">
                <path d="M0,0.731C-0.148,0.731 -0.27,0.61 -0.27,0.461C-0.27,0.313 -0.148,0.192 0,0.192C0.335,0.192 0.667,0.142 0.983,0.044C1.126,0 1.277,0.079 1.32,0.221C1.364,0.363 1.285,0.514 1.144,0.558C0.773,0.673 0.39,0.731 0,0.731" style="fill:rgb(190,121,223);fill-rule:nonzero;"/>
            </g>
        </g>
        <g transform="matrix(1,0,0,1,337.5,0)">
            <g transform="matrix(1,0,0,1,250.274,98.2558)">
                <path d="M0,-32.372L-2.189,-32.372C-2.338,-32.372 -2.459,-32.493 -2.459,-32.642C-2.459,-32.79 -2.338,-32.911 -2.189,-32.911L0,-32.911C0.148,-32.911 0.269,-32.79 0.269,-32.642C0.269,-32.493 0.148,-32.372 0,-32.372M4.378,-32.372L2.189,-32.372C2.041,-32.372 1.92,-32.493 1.92,-32.642C1.92,-32.79 2.041,-32.911 2.189,-32.911L4.378,-32.911C4.526,-32.911 4.647,-32.79 4.647,-32.642C4.647,-32.493 4.526,-32.372 4.378,-32.372M8.756,-32.372L6.566,-32.372C6.418,-32.372 6.297,-32.493 6.297,-32.642C6.297,-32.79 6.418,-32.911 6.566,-32.911L8.756,-32.911C8.904,-32.911 9.025,-32.79 9.025,-32.642C9.025,-32.493 8.904,-32.372 8.756,-32.372M13.133,-32.372L10.944,-32.372C10.796,-32.372 10.675,-32.493 10.675,-32.642C10.675,-32.79 10.796,-32.911 10.944,-32.911L13.133,-32.911C13.281,-32.911 13.402,-32.79 13.402,-32.642C13.402,-32.493 13.281,-32.372 13.133,-32.372M17.512,-32.372L15.321,-32.372C15.173,-32.372 15.052,-32.493 15.052,-32.642C15.052,-32.79 15.173,-32.911 15.321,-32.911L17.512,-32.911C17.66,-32.911 17.781,-32.79 17.781,-32.642C17.781,-32.493 17.66,-32.372 17.512,-32.372M21.889,-32.371L21.88,-32.371L21.786,-32.372L19.7,-32.372C19.552,-32.372 19.431,-32.493 19.431,-32.642C19.431,-32.79 19.552,-32.911 19.7,-32.911L21.896,-32.909C22.045,-32.905 22.162,-32.78 22.158,-32.631C22.153,-32.486 22.034,-32.371 21.889,-32.371M-6.542,-32.154C-6.651,-32.154 -6.755,-32.222 -6.795,-32.331C-6.847,-32.471 -6.774,-32.625 -6.635,-32.677C-6.21,-32.832 -5.763,-32.911 -5.308,-32.911L-4.378,-32.911C-4.229,-32.911 -4.108,-32.79 -4.108,-32.642C-4.108,-32.493 -4.229,-32.372 -4.378,-32.372L-5.308,-32.372C-5.7,-32.372 -6.084,-32.304 -6.449,-32.17C-6.479,-32.159 -6.512,-32.154 -6.542,-32.154M25.187,-29.918C25.074,-29.918 24.969,-29.99 24.931,-30.103C24.716,-30.75 24.312,-31.309 23.763,-31.718C23.644,-31.807 23.618,-31.976 23.707,-32.095C23.797,-32.214 23.966,-32.238 24.084,-32.15C24.724,-31.674 25.192,-31.025 25.442,-30.273C25.488,-30.132 25.413,-29.979 25.271,-29.932C25.243,-29.923 25.215,-29.918 25.187,-29.918M-8.89,-29.051L-9.159,-29.051C-9.16,-29.85 -8.921,-30.612 -8.469,-31.261C-8.382,-31.384 -8.215,-31.411 -8.093,-31.328C-7.972,-31.242 -7.941,-31.075 -8.026,-30.952C-8.416,-30.394 -8.621,-29.74 -8.62,-29.059L-8.89,-29.051ZM25.369,-25.561C25.221,-25.561 25.1,-25.682 25.1,-25.83L25.1,-28.019C25.1,-28.168 25.221,-28.289 25.369,-28.289C25.518,-28.289 25.638,-28.168 25.638,-28.019L25.638,-25.83C25.638,-25.682 25.518,-25.561 25.369,-25.561M-8.89,-24.403C-9.038,-24.403 -9.159,-24.524 -9.159,-24.673L-9.159,-26.862C-9.159,-27.011 -9.038,-27.132 -8.89,-27.132C-8.741,-27.132 -8.62,-27.011 -8.62,-26.862L-8.62,-24.673C-8.62,-24.524 -8.741,-24.403 -8.89,-24.403M25.369,-21.183C25.221,-21.183 25.1,-21.303 25.1,-21.452L25.1,-23.641C25.1,-23.79 25.221,-23.911 25.369,-23.911C25.518,-23.911 25.638,-23.79 25.638,-23.641L25.638,-21.452C25.638,-21.303 25.518,-21.183 25.369,-21.183M25.369,-16.805C25.221,-16.805 25.1,-16.926 25.1,-17.075L25.1,-19.264C25.1,-19.413 25.221,-19.533 25.369,-19.533C25.518,-19.533 25.638,-19.413 25.638,-19.264L25.638,-17.075C25.638,-16.926 25.518,-16.805 25.369,-16.805M25.369,-12.427C25.221,-12.427 25.1,-12.548 25.1,-12.697L25.1,-14.886C25.1,-15.035 25.221,-15.155 25.369,-15.155C25.518,-15.155 25.638,-15.035 25.638,-14.886L25.638,-12.697C25.638,-12.548 25.518,-12.427 25.369,-12.427M25.369,-8.05C25.221,-8.05 25.1,-8.17 25.1,-8.319L25.1,-10.508C25.1,-10.657 25.221,-10.777 25.369,-10.777C25.518,-10.777 25.638,-10.657 25.638,-10.508L25.638,-8.319C25.638,-8.17 25.518,-8.05 25.369,-8.05M25.369,-3.672C25.221,-3.672 25.1,-3.792 25.1,-3.941L25.1,-6.13C25.1,-6.279 25.221,-6.399 25.369,-6.399C25.518,-6.399 25.638,-6.279 25.638,-6.13L25.638,-3.941C25.638,-3.792 25.518,-3.672 25.369,-3.672M24.621,0.539C24.563,0.539 24.506,0.521 24.457,0.483C24.339,0.392 24.317,0.223 24.407,0.105C24.825,-0.435 25.063,-1.082 25.095,-1.765C25.103,-1.913 25.24,-2.044 25.377,-2.021C25.525,-2.014 25.641,-1.888 25.634,-1.739C25.596,-0.946 25.32,-0.194 24.835,0.435C24.781,0.503 24.701,0.539 24.621,0.539" style="fill:rgb(190,121,223);fill-rule:nonzero;"/>
            </g>
        </g>
        <g transform="matrix(1,0,0,1,337.5,0)">
            <g transform="matrix(1,0,0,1,241.385,75.5275)">
                <path d="M0,1.617C-0.148,1.617 -0.27,1.496 -0.27,1.347L-0.27,0.27C-0.27,0.121 -0.148,0 0,0C0.148,0 0.27,0.121 0.27,0.27L0.27,1.347C0.27,1.496 0.148,1.617 0,1.617" style="fill:rgb(190,121,223);fill-rule:nonzero;"/>
            </g>
        </g>
        <g transform="matrix(1,0,0,1,337.5,0)">
            <g transform="matrix(1,0,0,1,241.385,73.9105)">
                <path d="M0,3.234C-0.306,3.234 -0.554,2.986 -0.554,2.68L-0.554,0.554C-0.554,0.248 -0.306,0 0,0C0.306,0 0.554,0.248 0.554,0.554L0.554,2.68C0.554,2.986 0.306,3.234 0,3.234" style="fill:rgb(190,121,223);fill-rule:nonzero;"/>
            </g>
        </g>
        <g transform="matrix(1,0,0,1,337.5,0)">
            <g transform="matrix(0.621063,-0.783761,-0.783761,-0.621063,242.398,75.5588)">
                <path d="M-0.698,-0.919C-1.187,-1.307 -2.801,0.73 -2.312,1.118C-1.815,1.512 -1.093,1.429 -0.698,0.931L-0.511,0.695C-0.117,0.198 -0.2,-0.525 -0.698,-0.919" style="fill:rgb(190,121,223);fill-rule:nonzero;"/>
            </g>
        </g>
    </g>
</svg>
