<svg clip-rule="evenodd" fill-rule="evenodd" stroke-linejoin="round" stroke-miterlimit="1.4142" viewBox="0 0 799 799" xmlns="http://www.w3.org/2000/svg">
  <g fill-rule="nonzero" transform="matrix(8.3333 0 0 8.3333 -2468.5 -2644.4)">
    <path d="m344.121 317.33c-26.457 0-47.904 21.448-47.904 47.905 0 12.637 4.895 24.129 12.89 32.69 4.498-12.216 17.803-20.941 18.997-21.704l4.964-8.834c-.499-1.312-1.649-4.547-2.447-8.477-.572-2.459-.815-4.395-.802-6.158-.125-2.591.057-5.213.759-7.599 2.632-8.915 10.409-14.937 20.803-11.844 4.596 1.369 17.92 8.417 17.92 8.417s.088 3.695-3.257 5.586c.351 2.644-.009 5.506-1.088 8.474l1.286 8.612c.082.449-.142.992-.573 1.39-.468.43-1.057.593-1.627.458h-1.433l-.851 3.671-3.413 5.498c-.716 1.979-2.839 3.062-4.868 2.471l-5.536-1.662-3.254 7.076.843 3.273c.086.02.133.028.133.028s7.948 13.176 9.785 25.189c20.989-5.089 36.578-24 36.578-46.555 0-26.457-21.448-47.905-47.905-47.905" fill="#33da97"/>
    <path d="m347.318 374.842 6.485 1.947c1.456.427 2.989-.368 3.482-1.807l.021-.062 3.38-5.446 1.016-4.371h2.497l.078.023c.227.066.42-.027.542-.117.204-.15.292-.347.298-.412l-.003-.018-1.332-8.913.051-.137c1.027-2.774 1.403-5.377 1.129-7.788-1.783.15-9.282-.516-12.492.515-2.026.651-3.892 4.537-3.892 4.537s-4.328-2.474-5.792 2.537c-.92 3.152.31 4.926.31 4.926s-4.952 4.149-6.582 5.508c-.556.464-1.404 1.057-2.087 1.519-.005.012-.006.025-.011.036l-.028.056-5.414 9.633c1.73 1.806 3.547 3.288 5.322 4.5.809.491 1.735 1.034 2.797 1.635.745.421 1.491.833 2.214 1.225 2.064.968 3.819 1.555 4.959 1.882l-.786-3.059z" fill="#fff"/>
    <path d="m328.974 377.008 5.414-9.633.027-.056c.005-.011.007-.024.012-.036-.624.422-1.11.734-1.11.734s-.093-.223-.248-.63l-4.964 8.834c.057-.037.089-.057.089-.057.258.289.518.57.78.844" fill="#0a322b"/>
    <path d="m365.286 347.684c-.062.026-.174.045-.325.058.274 2.41-.102 5.013-1.129 7.787l-.051.137 1.332 8.914.003.017c-.006.066-.094.262-.298.412-.122.09-.315.183-.542.117l-.078-.023h-2.497l-1.016 4.371-3.379 5.446-.022.062c-.493 1.439-2.025 2.234-3.481 1.807l-6.486-1.947-3.838 8.349.786 3.059c.621.178 1.058.28 1.264.324l-.842-3.274 3.254-7.076 5.536 1.662c2.028.592 4.152-.491 4.867-2.471l3.413-5.498.852-3.671h1.433c.57.135 1.159-.028 1.626-.458.432-.398.656-.941.574-1.389l-1.286-8.612c1.078-2.968 1.439-5.831 1.088-8.474-.236.133-.487.258-.758.371" fill="#0a322b"/>
    <path d="m334.427 367.283c.683-.462 1.53-1.056 2.087-1.52 1.63-1.358 6.582-5.507 6.582-5.507s-1.231-1.775-.311-4.926c1.464-5.012 5.792-2.537 5.792-2.537s1.867-3.886 3.893-4.537c3.21-1.032 10.709-.366 12.491-.515.152-.013.263-.031.325-.058.271-.113.523-.238.758-.371 3.345-1.891 3.257-5.586 3.257-5.586s-13.323-7.048-17.92-8.417c-10.393-3.093-18.172 2.929-20.803 11.844-.703 2.386-.883 5.008-.758 7.599.101 2.123.409 4.224.801 6.158.798 3.93 1.949 7.165 2.448 8.477.155.407.248.629.248.629s.486-.311 1.11-.733" fill="#0a322b"/>
    <path d="m345.53 386.573c-.206-.044-.644-.146-1.264-.323-1.14-.327-2.895-.914-4.959-1.882-1.542-.723-3.255-1.659-5.011-2.86-1.775-1.212-3.592-2.695-5.322-4.5-.261-.275-.522-.555-.78-.844 0 0-.032.019-.089.056-1.194.764-14.499 9.489-18.997 21.705 8.743 9.361 21.193 15.214 35.014 15.214 3.902 0 7.694-.469 11.326-1.349-1.836-12.013-9.784-25.189-9.784-25.189s-.047-.008-.134-.028" fill="#00a183"/>
    <g fill="#ff3494" fill-rule="nonzero">
      <path d="m368.67 373.55-5.665-1.777c-.349-.11-.72.085-.829.433-.11.349.085.719.432.829l5.666 1.777c.066.021.133.031.198.031.281 0 .542-.181.631-.464.109-.348-.085-.72-.433-.829"/>
      <path d="m361.94 374.46c-.263-.252-.683-.244-.935.021-.252.264-.244.683.021.935l3.639 3.479c.128.123.292.183.457.183.173 0 .347-.068.477-.204.252-.264.242-.683-.021-.935z"/>
      <path d="m373.7 365.22-5.925-.374c-.364-.022-.679.255-.701.619-.024.364.253.678.617.702l5.927.372c.068.006.136-.00096.199-.016.273-.068.483-.305.501-.601.025-.365-.254-.68-.618-.702"/>
      <path d="m367.39 367.71c-.315-.182-.721-.073-.902.244-.182.317-.074.722.244.903l4.363 2.509c.153.089.328.11.487.07.169-.041.323-.15.415-.312.182-.316.073-.721-.244-.903z"/>
      <path d="m375.58 371.58c.065-.224.176-.376.329-.456.154-.079.346-.085.575-.019.222.066.376.174.464.328.086.153.098.338.034.558-.062.211-.172.359-.33.444-.159.086-.347.096-.566.033-.225-.066-.381-.176-.469-.331s-.1-.34-.037-.557m.529-1.332.087-.296c.075-.257.196-.464.361-.621s.423-.301.777-.429c.339-.118.571-.227.697-.327.126-.099.213-.225.258-.381.051-.174.025-.324-.076-.453-.102-.128-.267-.225-.497-.293-.401-.117-.896-.12-1.485-.009l-.179-1.005c.693-.159 1.373-.141 2.041.055.55.16.948.421 1.196.78.246.36.306.759.177 1.2-.086.294-.228.528-.424.703-.195.174-.52.34-.972.498-.311.114-.516.211-.612.29-.099.078-.17.198-.217.358l-.07.241z"/>
      <path d="m367.82 382.27c.11-.206.249-.332.416-.378s.356-.012.566.102c.205.109.331.248.386.416.053.167.026.351-.082.552-.104.194-.243.316-.416.367-.172.05-.359.022-.559-.086-.207-.111-.336-.251-.39-.421-.055-.169-.028-.354.079-.552m.794-1.193.146-.273c.126-.234.288-.412.481-.532.194-.12.477-.206.85-.258.356-.046.606-.103.75-.175.144-.071.254-.176.332-.319.085-.159.091-.313.019-.459-.073-.146-.215-.276-.426-.39-.367-.198-.85-.303-1.45-.316l.032-1.021c.712-.011 1.373.147 1.986.477.505.272.84.608 1.008 1.012.166.402.141.805-.076 1.21-.145.269-.332.469-.559.599-.229.13-.58.226-1.055.285-.329.048-.55.1-.659.158-.112.056-.207.158-.286.305l-.119.221z"/>
    </g>
  </g>
</svg>
