<svg clip-rule="evenodd" fill-rule="evenodd" stroke-linejoin="round" stroke-miterlimit="1.41421" viewBox="0 0 796 796" xmlns="http://www.w3.org/2000/svg" xmlns:xlink="http://www.w3.org/1999/xlink">
  <clipPath id="a">
    <path clip-rule="evenodd" d="m516.478 364.559c0 26.359 21.368 47.727 47.727 47.727 26.358 0 47.725-21.368 47.725-47.727 0-26.357-21.367-47.725-47.725-47.725-26.359 0-47.727 21.368-47.727 47.725z"/>
  </clipPath>
  <g fill-rule="nonzero" transform="matrix(8.33333 0 0 8.33333 -4303.99 -2640.28)">
    <path d="m611.93 364.56c0 26.358-21.367 47.727-47.726 47.727-26.358 0-47.725-21.369-47.725-47.727 0-26.357 21.367-47.726 47.725-47.726 26.359 0 47.726 21.369 47.726 47.726" fill="#33da97"/>
    <g clip-path="url(#a)">
      <path d="m597.132 378.444c-.142-.05-14.155-4.955-15.666-5.562-.349-.14-.799-.304-1.276-.478-1.02-.371-2.289-.832-3.037-1.241-.28-.154-.456-.457-.459-.794l-.071-7.032-9.629 2.155-10.064-2.149-.071 7.079c-.003.317-.165.613-.42.771-.757.466-2.067.972-3.12 1.379-.29.112-.559.216-.792.31-1.51.607-15.524 5.512-15.663 5.561-.279.096-6.851 2.427-8.3 9.025-.799 3.639-1.212 20.923-1.419 22.037h79.704c-.207-1.113-.62-18.396-1.42-22.037-1.448-6.598-8.021-8.929-8.297-9.024" fill="#fff"/>
      <path d="m605.995 387.336c-1.521-6.925-8.391-9.361-8.683-9.461-.135-.048-14.137-4.949-15.635-5.552-.358-.143-.813-.308-1.295-.484-1.001-.364-2.247-.817-2.958-1.206-.091-.05-.149-.153-.151-.271l-.063-6.297-.015-1.469-1.388.31-8.815 1.974-9.255-1.976-1.378-.295-.014 1.456-.065 6.351c-.001.109-.054.21-.138.262-.711.439-2.048.956-3.024 1.333-.289.111-.562.217-.8.312-1.499.603-15.5 5.504-15.641 5.554-.286.098-7.157 2.534-8.677 9.459-.802 3.65-1.217 10.926-1.424 12.042l-.02.111h1.179c.215-1.145.625-8.383 1.395-11.887 1.392-6.346 7.918-8.589 7.918-8.589s14.15-4.953 15.689-5.573c1.088-.436 2.981-1.105 3.998-1.732.432-.267.698-.752.703-1.279l.065-6.351 9.494 2.028 9.055-2.028.063 6.298c.006.555.301 1.061.768 1.316 1.139.624 3.277 1.308 4.375 1.748 1.539.62 15.689 5.573 15.689 5.573s6.525 2.243 7.918 8.589c.77 3.504 1.18 10.742 1.394 11.887h1.18l-.021-.111c-.207-1.116-.621-8.391-1.423-12.042" fill="#0a322b"/>
      <path d="m582.841 345.594c-.665 0-1.177.758-1.366 1.084l-.01.018-.159.32-1.919-13.31-10.881-5.692h-3.019l-10.924 4.364-1.875 14.638-.159-.32-.01-.018c-.19-.326-.701-1.084-1.366-1.084-.274 0-.768.128-1.011.982-.313 1.101.233 4.514.447 5.068l1.831 4.676c.068.173.703 1.692 1.901 1.692.083 0 .166-.008.249-.022.036.143.072.286.107.428.391 1.572.708 2.89.905 3.72.205.863.548 1.673 1.018 2.404.559.872 1.498 2.25 2.787 3.86 2.391 2.987 5.199 3.19 5.317 3.198l.017.001h4.551l.017-.001c.118-.008 2.926-.211 5.318-3.198 1.289-1.61 2.226-2.988 2.787-3.86.469-.731.811-1.541 1.017-2.404.197-.826.513-2.143.906-3.72.035-.142.07-.285.106-.428.083.014.166.022.249.022 1.197 0 1.833-1.519 1.902-1.694l1.829-4.674c.214-.554.761-3.967.448-5.068-.242-.854-.738-.982-1.01-.982" fill="#fff"/>
      <path d="m584.407 346.406c-.362-1.274-1.216-1.412-1.565-1.412-.302 0-.574.092-.813.232l.095-1.198h-1.162l-.47 5.94 1.48-2.982s.46-.793.87-.793c.173 0 .337.144.454.552.262.924-.252 4.28-.428 4.674l-1.83 4.674s-.522 1.319-1.365 1.319c-.134 0-.277-.033-.426-.11-.084-.044-.156-.081-.221-.113-.091.362-.181.724-.27 1.079-.386 1.554-.702 2.864-.907 3.726-.188.79-.503 1.539-.937 2.217-.568.883-1.489 2.232-2.751 3.808-2.258 2.821-4.905 2.982-4.905 2.982h-4.517s-2.647-.161-4.906-2.982c-1.261-1.576-2.183-2.925-2.75-3.808-.435-.678-.75-1.427-.938-2.217-.205-.862-.52-2.172-.906-3.726-.089-.355-.18-.717-.27-1.079-.065.032-.137.069-.221.113-.15.077-.292.11-.427.11-.843 0-1.364-1.319-1.364-1.319l-1.83-4.674c-.176-.394-.692-3.75-.429-4.674.116-.409.281-.552.455-.552.409 0 .869.793.869.793l1.481 2.982-.47-5.94h-.545c-.231 0-.439-.037-.626-.103l.104 1.301c-.24-.14-.511-.232-.813-.232-.35 0-1.204.138-1.566 1.412-.359 1.262.198 4.743.466 5.463l1.83 4.674c.032.082.202.494.508.923.594.831 1.242 1.085 1.734 1.135.386 1.551.699 2.856.895 3.679.222.932.591 1.805 1.098 2.594.567.884 1.518 2.28 2.823 3.91 2.55 3.184 5.601 3.405 5.73 3.413l.034.002h4.585l.034-.002c.128-.008 3.179-.229 5.729-3.413 1.305-1.63 2.255-3.026 2.824-3.91.507-.789.876-1.662 1.097-2.594.196-.823.509-2.127.895-3.679.492-.05 1.14-.304 1.734-1.135.306-.429.476-.841.507-.919l1.831-4.678c.268-.72.824-4.201.466-5.463" fill="#0a322b"/>
      <path d="m578.399 329.423s-2.22-5.017-5.724-5.5-11.972-.786-15.243 2.115c-3.27 2.902-5.314 5.138-5.198 7.676 0 0-1.519 7.491-.116 13.354.43 1.801.773 3.112 1.041 4.063.136.485.85.393.858-.111.062-3.582.236-9.758.729-10.903.701-1.631 1.752-4.715 5.49-4.715 3.737 0 13.374.303 15.243-1.329 0 0 3.212 2.599 4.029 7.313.495 2.853.664 6.069.721 8.377.013.513.743.589.863.091.277-1.143.567-2.564.779-4.157.484-3.654.616-11.198-.552-13.313s-2.92-2.961-2.92-2.961" fill="#0a322b"/>
      <path d="m597.465 377.758c-.102-.036-10.776-3.772-14.509-5.131l-.576-.21-.469.404c-3.296 2.841-8.804 4.538-14.735 4.538-.029 0-.06-.001-.09-.001-.029 0-.059.001-.09.001-5.929 0-11.438-1.697-14.734-4.538l-.47-.404-.576.21c-3.731 1.359-14.406 5.095-14.508 5.131-.29.1-7.831 1.912-10.153 12.516-1.925 8.788-3.739 25.659-3.944 26.774h88.951c-.204-1.115-2.02-17.986-3.944-26.774-2.323-10.604-9.863-12.416-10.153-12.516" fill="#00a183"/>
      <path d="m577.028 391.041c-.247-.197-.54-.328-.846-.379-.703-.118-1.41.177-1.853.77l-5.737 6.818c-.014-.021-.029-.041-.043-.061l7.952-10.842.018-.028c.605-.907.43-2.131-.399-2.784-.246-.194-.537-.324-.842-.375-.707-.118-1.419.181-1.861.781l-8.288 10.354-.073-.055 8.145-11.141.018-.027c.605-.907.429-2.13-.399-2.784-.246-.194-.537-.323-.842-.375-.708-.118-1.42.182-1.862.783l-9.047 11.427 7.13-9.638.02-.029c.604-.907.428-2.129-.399-2.782-.246-.196-.537-.325-.843-.376-.713-.119-1.43.185-1.863.784l-10.441 14.084 1.405-6.617c.264-1.204-.404-2.407-1.526-2.741l-.737-.157s-5.029 13.234-5.873 16.375c-.372 1.385-.523 2.486-.203 4.734l-10.802 7.436h18.002l3.752 1.139c2.557-.506 4.867-2.023 6.378-4.198.072-.103.142-.208.212-.316l12.145-17.006c.598-.903.423-2.122-.398-2.774" fill="#fff"/>
      <path d="m577.444 390.518c-.336-.267-.734-.445-1.151-.515-.312-.052-.624-.045-.924.017l1.68-2.292.027-.038c.796-1.195.558-2.812-.542-3.68-.334-.263-.73-.439-1.146-.509-.421-.071-.843-.032-1.234.102.27-1.032-.063-2.162-.92-2.839-.335-.264-.73-.44-1.145-.51-.953-.16-1.911.238-2.503 1.036l-.385.487c-.113-.628-.442-1.213-.966-1.627-.335-.265-.731-.442-1.147-.511-.965-.162-1.93.241-2.51 1.045l-8.613 11.618.765-3.609c.341-1.544-.532-3.093-1.987-3.526-.017-.004-.034-.008-.051-.012l-.738-.157c-.323-.07-.647.108-.764.416-.808 2.125-4.917 12.805-5.893 16.439-.387 1.439-.537 2.589-.259 4.716l-10.951 7.628h1.702l10.474-7.023c.114-.143.163-.327.137-.508-.298-2.096-.177-3.11.188-4.466.729-2.715 4.701-13.268 5.649-15.776l.148.032c.773.244 1.228 1.094 1.039 1.955l-1.405 6.617c-.065.306.092.618.379.748.286.129.624.041.812-.212l10.446-14.09c.286-.396.75-.595 1.211-.517.194.033.381.117.539.242.556.439.669 1.268.265 1.876l-7.139 9.651c-.217.293-.159.706.131.929.289.22.704.17.93-.116l9.047-11.428c.005-.006.01-.012.015-.019.292-.396.757-.597 1.213-.519.193.033.38.116.538.24.558.44.67 1.269.266 1.876l-8.155 11.157c-.216.294-.155.707.135.927l.072.055c.289.219.699.169.926-.115l8.288-10.353c.006-.007.012-.015.017-.022.292-.396.758-.595 1.213-.518.194.032.38.115.538.24.557.439.67 1.27.264 1.878l-7.961 10.856c-.172.237-.171.558.002.793l.036.049c.119.169.31.274.517.282.207.012.406-.079.54-.237l5.736-6.818c.008-.011.017-.021.024-.031.293-.391.755-.587 1.208-.51.194.032.382.116.541.242.549.437.663 1.258.263 1.874l-12.139 16.995c-.006.009-.013.018-.019.026-.064.102-.13.201-.198.297-1.404 2.022-3.576 3.452-5.959 3.923-.184.037-.346.151-.442.313l-3.959-.795h1.559l.544-1.12c2.605-.594 7.813.663 9.355-1.558.073-.105.144-.212.216-.322l12.136-16.992c.005-.007.009-.014.014-.02.787-1.19.55-2.801-.54-3.667" fill="#0a322b"/>
      <path d="m553.188 391.041c.247-.197.54-.328.846-.379.703-.118 1.41.177 1.853.77l5.737 6.818c.014-.021.029-.041.043-.061l-7.952-10.842-.018-.028c-.605-.907-.429-2.131.399-2.784.246-.194.537-.324.842-.375.707-.118 1.419.181 1.861.781l8.288 10.354.073-.055-8.145-11.141-.018-.027c-.605-.907-.429-2.13.399-2.784.246-.194.537-.323.842-.375.708-.118 1.42.182 1.862.783l9.047 11.427-7.13-9.638-.02-.029c-.604-.907-.428-2.129.399-2.782.246-.196.538-.325.843-.376.713-.119 1.43.185 1.863.784l10.441 14.084-1.405-6.617c-.264-1.204.405-2.407 1.526-2.741l.738-.157s5.028 13.234 5.872 16.375c.372 1.385.523 2.486.203 4.734l5.099 7.436h-18.002l1.951 1.139c-2.557-.506-4.867-2.023-6.378-4.198-.071-.103-.142-.208-.212-.316l-12.145-17.006c-.598-.903-.423-2.122.398-2.774" fill="#fff"/>
      <path d="m552.772 390.518c.336-.267.734-.445 1.151-.515.312-.052.624-.045.924.017l-1.679-2.292-.028-.038c-.796-1.195-.557-2.812.542-3.68.334-.263.73-.439 1.146-.509.421-.071.843-.032 1.234.102-.27-1.032.064-2.162.92-2.839.335-.264.731-.44 1.145-.51.954-.16 1.911.238 2.503 1.036l.386.487c.113-.628.442-1.213.965-1.627.335-.265.731-.442 1.147-.511.965-.162 1.93.241 2.51 1.045l8.613 11.618-.765-3.609c-.341-1.544.532-3.093 1.987-3.526.017-.004.034-.008.051-.012l.738-.157c.323-.07.647.108.764.416.206.542 5.051 13.302 5.893 16.439.387 1.439.537 2.589.259 4.716l5.249 7.628h-1.702l-4.772-7.023c-.114-.143-.162-.327-.137-.508.298-2.096.177-3.11-.188-4.466-.729-2.715-4.701-13.268-5.649-15.776l-.148.032c-.772.244-1.228 1.094-1.039 1.955l1.406 6.617c.064.306-.093.618-.38.748-.286.129-.624.041-.812-.212l-10.446-14.09c-.286-.396-.75-.595-1.211-.517-.194.033-.381.117-.539.242-.556.439-.669 1.268-.265 1.876l7.139 9.651c.217.293.159.706-.131.929-.289.22-.704.17-.93-.116l-9.047-11.428c-.005-.006-.01-.012-.015-.019-.291-.396-.757-.597-1.213-.519-.193.033-.38.116-.538.24-.557.44-.67 1.269-.266 1.876l8.156 11.157c.215.294.154.707-.136.927l-.072.055c-.289.219-.699.169-.926-.115l-8.288-10.353c-.006-.007-.012-.015-.017-.022-.292-.396-.758-.595-1.213-.518-.194.032-.38.115-.538.24-.557.439-.67 1.27-.264 1.878l7.961 10.856c.172.237.172.558-.002.793l-.036.049c-.119.169-.31.274-.517.282-.207.012-.406-.079-.54-.237l-5.736-6.818c-.008-.011-.016-.021-.024-.031-.293-.391-.755-.587-1.208-.51-.194.032-.382.116-.541.242-.549.437-.663 1.258-.262 1.874l12.138 16.995c.007.009.013.018.019.026.065.102.13.201.198.297 1.404 2.022 3.576 3.452 5.959 3.923.184.037.346.151.443.313l-1.745-.795h-1.559l-.544-1.12c-2.604-.594-2.11.663-3.652-1.558-.073-.105-.144-.212-.216-.322l-12.136-16.992c-.005-.007-.009-.014-.014-.02-.787-1.19-.55-2.801.54-3.667" fill="#0a322b"/>
    </g>
    <g fill="#fff">
      <path d="m596.303 381.792 1.843 1.795c.358.349.931.341 1.28-.018.172-.175.257-.403.257-.631 0-.236-.091-.471-.274-.649l-1.842-1.794c-.903-.878-2.036-1.352-3.192-1.432-1.385-.095-2.801.378-3.882 1.432-1.275 1.241-3.272 1.241-4.547 0l-1.418-1.382c-.359-.348-.932-.341-1.281.018-.349.357-.341.932.017 1.279l1.419 1.382c1.983 1.931 5.09 1.931 7.073 0 .697-.679 1.61-.984 2.504-.92.739.053 1.466.358 2.043.92"/>
      <path d="m596.303 374.903 1.843 1.794c.358.35.931.342 1.28-.017.172-.175.257-.404.257-.631 0-.236-.091-.471-.274-.649l-1.842-1.794c-.525-.511-1.129-.883-1.77-1.123-1.78-.669-3.846-.298-5.304 1.123-1.275 1.241-3.272 1.241-4.547 0l-1.418-1.382c-.359-.348-.932-.341-1.281.018-.349.357-.341.931.017 1.279l1.419 1.382c1.983 1.931 5.09 1.931 7.073 0 .976-.95 2.372-1.17 3.546-.667.361.154.701.375 1.001.667"/>
      <path d="m598.146 369.809c.358.35.932.342 1.28-.017.172-.175.257-.403.257-.631 0-.236-.091-.471-.273-.649l-1.793-1.745-.05-.049c-1.984-1.931-5.091-1.931-7.073 0-1.276 1.241-3.273 1.241-4.548 0l-1.418-1.382c-.359-.348-.932-.34-1.28.017-.35.358-.342.932.016 1.28l1.419 1.382c1.984 1.931 5.09 1.931 7.073 0 1.275-1.241 3.273-1.241 4.547 0l.654.636.027.026z"/>
    </g>
    <path d="m543.775 372.944c-18.19733-37.40685-9.09866-18.70342 0 0z" fill="#284d7b"/>
    <path d="m543.094 386.059 1.843 1.795c.358.349.931.341 1.28-.017.172-.176.257-.404.257-.632 0-.235-.092-.471-.274-.648l-1.842-1.795c-.903-.878-2.036-1.352-3.192-1.432-1.385-.095-2.801.379-3.882 1.432-1.275 1.241-3.273 1.241-4.547 0l-1.418-1.381c-.359-.349-.932-.342-1.281.017-.349.358-.341.932.017 1.28l1.419 1.381c1.982 1.932 5.09 1.932 7.073 0 .697-.679 1.61-.983 2.503-.92.74.053 1.467.358 2.044.92" fill="#fff"/>
    <path d="m543.094 379.17 1.843 1.795c.358.349.931.341 1.28-.018.172-.175.257-.403.257-.631 0-.235-.092-.471-.274-.648l-1.842-1.795c-.526-.511-1.129-.883-1.77-1.123-1.78-.669-3.846-.297-5.304 1.123-1.275 1.241-3.273 1.241-4.547 0l-1.418-1.381c-.359-.349-.932-.342-1.281.017-.349.358-.341.932.017 1.28l1.419 1.381c1.982 1.932 5.09 1.932 7.073 0 .975-.949 2.372-1.17 3.546-.667.361.155.701.375 1.001.667" fill="#fff"/>
    <path d="m544.937 374.076c.358.349.932.341 1.28-.018.172-.175.257-.403.257-.63 0-.237-.092-.472-.273-.649l-1.793-1.746-.05-.049c-1.984-1.93-5.091-1.93-7.073 0-1.276 1.241-3.274 1.241-4.548 0l-1.418-1.381c-.359-.349-.932-.341-1.28.017-.35.358-.342.932.016 1.28l1.419 1.381c1.983 1.932 5.09 1.932 7.073 0 1.275-1.241 3.273-1.241 4.547 0l.654.636.027.027z" fill="#fff"/>
  </g>
</svg>
