<svg clip-rule="evenodd" fill-rule="evenodd" stroke-linejoin="round" stroke-miterlimit="2" viewBox="0 0 2233 1436" xmlns="http://www.w3.org/2000/svg"><g transform="matrix(4.16667 0 0 4.16667 0 -2.49583)"><path d="m266.335 222.533s-23.102 17.966-49.301 15.4-53.416-3.584-92.448-34.918c-39.034-31.332-63.683-67.797-78.066-67.797s-19.516-2.566-19.516-2.566 34.916-6.684 49.299-16.951c14.383-10.268 19.516-18.498 31.333-16.949 11.816 1.549 33.9 3.097 53.416 1.549 19.515-1.549 39.033-9.25 39.033-9.25l-22.084-70.364 10.267-15.402 78.067 46.734 87.314-46.734s11.815 21.066 0 55.984c-11.818 34.916-6.683 32.35-6.683 32.35s14.383 13.365 36.467 9.248c22.082-4.115 49.298-10.797 58.548-4.115 9.248 6.681 29.784 18.497 44.166 23.632 14.383 5.133 19.516 10.268 19.516 10.268s-15.398 0-27.215 14.383c-11.816 14.382-65.234 67.796-89.883 78.064-24.65 10.268-95.074-1.611-102.714-2.566-53.416-6.682-19.516 0-19.516 0z" fill="#b45637"/><g fill-rule="nonzero"><path d="m355.062 26.035c13.218-13.887 7.763 17.445-3.625 41.621-3.67 2.754-12.315 8.447-8.645 5.695 12.229-9.171 20.551-53.373 7.465-41.828-3.381-3.097 1.984-2.527 4.805-5.488z" fill="#9d9661"/><path d="m115.228 100.876c-16.931 0-26.216 6.455-40.114 16.057-11.223 7.857-26.712 3.762-35.94 11.344 23.627 6.287 36.33 26.062 53.505 45.761 38.901 35.411 66.518 52.59 111.763 53.625 48.196-.515 131.881-20.41 146.477-90.07-29.709 8.758-49.807 21.664-82.15 21.664-3.051 0 1.515-7.554 2.531-10.429 9.769-12.575 7.248-7.766 37.48-25.729 29.871-21.588 31.942-30.232 39.551-50.265-28.06 1.459-50.586 33.548-78.584 41.62-4.408 1.272 2.322-3.388 6.731-4.66 32.693-19.484 39.033-29.351 70.3-42.655 2.014 0 13.35-29.694 12.362-20.811-5.633 27.541-14.797 60.878-47.254 79.359-14.34 10.353-31.022 15.277-38.184 26.662 30.147-.893 51.543-14.902 81.942-23.553 3.144-.894 2.021-.638 1.488 2.586-17.19 76.262-76.658 111.922-153.543 111.922-50.32 0-82.818-26.596-116.095-64.742-17.409-19.969-26.38-38.711-52.749-43.063-3.289-.543-4.187-2.744-2.213-5.431 9.767-13.295 25.087-9.287 38.652-18.783 15.213-10.51 25.514-17.289 44.044-17.289 4.587 0 4.587 6.88 0 6.88z" fill="#9d9661"/><path d="m117.368 94.172c73.36 24.277 118.861-24.871 185.955-61.942 23.395-12.787 38.434-26.074 53.809-31.25 8.644 14.494 7.246 39.032-2.533 30.082-35.237 13.149-51.512 34.278-83.858 53.473-3.943 2.342-2.867-1.232 1.078-3.574 32.754-19.44 48.075-40.574 83.758-53.891 6.945-2.523 4.66-14.34 0-21.586-31.785 16.41-18.769 11.588-49.748 29.869-68.932 38.088-115.254 90.293-190.623 65.35-4.355-1.441-2.193-7.973 2.162-6.531z" fill="#9d9661"/><path d="m113.87 125.001c-4.344 0-9.285 4.676-6.057 12.209 10.52 10.534 22.349-2.16 9.198-11.859-1.606-1.184 6.775 3.035 4.781 3.035-2.137 0-5.086-3.734-7.225-3.734-3.988 0-3.892-.932.096-.932 2.137 0 .931-.566 3.067-.566 3.364 2.197 7.203 6.379 7.203 8.373.347 4.537-5.319 22.115-21.147 9.267-5.244-9.3 3.008-18.783 11.519-18.783 3.989 0 2.554 2.99-1.435 2.99z" fill="#9d9661"/><path d="m184.374 25.656c-13.219-13.887-7.766 17.445 3.624 41.621 3.669 2.752 12.315 8.447 8.646 5.694-12.229-9.172-20.553-53.374-7.467-41.827 3.382-3.099-1.985-2.527-4.803-5.488z" fill="#9d9661"/><path d="m424.206 100.498c16.932 0 26.217 6.455 40.115 16.056 11.223 7.856 26.711 3.762 35.94 11.342-23.627 6.287-36.332 26.064-53.506 45.764-38.901 35.408-66.518 52.589-111.764 53.625-48.195-.516-131.879-20.411-146.475-90.071 29.71 8.758 49.807 21.664 82.151 21.664 3.049 0-1.516-7.554-2.533-10.429-9.768-12.577-7.249-7.766-37.481-25.731-29.868-21.586-31.939-30.23-39.549-50.265 28.06 1.459 50.586 33.55 78.583 41.621 4.408 1.271-2.323-3.387-6.731-4.659-32.691-19.485-39.031-29.351-70.299-42.655-2.014 0-13.349-29.694-12.363-20.811 5.633 27.539 14.797 60.879 47.254 79.359 14.34 10.354 31.023 15.277 38.183 26.66-30.144-.89-51.541-14.902-81.941-23.553-3.143-.892-2.019-.638-1.486 2.588 17.188 76.262 76.655 111.92 153.543 111.92 50.32 0 82.816-26.594 116.093-64.74 17.411-19.969 26.379-38.711 52.75-43.063 3.289-.542 4.186-2.746 2.211-5.431-9.765-13.295-25.086-9.287-38.652-18.783-15.211-10.512-25.512-17.289-44.043-17.289-4.588 0-4.588 6.881 0 6.881z" fill="#9d9661"/><path d="m422.065 93.791c-73.359 24.279-118.859-24.869-185.953-61.942-23.396-12.785-38.433-26.072-53.808-31.25-8.645 14.495-7.248 39.034 2.531 30.084 35.236 13.149 51.514 34.276 83.857 53.473 3.946 2.34 2.87-1.234-1.076-3.574-32.756-19.442-48.074-40.574-83.76-53.891-6.944-2.525-4.659-14.34 0-21.586 31.786 16.41 18.772 11.586 49.748 29.869 68.934 38.086 115.256 90.293 190.625 65.35 4.354-1.441 2.192-7.975-2.164-6.533z" fill="#9d9661"/><path d="m425.565 124.622c4.344 0 9.286 4.674 6.055 12.207-10.519 10.534-22.348-2.158-9.195-11.859 1.605-1.183-6.776 3.037-4.781 3.037 2.136 0 5.085-3.734 7.222-3.734 3.988 0 3.895-.934-.095-.934-2.137 0-.93-.566-3.067-.566-3.363 2.197-7.201 6.379-7.201 8.375-.35 4.535 5.318 22.113 21.144 9.265 5.247-9.3-3.007-18.783-11.517-18.783-3.99 0-2.555 2.992 1.435 2.992z" fill="#9d9661"/><path d="m7.56 273.619c4.379-3.419 9.959-5.1 16.199-5.1 3.24 0 7.8.66 10.619 1.44.72.18 1.14.3 1.68.241.06 1.379.36 5.159.84 8.819-.3.42-1.2.479-1.62.12-.9-4.08-3.6-8.76-12.299-8.76-9.18 0-16.979 5.82-16.979 18.24 0 12.599 7.979 19.558 17.819 19.558 7.74 0 11.16-5.039 12.539-8.579.42-.3 1.32-.18 1.56.24-.42 3.119-1.979 7.079-2.879 8.22-.721.119-1.441.359-2.1.6-1.32.479-5.64 1.379-9.48 1.379-5.4 0-10.56-1.08-14.939-4.019-4.8-3.3-8.52-8.76-8.52-16.5 0-6.659 3-12.359 7.56-15.899z" fill="#7d7832"/><path d="m52.14 300.258c0 4.14 1.02 6.9 5.579 6.9 1.62 0 3.54-.661 4.86-1.8.78-.72 1.2-1.62 1.2-3.481v-9.839c0-3.9-.42-4.02-2.22-4.74l-.78-.3c-.42-.24-.42-1.08.06-1.32 2.4-.059 5.7-.479 7.02-1.08.3.061.48.181.54.421-.12 1.14-.18 2.999-.18 5.22v10.079c0 4.74.18 6.54 1.86 6.54.72 0 1.5-.12 2.34-.3.36.3.42 1.5-.06 1.739-2.34.481-5.82 1.08-7.86 2.221-.3 0-.6-.181-.72-.421v-2.46c0-.539-.18-.84-.54-.84-1.8 1.141-4.739 3.12-8.279 3.12-5.28 0-7.26-2.639-7.26-7.5v-10.019c0-3.779 0-4.32-1.8-5.1l-.72-.3c-.36-.299-.3-1.139.12-1.32 2.76-.059 5.1-.6 6.42-1.08.36.061.54.181.6.421-.12 1.019-.18 2.279-.18 5.22z" fill="#7d7832"/><path d="m83.76 291.858c0-2.34 0-2.64-1.62-3.72l-.54-.359c-.24-.241-.24-.901.06-1.08 1.38-.481 4.56-2.04 6.059-2.941.301.061.481.181.481.42v3.481c0 .299.059.479.179.54 2.101-1.741 4.38-3.601 6.6-3.601 1.5 0 2.7.961 2.7 2.4 0 1.98-1.62 2.76-2.58 2.76-.6 0-.9-.18-1.32-.42-.9-.599-1.799-.96-2.64-.96-.96 0-1.679.54-2.159 1.2-.601.84-.78 2.581-.78 4.62v8.16c0 4.32.119 5.04 2.399 5.22l2.16.179c.42.301.3 1.321-.12 1.5-2.82-.12-4.559-.179-6.659-.179-2.16 0-3.96.059-5.52.179-.42-.179-.54-1.199-.12-1.5l1.14-.179c2.22-.361 2.28-.9 2.28-5.22z" fill="#7d7832"/><path d="m112.859 307.217c1.2 0 3.06-.899 3.66-1.5.72-.72.72-1.559.78-2.819l.12-3.54c0-.66-.24-.78-.6-.78s-1.38.24-2.46.6c-3.54 1.2-5.28 2.1-5.28 4.44 0 1.02.72 3.599 3.78 3.599zm3.72-10.559c.9-.3 1.02-.84 1.02-1.74l.06-2.759c.06-2.221-.66-5.22-4.38-5.22-1.68 0-3.72.84-3.84 2.699-.06.96-.12 1.681-.6 2.04-.9.72-2.52 1.14-3.42 1.14-.54 0-.84-.3-.84-.84 0-3.119 6.78-7.38 11.16-7.38 4.32 0 6.42 2.521 6.24 7.021l-.36 10.439c-.12 2.76.42 5.22 2.759 5.22.601 0 1.141-.18 1.5-.361.3-.179.601-.42.78-.42.24 0 .42.361.42.781 0 .3-2.099 2.639-5.039 2.639-1.44 0-2.88-.54-3.9-1.859-.24-.36-.6-.841-.96-.841-.42 0-1.14.54-2.34 1.2-1.32.72-2.64 1.5-4.32 1.5-1.74 0-3.18-.479-4.2-1.38-1.14-1.019-1.86-2.519-1.86-4.2 0-2.34 1.14-3.719 4.98-5.099z" fill="#7d7832"/><path d="m168.837 293.659c0-4.081-1.8-6.18-5.58-6.18-2.279 0-4.139 1.019-4.98 2.099-.719.9-.9 1.5-.9 3.6v9.18c0 4.32.121 4.92 2.281 5.22l1.259.179c.42.301.3 1.321-.12 1.5-1.799-.12-3.539-.179-5.639-.179-2.16 0-3.78.059-5.46.179-.42-.179-.54-1.199-.12-1.5l1.08-.179c2.22-.361 2.28-.9 2.28-5.22v-8.699c0-4.021-1.8-6.18-5.52-6.18-2.46 0-4.14 1.079-5.04 2.159-.6.72-.899 1.5-.899 3.42v9.3c0 4.32.119 4.859 2.279 5.22l1.08.179c.42.301.3 1.321-.12 1.5-1.62-.12-3.36-.179-5.46-.179-2.159 0-3.96.059-5.82.179-.419-.179-.54-1.199-.12-1.5l1.441-.179c2.22-.3 2.28-.9 2.28-5.22v-10.5c0-2.34 0-2.64-1.621-3.72l-.54-.359c-.239-.241-.239-.901.06-1.08 1.38-.481 4.8-2.04 6-2.941.24 0 .541.12.66.42-.119 1.381-.119 2.28-.119 2.82 0 .361.239.661.659.661 2.28-1.621 5.1-3.061 7.98-3.061 3 0 4.68 1.08 6.36 3.54.54.12.96-.12 1.5-.479 2.399-1.68 5.339-3.061 8.159-3.061 4.8 0 7.14 3.301 7.14 7.44v10.32c0 4.32.12 4.92 2.28 5.22l1.44.179c.42.301.3 1.321-.12 1.5-1.98-.12-3.72-.179-5.82-.179-2.16 0-3.78.059-5.46.179-.42-.179-.54-1.199-.119-1.5l1.079-.179c2.22-.361 2.28-.9 2.28-5.22z" fill="#7d7832"/><path d="m194.457 291.918c4.44 0 5.76-.24 6.24-.599.18-.12.36-.361.36-1.141 0-1.68-1.14-3.779-4.62-3.779-3.54 0-6.6 3.239-6.66 5.22 0 .12 0 .299.42.299zm-3.72 1.8c-1.56 0-1.62.12-1.62 1.62 0 6.06 3.54 11.22 9.96 11.22 1.98 0 3.66-.601 5.52-2.94.6-.18 1.02.179 1.08.719-1.98 4.08-6.3 5.58-9.42 5.58-3.9 0-6.96-1.679-8.7-3.96-1.8-2.339-2.519-5.159-2.519-7.799 0-7.379 4.859-13.56 12.059-13.56 5.16 0 8.52 3.54 8.52 7.141 0 .839-.12 1.319-.241 1.559-.179.361-1.02.42-3.539.42z" fill="#7d7832"/><path d="m217.137 291.858c0-2.34 0-2.64-1.62-3.72l-.54-.359c-.24-.241-.24-.901.06-1.08 1.38-.481 4.56-2.04 6.06-2.941.3.061.48.181.48.42v3.481c0 .299.06.479.18.54 2.1-1.741 4.38-3.601 6.599-3.601 1.5 0 2.701.961 2.701 2.4 0 1.98-1.62 2.76-2.58 2.76-.601 0-.9-.18-1.32-.42-.9-.599-1.8-.96-2.64-.96-.96 0-1.68.54-2.16 1.2-.6.84-.78 2.581-.78 4.62v8.16c0 4.32.12 5.04 2.4 5.22l2.16.179c.42.301.3 1.321-.12 1.5-2.82-.12-4.56-.179-6.66-.179-2.16 0-3.96.059-5.52.179-.42-.179-.54-1.199-.12-1.5l1.14-.179c2.22-.361 2.28-.9 2.28-5.22z" fill="#7d7832"/><path d="m246.596 274.759c0 2.159-1.5 3.12-3.18 3.12-1.86 0-3.06-1.381-3.06-3 0-1.98 1.44-3.24 3.24-3.24s3 1.439 3 3.12zm-4.98 17.099c0-2.34 0-2.64-1.62-3.72l-.54-.359c-.24-.241-.24-.901.06-1.08 1.38-.481 4.8-2.04 6.18-2.941.3 0 .54.12.6.361-.12 2.099-.24 4.979-.24 7.439v10.8c0 4.32.12 4.92 2.28 5.22l1.26.179c.42.301.3 1.321-.12 1.5-1.8-.12-3.54-.179-5.64-.179-2.16 0-3.96.059-5.64.179-.42-.179-.54-1.199-.12-1.5l1.26-.179c2.22-.3 2.28-.9 2.28-5.22z" fill="#7d7832"/><path d="m277.735 285.619c.48.419.9 1.379.9 2.399 0 1.08-.6 2.221-1.32 2.221-.3 0-.6-.12-.84-.42-1.32-1.62-3.539-3.181-5.999-3.181-4.201 0-8.281 3.3-8.281 9.66 0 4.68 3.241 10.26 9.66 10.26 3.48 0 5.28-1.561 6.66-3.601.48-.119 1.02.301 1.08.84-2.04 4.441-6.54 6.12-10.02 6.12-3.179 0-6.12-1.019-8.22-3.059-2.099-2.04-3.479-4.981-3.479-8.88 0-6.48 4.56-13.38 14.52-13.38 1.379 0 3.719.301 5.339 1.021z" fill="#7d7832"/><path d="m294.775 307.217c1.2 0 3.06-.899 3.66-1.5.72-.72.72-1.559.78-2.819l.12-3.54c0-.66-.24-.78-.601-.78-.359 0-1.38.24-2.46.6-3.539 1.2-5.279 2.1-5.279 4.44 0 1.02.72 3.599 3.78 3.599zm3.72-10.559c.9-.3 1.02-.84 1.02-1.74l.06-2.759c.06-2.221-.66-5.22-4.38-5.22-1.68 0-3.719.84-3.84 2.699-.06.96-.12 1.681-.6 2.04-.9.72-2.52 1.14-3.42 1.14-.54 0-.84-.3-.84-.84 0-3.119 6.78-7.38 11.16-7.38 4.32 0 6.419 2.521 6.24 7.021l-.361 10.439c-.119 2.76.42 5.22 2.761 5.22.6 0 1.14-.18 1.499-.361.301-.179.601-.42.78-.42.24 0 .42.361.42.781 0 .3-2.099 2.639-5.04 2.639-1.439 0-2.879-.54-3.899-1.859-.241-.36-.6-.841-.96-.841-.42 0-1.14.54-2.34 1.2-1.32.72-2.64 1.5-4.32 1.5-1.74 0-3.18-.479-4.2-1.38-1.139-1.019-1.86-2.519-1.86-4.2 0-2.34 1.141-3.719 4.98-5.099z" fill="#7d7832"/><path d="m329.515 285.678c.54 1.32.96 3.24.96 4.86-.241.42-1.14.54-1.441.18-1.019-2.64-2.819-4.38-5.279-4.38-2.34 0-3.84 1.5-3.84 3.66 0 2.46 2.52 3.78 4.62 4.98 3.18 1.8 6.119 3.84 6.119 8.1 0 4.559-4.199 6.839-8.639 6.839-2.82 0-4.92-.599-6.42-1.799-.48-1.14-.84-4.081-.72-6.06.3-.36 1.08-.42 1.38-.061 1.02 3.3 2.94 6.18 6.36 6.18 2.159 0 4.02-1.26 4.02-3.84 0-2.759-2.401-4.259-4.62-5.519-3.48-1.98-5.94-4.08-5.94-7.38 0-4.38 3.6-6.84 8.159-6.84 2.521 0 4.741.601 5.281 1.08z" fill="#7d7832"/><path d="m395.454 302.957c0 2.401.359 3.84 1.44 4.26.179.181.179.54-.06.721-.721 0-1.801.239-2.94.54-3.18.84-7.5 1.559-10.74 1.559-7.139 0-13.679-1.979-18.3-6.66-3.599-3.599-5.519-8.339-5.519-13.619 0-5.099 1.68-10.26 5.4-14.22 4.02-4.199 9.959-7.019 19.019-7.019 3.42 0 6.6.66 7.62.9 1.14.241 3 .66 3.72.54 0 1.98.36 5.1.899 8.7-.18.48-1.26.54-1.619.179-1.681-6.479-6.18-8.519-12.3-8.519-11.639 0-16.739 8.28-16.739 17.279 0 11.52 5.939 20.579 17.999 20.579 3.72 0 5.939-.779 6.6-1.8.299-.42.6-1.5.6-3.42v-2.399c0-5.04-.18-5.399-3.9-5.82l-2.64-.3c-.48-.24-.42-1.319 0-1.5 1.74.12 5.04.181 8.579.181 2.341 0 4.38-.061 6.361-.181.42.24.479 1.14.059 1.5l-.96.12c-2.519.3-2.579 1.98-2.579 5.04z" fill="#7d7832"/><path d="m415.314 302.358c0 4.32.121 4.92 2.281 5.22l1.439.179c.42.301.3 1.321-.12 1.5-1.979-.12-3.72-.179-5.819-.179-2.16 0-3.96.059-5.76.179-.42-.179-.54-1.199-.12-1.5l1.38-.179c2.219-.3 2.279-.9 2.279-5.22v-27.119c0-3.54-.06-3.9-1.859-4.98l-.6-.36c-.301-.18-.301-1.02 0-1.199 1.5-.481 4.319-1.381 6.48-2.521.24 0 .479.12.599.36-.059 1.8-.18 4.8-.18 7.44z" fill="#7d7832"/><path d="m439.133 286.399c-3.96 0-6.9 3.779-6.9 10.379 0 5.46 2.46 11.34 7.74 11.34s6.9-5.52 6.9-10.14c0-5.1-2.04-11.579-7.74-11.579zm12.899 10.619c0 7.5-5.159 12.899-12.659 12.899-6.899 0-12.3-4.859-12.3-12.359 0-7.56 5.7-12.96 12.78-12.96 6.72 0 12.179 5.04 12.179 12.42z" fill="#7d7832"/><path d="m467.633 300.918c0 2.1.48 3.959 1.5 5.22 1.02 1.26 2.639 1.98 4.559 1.98 5.641 0 7.861-4.8 7.861-9.96 0-6.18-3.181-10.98-9.12-10.98-1.8 0-3.24.42-4.08.96-.6.42-.72 1.08-.72 3.42zm-4.44-25.679c0-3.54-.06-3.9-1.86-4.98l-.6-.36c-.299-.18-.299-1.02 0-1.199 1.38-.54 4.26-1.321 6.54-2.521.24 0 .48.12.6.36-.12 2.1-.24 4.8-.24 7.44v11.34c0 1.019.24 1.259.6 1.259 1.56-.9 3.959-1.98 6.9-1.98 6.84 0 11.459 5.16 11.459 11.76 0 7.979-5.76 13.559-13.799 13.559-2.22 0-3.9-.42-5.1-.78-1.26-.42-2.04-.779-2.52-.779s-.96.479-1.26.899c-.059.061-.12.061-.24.061-.239 0-.48-.12-.6-.361.06-.839.12-1.979.12-5.099z" fill="#7d7832"/><path d="m503.753 307.217c1.199 0 3.06-.899 3.659-1.5.72-.72.72-1.559.78-2.819l.121-3.54c0-.66-.241-.78-.601-.78-.359 0-1.38.24-2.459.6-3.54 1.2-5.28 2.1-5.28 4.44 0 1.02.719 3.599 3.78 3.599zm3.72-10.559c.899-.3 1.019-.84 1.019-1.74l.061-2.759c.059-2.221-.66-5.22-4.38-5.22-1.681 0-3.721.84-3.84 2.699-.061.96-.12 1.681-.601 2.04-.899.72-2.519 1.14-3.419 1.14-.541 0-.84-.3-.84-.84 0-3.119 6.78-7.38 11.16-7.38 4.319 0 6.419 2.521 6.239 7.021l-.36 10.439c-.119 2.76.42 5.22 2.759 5.22.601 0 1.141-.18 1.5-.361.301-.179.601-.42.781-.42.24 0 .42.361.42.781 0 .3-2.1 2.639-5.04 2.639-1.44 0-2.88-.54-3.9-1.859-.24-.36-.599-.841-.96-.841-.42 0-1.139.54-2.34 1.2-1.32.72-2.639 1.5-4.319 1.5-1.74 0-3.181-.479-4.2-1.38-1.14-1.019-1.86-2.519-1.86-4.2 0-2.34 1.14-3.719 4.98-5.099z" fill="#7d7832"/><path d="m531.771 302.358c0 4.32.121 4.92 2.281 5.22l1.439.179c.42.301.3 1.321-.12 1.5-1.979-.12-3.72-.179-5.819-.179-2.16 0-3.96.059-5.76.179-.42-.179-.54-1.199-.12-1.5l1.38-.179c2.219-.3 2.279-.9 2.279-5.22v-27.119c0-3.54-.06-3.9-1.859-4.98l-.6-.36c-.301-.18-.301-1.02 0-1.199 1.5-.481 4.319-1.381 6.48-2.521.24 0 .479.12.599.36-.059 1.8-.18 4.8-.18 7.44z" fill="#7d7832"/><path d="m62.292 337.882c-1.008 0-1.05.043-1.05.672v2.961c0 2.205.105 2.498 1.28 2.625l.609.063c.126.084.084.461-.042.525-1.133-.043-1.847-.064-2.666-.064-.903 0-1.617.042-2.436.064-.126-.064-.168-.4-.042-.525l.357-.063c1.176-.211 1.218-.42 1.218-2.625v-7.559c0-2.205-.147-2.561-1.239-2.645l-.546-.042c-.126-.084-.084-.462.042-.525 1.029.021 1.743.063 2.646.063.819 0 1.533-.02 2.435-.063.126.063.168.441.042.525l-.398.042c-1.218.126-1.26.44-1.26 2.645v2.414c0 .652.042.672 1.05.672h6.004c1.008 0 1.05-.02 1.05-.672v-2.414c0-2.205-.042-2.519-1.281-2.645l-.398-.042c-.126-.084-.084-.462.042-.525.965.043 1.679.063 2.54.063.819 0 1.533-.02 2.478-.063.126.063.168.441.042.525l-.441.042c-1.218.126-1.26.44-1.26 2.645v7.559c0 2.205.042 2.478 1.26 2.625l.504.063c.126.084.084.461-.042.525-1.008-.043-1.722-.064-2.541-.064-.861 0-1.617.021-2.54.064-.126-.064-.168-.4-.042-.525l.398-.063c1.281-.211 1.281-.42 1.281-2.625v-2.961c0-.629-.042-.672-1.05-.672z" fill="#b45637"/><path d="m95.785 338.324c0-3.465-1.533-7.202-5.543-7.202-2.183 0-5.018 1.491-5.018 6.088 0 3.108 1.512 7.139 5.648 7.139 2.52 0 4.913-1.889 4.913-6.025zm-12.66-.442c0-4.199 3.149-7.411 7.474-7.411 4.85 0 7.286 3.507 7.286 7.202 0 4.24-3.234 7.327-7.286 7.327-4.661 0-7.474-3.338-7.474-7.118z" fill="#b45637"/><path d="m111.663 341.515c0 2.205.042 2.478 1.386 2.625l.567.063c.126.105.084.461-.042.525-1.197-.043-1.89-.064-2.73-.064-.882 0-1.637.021-2.561.064-.126-.064-.168-.4-.042-.525l.441-.063c1.217-.168 1.259-.42 1.259-2.625v-7.748c0-1.784-.042-2.141-.986-2.246l-.756-.084c-.147-.126-.126-.442.042-.525 1.113-.147 2.414-.168 4.157-.168s3.044.231 4.031.839c.966.61 1.68 1.702 1.68 3.151 0 1.931-1.197 2.896-2.1 3.338-.924.441-2.036.63-2.897.63-.147-.064-.147-.378-.021-.42 2.267-.42 3.086-1.701 3.086-3.528 0-2.036-1.197-3.359-3.38-3.359-1.113 0-1.134.084-1.134.756z" fill="#b45637"/><path d="m129.871 333.956c0-2.183-.043-2.498-1.281-2.645l-.336-.042c-.126-.084-.084-.462.042-.525.903.043 1.616.063 2.476.063h3.949c1.343 0 2.582 0 2.834-.063.126.357.252 1.869.336 2.793-.084.125-.42.167-.525.041-.315-.987-.504-1.721-1.595-1.995-.441-.104-1.113-.125-2.037-.125h-1.512c-.63 0-.63.041-.63.84v4.199c0 .588.063.588.693.588h1.218c.882 0 1.533-.043 1.785-.127s.399-.209.504-.734l.167-.861c.105-.125.462-.125.546.021 0 .504-.084 1.322-.084 2.121 0 .756.084 1.553.084 2.016-.084.146-.441.146-.546.02l-.188-.819c-.084-.377-.231-.692-.651-.797-.294-.084-.798-.105-1.617-.105h-1.218c-.63 0-.693.021-.693.566v2.961c0 1.113.063 1.826.399 2.184.252.252.693.482 2.541.482 1.616 0 2.225-.084 2.687-.314.378-.21.945-.946 1.491-2.037.147-.105.441-.042.525.147-.147.735-.672 2.352-.945 2.919-1.89-.043-3.758-.064-5.627-.064h-1.891c-.901 0-1.615.021-2.854.064-.126-.064-.168-.4-.042-.525l.693-.063c1.197-.105 1.302-.42 1.302-2.625z" fill="#b45637"/><path d="m173.528 341.515c0 2.205.042 2.52 1.26 2.625l.672.063c.126.084.084.461-.042.525-1.197-.043-1.911-.064-2.751-.064-.839 0-1.574.021-2.918.064-.126-.064-.168-.42 0-.525l.756-.063c1.197-.105 1.302-.42 1.302-2.625v-9.385c0-.651 0-.672-.63-.672h-1.155c-.903 0-2.058.041-2.583.525-.503.462-.713.924-.944 1.448-.168.127-.462.022-.546-.146.336-.946.651-2.29.798-3.129.063-.041.336-.063.399 0 .125.672.818.651 1.784.651h8.504c1.133 0 1.322-.042 1.637-.588.105-.042.336-.02.378.064-.231.86-.378 2.56-.315 3.191-.084.168-.441.168-.546.041-.063-.524-.21-1.301-.525-1.532-.482-.357-1.28-.525-2.435-.525h-1.491c-.63 0-.609.021-.609.713z" fill="#b45637"/><path d="m193.521 337.882c-1.008 0-1.05.043-1.05.672v2.961c0 2.205.105 2.498 1.28 2.625l.609.063c.126.084.084.461-.042.525-1.133-.043-1.847-.064-2.666-.064-.903 0-1.617.042-2.436.064-.126-.064-.168-.4-.042-.525l.357-.063c1.176-.211 1.218-.42 1.218-2.625v-7.559c0-2.205-.147-2.561-1.239-2.645l-.546-.042c-.126-.084-.084-.462.042-.525 1.029.021 1.743.063 2.646.063.819 0 1.533-.02 2.435-.063.126.063.168.441.042.525l-.399.042c-1.217.126-1.259.44-1.259 2.645v2.414c0 .652.042.672 1.05.672h6.004c1.008 0 1.05-.02 1.05-.672v-2.414c0-2.205-.042-2.519-1.281-2.645l-.398-.042c-.126-.084-.084-.462.042-.525.965.043 1.679.063 2.54.063.819 0 1.533-.02 2.478-.063.126.063.168.441.042.525l-.441.042c-1.218.126-1.26.44-1.26 2.645v7.559c0 2.205.042 2.478 1.26 2.625l.504.063c.126.084.084.461-.042.525-1.008-.043-1.722-.064-2.541-.064-.861 0-1.617.021-2.54.064-.126-.064-.168-.4-.042-.525l.398-.063c1.281-.211 1.281-.42 1.281-2.625v-2.961c0-.629-.042-.672-1.05-.672z" fill="#b45637"/><path d="m217.797 336.98c0 .378 0 .609.063.693.063.063.378.105 1.449.105.755 0 1.553-.084 2.162-.546.567-.442 1.05-1.176 1.05-2.604 0-1.658-1.029-3.233-3.359-3.233-1.302 0-1.365.084-1.365.672zm-1.722-3.002c0-1.995-.063-2.352-.924-2.457l-.672-.084c-.146-.106-.146-.442.021-.525 1.176-.105 2.625-.168 4.683-.168 1.301 0 2.54.105 3.506.63 1.008.525 1.743 1.469 1.743 2.94 0 1.994-1.575 3.086-2.625 3.506-.105.126 0 .336.105.504 1.68 2.709 2.793 4.388 4.22 5.585.357.315.882.545 1.449.587.105.042.126.21.021.294-.189.063-.525.106-.924.106-1.784 0-2.855-.526-4.346-2.647-.546-.776-1.407-2.224-2.058-3.17-.315-.461-.65-.671-1.49-.671-.945 0-.987.021-.987.462v2.645c0 2.205.042 2.457 1.26 2.625l.441.063c.126.105.084.461-.042.525-.945-.043-1.659-.064-2.499-.064-.882 0-1.638.021-2.624.064-.126-.064-.168-.379-.042-.525l.524-.063c1.218-.147 1.26-.42 1.26-2.625z" fill="#b45637"/><path d="m248.959 338.324c0-3.465-1.532-7.202-5.543-7.202-2.184 0-5.018 1.491-5.018 6.088 0 3.108 1.512 7.139 5.648 7.139 2.519 0 4.913-1.889 4.913-6.025zm-12.661-.442c0-4.199 3.15-7.411 7.475-7.411 4.85 0 7.286 3.507 7.286 7.202 0 4.24-3.234 7.327-7.286 7.327-4.661 0-7.475-3.338-7.475-7.118z" fill="#b45637"/><path d="m273.13 336.078c0-1.303-.041-3.717-.399-4.347-.146-.252-.525-.4-1.049-.441l-.525-.043c-.127-.146-.084-.419.041-.503.799.043 1.575.063 2.395.063.881 0 1.448-.02 2.204-.063.168.105.147.378.042.503l-.504.043c-.525.041-.924.231-1.05.504-.294.693-.294 3.108-.294 4.284v2.372c0 1.827-.294 3.758-1.47 5.018-.903.986-2.456 1.532-4.01 1.532-1.448 0-2.897-.272-3.926-1.155-1.113-.924-1.638-2.456-1.638-4.955v-4.955c0-2.184-.042-2.54-1.26-2.645l-.524-.043c-.127-.084-.084-.44.041-.503 1.051.043 1.764.063 2.604.063.861 0 1.554-.02 2.583-.063.126.063.168.419.042.503l-.504.043c-1.218.105-1.26.461-1.26 2.645v4.535c0 3.381 1.05 5.607 4.262 5.607 3.045 0 4.199-2.394 4.199-5.585z" fill="#b45637"/><path d="m298.099 342.523c0 .84.126 1.344.504 1.49.062.064.062.19-.022.252-.252 0-.629.084-1.028.189-1.113.294-2.624.546-3.759.546-2.498 0-4.787-.692-6.403-2.331-1.26-1.259-1.932-2.918-1.932-4.765 0-1.785.588-3.59 1.89-4.977 1.406-1.469 3.485-2.456 6.656-2.456 1.196 0 2.308.232 2.666.316.398.083 1.05.23 1.302.188 0 .692.126 1.784.315 3.044-.063.168-.441.189-.567.063-.588-2.267-2.163-2.981-4.304-2.981-4.074 0-5.858 2.897-5.858 6.047 0 4.031 2.079 7.201 6.298 7.201 1.302 0 2.08-.272 2.31-.629.105-.147.21-.525.21-1.197v-.84c0-1.764-.064-1.89-1.364-2.037l-.924-.105c-.168-.084-.148-.462 0-.524.608.041 1.764.062 3.002.062.818 0 1.533-.021 2.225-.062.148.084.168.398.021.524l-.336.042c-.881.106-.902.694-.902 1.764z" fill="#b45637"/><path d="m314.039 337.882c-1.008 0-1.05.043-1.05.672v2.961c0 2.205.106 2.498 1.282 2.625l.608.063c.126.084.084.461-.042.525-1.134-.043-1.848-.064-2.666-.064-.903 0-1.617.042-2.436.064-.127-.064-.168-.4-.043-.525l.358-.063c1.176-.211 1.218-.42 1.218-2.625v-7.559c0-2.205-.148-2.561-1.24-2.645l-.545-.042c-.127-.084-.084-.462.041-.525 1.03.021 1.744.063 2.647.063.818 0 1.532-.02 2.435-.063.125.063.168.441.041.525l-.398.042c-1.218.126-1.26.44-1.26 2.645v2.414c0 .652.042.672 1.05.672h6.005c1.008 0 1.05-.02 1.05-.672v-2.414c0-2.205-.042-2.519-1.281-2.645l-.399-.042c-.126-.084-.084-.462.042-.525.966.043 1.68.063 2.541.063.818 0 1.532-.02 2.477-.063.127.063.168.441.043.525l-.442.042c-1.218.126-1.26.44-1.26 2.645v7.559c0 2.205.042 2.478 1.26 2.625l.504.063c.126.084.084.461-.042.525-1.008-.043-1.722-.064-2.54-.064-.861 0-1.617.021-2.541.064-.126-.064-.168-.4-.042-.525l.399-.063c1.281-.211 1.281-.42 1.281-2.625v-2.961c0-.629-.042-.672-1.05-.672z" fill="#b45637"/><path d="m358.265 337.882c-1.008 0-1.05.043-1.05.672v2.961c0 2.205.104 2.498 1.28 2.625l.609.063c.126.084.084.461-.041.525-1.134-.043-1.848-.064-2.667-.064-.903 0-1.617.042-2.436.064-.125-.064-.168-.4-.041-.525l.356-.063c1.176-.211 1.218-.42 1.218-2.625v-7.559c0-2.205-.146-2.561-1.238-2.645l-.547-.042c-.125-.084-.084-.462.043-.525 1.028.021 1.742.063 2.645.063.819 0 1.533-.02 2.435-.063.127.063.168.441.043.525l-.399.042c-1.218.126-1.26.44-1.26 2.645v2.414c0 .652.042.672 1.05.672h6.005c1.007 0 1.049-.02 1.049-.672v-2.414c0-2.205-.042-2.519-1.281-2.645l-.398-.042c-.126-.084-.084-.462.042-.525.965.043 1.679.063 2.54.063.819 0 1.533-.02 2.478-.063.125.063.168.441.041.525l-.44.042c-1.218.126-1.26.44-1.26 2.645v7.559c0 2.205.042 2.478 1.26 2.625l.504.063c.126.084.084.461-.042.525-1.008-.043-1.722-.064-2.541-.064-.861 0-1.617.021-2.54.064-.126-.064-.168-.4-.042-.525l.398-.063c1.281-.211 1.281-.42 1.281-2.625v-2.961c0-.629-.042-.672-1.049-.672z" fill="#b45637"/><path d="m380.819 333.956c0-2.183-.042-2.498-1.281-2.645l-.336-.042c-.125-.084-.084-.462.043-.525.902.043 1.616.063 2.477.063h3.947c1.344 0 2.583 0 2.835-.063.126.357.252 1.869.336 2.793-.084.125-.42.167-.525.041-.315-.987-.503-1.721-1.595-1.995-.442-.104-1.114-.125-2.037-.125h-1.512c-.63 0-.63.041-.63.84v4.199c0 .588.063.588.692.588h1.219c.881 0 1.532-.043 1.784-.127s.4-.209.504-.734l.168-.861c.105-.125.462-.125.546.021 0 .504-.084 1.322-.084 2.121 0 .756.084 1.553.084 2.016-.084.146-.441.146-.546.02l-.188-.819c-.084-.377-.232-.692-.652-.797-.294-.084-.797-.105-1.616-.105h-1.219c-.629 0-.692.021-.692.566v2.961c0 1.113.063 1.826.399 2.184.252.252.693.482 2.54.482 1.617 0 2.226-.084 2.688-.314.378-.21.944-.946 1.491-2.037.147-.105.441-.042.525.147-.148.735-.672 2.352-.945 2.919-1.89-.043-3.759-.064-5.627-.064h-1.89c-.903 0-1.617.021-2.856.064-.125-.064-.168-.4-.041-.525l.693-.063c1.196-.105 1.301-.42 1.301-2.625z" fill="#b45637"/><path d="m403.185 337.925c-.168.483-.148.504.44.504h2.583c.608 0 .65-.084.461-.651l-1.133-3.423c-.168-.504-.357-1.07-.483-1.322h-.042c-.063.105-.274.609-.504 1.238zm4.156 1.868c-.147-.462-.231-.524-.861-.524h-3.17c-.525 0-.651.062-.797.504l-.736 2.204c-.315.944-.462 1.512-.462 1.743 0 .252.106.377.61.42l.692.063c.148.105.148.441-.042.525-.546-.043-1.197-.043-2.183-.064-.694 0-1.45.042-2.016.064-.126-.084-.168-.42-.042-.525l.692-.063c.504-.043.967-.273 1.26-1.029.379-.966.967-2.33 1.848-4.682l2.142-5.67c.293-.756.42-1.154.357-1.49.504-.147.86-.525 1.092-.798.126 0 .272.042.315.189.273.923.608 1.89.924 2.814l2.876 8.439c.608 1.807.882 2.122 1.784 2.227l.567.063c.148.105.105.441 0 .525-.86-.043-1.595-.064-2.54-.064-1.007 0-1.806.042-2.415.064-.168-.084-.188-.42-.042-.525l.61-.063c.44-.043.734-.168.734-.379 0-.23-.105-.608-.273-1.112z" fill="#b45637"/><path d="m422.966 333.956c0-2.205-.042-2.541-1.365-2.645l-.525-.042c-.126-.084-.084-.462.042-.525 1.176.043 1.89.063 2.73.063.819 0 1.532-.02 2.583-.063.125.063.168.441.041.525l-.504.042c-1.239.104-1.28.44-1.28 2.645v7.307c0 1.322.063 1.869.44 2.268.231.23.631.482 2.289.482 1.785 0 2.226-.084 2.562-.272.419-.252.965-1.008 1.385-2.079.126-.105.526-.021.526.126 0 .231-.588 2.373-.883 2.94-1.07-.043-3.065-.064-5.228-.064h-1.931c-.882 0-1.554.021-2.73.064-.126-.064-.168-.4-.042-.525l.63-.063c1.218-.127 1.26-.42 1.26-2.625z" fill="#b45637"/><path d="m448.019 341.515c0 2.205.042 2.52 1.259 2.625l.672.063c.126.084.084.461-.042.525-1.196-.043-1.911-.064-2.751-.064s-1.574.021-2.918.064c-.126-.064-.168-.42 0-.525l.756-.063c1.197-.105 1.302-.42 1.302-2.625v-9.385c0-.651 0-.672-.63-.672h-1.154c-.904 0-2.059.041-2.583.525-.504.462-.714.924-.945 1.448-.168.127-.463.022-.547-.146.336-.946.652-2.29.799-3.129.063-.041.336-.063.399 0 .126.672.818.651 1.785.651h8.503c1.134 0 1.323-.042 1.638-.588.105-.042.335-.02.377.064-.231.86-.377 2.56-.315 3.191-.084.168-.44.168-.545.041-.063-.524-.211-1.301-.525-1.532-.483-.357-1.282-.525-2.436-.525h-1.49c-.631 0-.609.021-.609.713z" fill="#b45637"/><path d="m468.011 337.882c-1.008 0-1.05.043-1.05.672v2.961c0 2.205.104 2.498 1.28 2.625l.61.063c.126.084.084.461-.042.525-1.134-.043-1.848-.064-2.667-.064-.903 0-1.617.042-2.436.064-.125-.064-.168-.4-.041-.525l.356-.063c1.176-.211 1.218-.42 1.218-2.625v-7.559c0-2.205-.146-2.561-1.238-2.645l-.547-.042c-.125-.084-.084-.462.043-.525 1.028.021 1.742.063 2.645.063.819 0 1.533-.02 2.435-.063.127.063.168.441.043.525l-.399.042c-1.218.126-1.26.44-1.26 2.645v2.414c0 .652.042.672 1.05.672h6.005c1.007 0 1.049-.02 1.049-.672v-2.414c0-2.205-.042-2.519-1.281-2.645l-.398-.042c-.126-.084-.084-.462.042-.525.966.043 1.679.063 2.54.063.819 0 1.533-.02 2.478-.063.125.063.168.441.041.525l-.44.042c-1.218.126-1.26.44-1.26 2.645v7.559c0 2.205.042 2.478 1.26 2.625l.504.063c.126.084.084.461-.042.525-1.008-.043-1.722-.064-2.541-.064-.861 0-1.616.021-2.54.064-.126-.064-.168-.4-.042-.525l.398-.063c1.281-.211 1.281-.42 1.281-2.625v-2.961c0-.629-.042-.672-1.049-.672z" fill="#b45637"/></g></g></svg>