<svg clip-rule="evenodd" fill-rule="evenodd" stroke-linejoin="round" stroke-miterlimit="2" viewBox="0 0 182 295" xmlns="http://www.w3.org/2000/svg"><g fill-rule="nonzero"><g fill="#00477f"><path d="m4.716 70.869c0-1.046-.629-1.858-1.866-1.858h-1.106v3.725h1.095c1.187 0 1.877-.862 1.877-1.867zm-4.716 3.391v-6.772h2.839c2.131 0 3.662 1.28 3.662 3.381 0 2.102-1.531 3.391-3.651 3.391z" transform="matrix(4.16667 0 0 4.16667 0 -15.6083)"/><path d="m7.173 71.519v-4.031h1.775v3.97c0 .802.477 1.38 1.431 1.38.933 0 1.419-.578 1.419-1.38v-3.97h1.766v4.021c0 1.684-1.025 2.872-3.185 2.872-2.181 0-3.206-1.197-3.206-2.862z" transform="matrix(4.16667 0 0 4.16667 0 -15.6083)"/><path d="m18.496 69.731c0-.456-.385-.72-.842-.72h-1.379v1.452h1.379c.457 0 .842-.254.842-.732zm-.192 4.529-1.136-2.275h-.893v2.275h-1.745v-6.772h3.388c1.502 0 2.354.995 2.354 2.254 0 1.178-.721 1.807-1.349 2.03l1.379 2.488z" transform="matrix(4.16667 0 0 4.16667 0 -15.6083)"/><path d="m25.741 74.26v-2.721h-2.81v2.721h-1.744v-6.772h1.744v2.529h2.81v-2.529h1.744v6.772z" transform="matrix(4.16667 0 0 4.16667 0 -15.6083)"/><path d="m31.627 69.214-.862 2.548h1.724zm1.674 5.046-.335-.975h-2.668l-.334.975h-1.979l2.546-6.772h2.191l2.556 6.772z" transform="matrix(4.16667 0 0 4.16667 0 -15.6083)"/><path d="m41.712 74.26v-4.407l-1.714 4.407h-.771l-1.704-4.407v4.407h-1.745v-6.772h2.424l1.41 3.675 1.42-3.675h2.425v6.772z" transform="matrix(4.16667 0 0 4.16667 0 -15.6083)"/><path d="m47.26253781.00004582h134.06677392v222.42934461h-134.06677392z" stroke-width="4.16667"/></g><path d="m23.63751891.00004582h23.6250189v222.42934461h-23.6250189z" fill="#ffd24f" stroke-width="4.16667"/><path d="m.01250001.00004582h23.6250189v222.42934461h-23.6250189z" fill="#ef3d42" stroke-width="4.16667"/><g transform="matrix(4.16667 0 0 4.16667 0 -15.6083)"><g fill="#fff"><path d="m19.286 38.081-.627-1.928-.626 1.928h-2.027l1.64 1.192-.626 1.927 1.639-1.191 1.64 1.191-.626-1.927 1.64-1.192z"/><path d="m25.733 42.101-.626-1.928-.626 1.928h-2.028l1.64 1.191-.626 1.928 1.64-1.192 1.639 1.192-.626-1.928 1.64-1.191z"/><path d="m22.542 39.19 1.64-1.19 1.639 1.19-.626-1.927 1.64-1.191h-2.027l-.626-1.927-.627 1.927h-2.027l1.64 1.191z"/><path d="m31.675 39.408-.627-1.927-.625 1.927h-2.028l1.64 1.191-.626 1.927 1.639-1.19 1.641 1.19-.627-1.927 1.64-1.191z"/><path d="m38.663 35.7h-2.027l-.627-1.927-.626 1.927h-2.027l1.64 1.192-.626 1.927 1.639-1.191 1.64 1.191-.626-1.927z"/><path d="m29.881 35.62 1.64 1.191-.627-1.927 1.64-1.192h-2.027l-.626-1.927-.626 1.927h-2.027l1.64 1.192-.627 1.927z"/><path d="m33.246 32.945 1.64-1.191 1.64 1.191-.626-1.927 1.64-1.192h-2.028l-.626-1.928-.626 1.928h-2.027l1.64 1.192z"/></g><path d="m5.597 62.581c0-1.88 1.384-3.163 3.145-3.163 1.081 0 1.833.522 2.319 1.21l-.641.357c-.349-.513-.981-.889-1.678-.889-1.339 0-2.357 1.027-2.357 2.485 0 1.448 1.018 2.484 2.357 2.484.697 0 1.329-.366 1.678-.889l.65.357c-.513.697-1.247 1.211-2.328 1.211-1.761 0-3.145-1.284-3.145-3.163z" fill="#00477f"/></g><path d="m50.18337348 232.38773173h3.17083587v25.47918705h-3.17083587z" fill="#00477f" stroke-width="4.16667"/><path d="m15.566 65.634v-5.438h-1.935v-.677h4.639v.677h-1.944v5.438z" fill="#00477f" transform="matrix(4.16667 0 0 4.16667 0 -15.6083)"/><path d="m21.058 65.634v-2.586l-2.411-3.529h.889l1.899 2.841 1.897-2.841h.89l-2.403 3.529v2.586z" fill="#00477f" transform="matrix(4.16667 0 0 4.16667 0 -15.6083)"/><path d="m32.054 62.581c0-1.431-.881-2.485-2.247-2.485-1.375 0-2.246 1.054-2.246 2.485 0 1.421.871 2.484 2.246 2.484 1.366 0 2.247-1.063 2.247-2.484zm-5.281 0c0-1.807 1.219-3.163 3.034-3.163 1.806 0 3.035 1.356 3.035 3.163 0 1.806-1.229 3.163-3.035 3.163-1.815 0-3.034-1.357-3.034-3.163z" fill="#00477f" transform="matrix(4.16667 0 0 4.16667 0 -15.6083)"/><path d="m33.852 65.634v-6.115h4.007v.677h-3.246v1.972h3.182v.679h-3.182v2.787z" fill="#00477f" transform="matrix(4.16667 0 0 4.16667 0 -15.6083)"/></g></svg>