<svg clip-rule="evenodd" fill-rule="evenodd" stroke-linejoin="round" stroke-miterlimit="2" viewBox="0 0 265 294" xmlns="http://www.w3.org/2000/svg"><g fill-rule="nonzero" transform="matrix(4.16667 0 0 4.16667 -331.546 -15.975)"><g fill="#79aa43"><path d="m86.451 56.24c0-1.615-1.108-2.748-2.749-2.748h-1.55v5.495h1.55c1.641 0 2.749-1.107 2.749-2.721zm-2.749 4.558h-3.555v-9.116h3.555c2.866 0 4.846 1.967 4.846 4.531v.027c0 2.566-1.98 4.558-4.846 4.558z"/><path d="m94.157 60.941c-2.449 0-3.946-1.368-3.946-4.05v-5.209h2.005v5.157c0 1.484.743 2.253 1.967 2.253 1.223 0 1.966-.742 1.966-2.189v-5.221h2.005v5.144c0 2.761-1.55 4.115-3.997 4.115z"/><path d="m106.078 54.794c0-.859-.599-1.302-1.576-1.302h-1.993v2.617h2.033c.977 0 1.536-.521 1.536-1.29zm-.04 6.004-1.952-2.918h-1.577v2.918h-2.005v-9.116h4.167c2.149 0 3.438 1.133 3.438 3.008v.026c0 1.471-.793 2.396-1.953 2.826l2.227 3.256z"/><path d="m116.406 60.798v-3.659h-3.698v3.659h-2.006v-9.116h2.006v3.607h3.698v-3.607h2.006v9.116z"/><path d="m124.885 54.025-1.211 2.957h2.422zm2.761 6.773-.833-2.045h-3.855l-.834 2.045h-2.044l3.907-9.182h1.849l3.907 9.182z"/><path d="m138.296 60.798v-5.952l-2.566 3.894h-.052l-2.54-3.854v5.912h-1.967v-9.116h2.163l2.396 3.855 2.396-3.855h2.162v9.116z"/></g><g fill="#4194c8"><path d="m84.308 74.321c-2.718 0-4.737-2.097-4.737-4.75v-.026c0-2.625 1.979-4.776 4.816-4.776 1.742 0 2.784.581 3.642 1.424l-1.293 1.491c-.713-.647-1.438-1.042-2.362-1.042-1.556 0-2.679 1.293-2.679 2.877v.026c0 1.584 1.095 2.903 2.679 2.903 1.055 0 1.702-.422 2.428-1.083l1.293 1.308c-.95 1.015-2.005 1.648-3.787 1.648z"/><path d="m97.025 69.545c0-1.583-1.161-2.903-2.797-2.903-1.637 0-2.771 1.293-2.771 2.877v.026c0 1.584 1.16 2.903 2.797 2.903s2.771-1.294 2.771-2.877zm-2.797 4.776c-2.85 0-4.895-2.125-4.895-4.75v-.026c0-2.625 2.071-4.776 4.921-4.776s4.895 2.123 4.895 4.75v.026c0 2.626-2.072 4.776-4.921 4.776z"/><path d="m105.098 74.308c-2.481 0-3.998-1.385-3.998-4.103v-5.278h2.032v5.225c0 1.503.752 2.283 1.992 2.283 1.241 0 1.993-.752 1.993-2.217v-5.291h2.033v5.213c0 2.796-1.571 4.168-4.052 4.168z"/><path d="m118.275 74.163-4.474-5.872v5.872h-2.005v-9.236h1.875l4.328 5.686v-5.686h2.006v9.236z"/><path d="m126.979 66.801v7.362h-2.031v-7.362h-2.81v-1.874h7.651v1.874z"/><path d="m137.034 70.482v3.681h-2.032v-3.641l-3.55-5.595h2.375l2.204 3.708 2.243-3.708h2.309z"/></g><path d="m84.609 35.435h6.012c8.049 0 14.905-4.421 14.905-13.118 0-4.472-2.334-13.117-13.763-13.117h-7.154zm-4.77-30.706h12.272c14.857 0 18.484 11.08 18.484 17.588 0 8.993-6.709 17.589-19.278 17.589h-11.478z" fill="#708f41"/><path d="m111.227 40.801c-3.936 0-7.341-1.158-10.103-3.044 1.543-.771 2.904-1.726 4.078-2.82 1.755.89 3.808 1.393 6.124 1.393 3.759 0 6.692-1.56 8.762-4.153.089.092.177.184.268.273 1.108 1.077 2.402 1.963 3.839 2.639-1.463 1.783-5.622 5.712-12.968 5.712zm-13.889-6.536c-2.71-3.335-4.197-7.545-4.197-11.649 0-4.968 1.55-9.299 4.257-12.547 1.756.612 3.154 1.51 4.258 2.565-2.199 2.563-3.446 6.071-3.446 9.982 0 3.529 1.117 6.81 3.175 9.277-1.168 1.003-2.537 1.794-4.047 2.372zm22.098-22.407c-2.011-2.286-5.082-3.551-8.11-3.551-2.118 0-4.043.453-5.726 1.271-1.158-1.151-2.558-2.17-4.241-2.973 2.825-1.775 6.26-2.771 10.117-2.771 4.36 0 8.939 1.549 11.821 4.854-1.081.602-2.068 1.333-2.941 2.18-.323.315-.63.646-.92.99z" fill="#3e91c5"/><path d="m101.124 37.757c-1.443-.985-2.711-2.17-3.786-3.492 1.51-.578 2.879-1.369 4.047-2.372 1.04 1.247 2.32 2.286 3.817 3.044-1.174 1.094-2.535 2.049-4.078 2.82zm.532-25.123c-1.104-1.055-2.502-1.953-4.258-2.565 1.129-1.354 2.458-2.519 3.961-3.464 1.683.803 3.083 1.822 4.241 2.973-1.525.742-2.852 1.782-3.944 3.056z" fill="#2b6941"/><path d="m131.216 30.027v-.408c4.626-.007 7.574-3.451 7.584-7.959-.01-4.51-2.958-7.955-7.584-7.962-4.627.007-7.574 3.452-7.584 7.962.01 4.508 2.957 7.952 7.584 7.959v.408c-2.42 0-4.429-.915-5.82-2.424-1.394-1.507-2.172-3.6-2.171-5.943-.001-2.344.777-4.437 2.171-5.945 1.391-1.509 3.4-2.425 5.82-2.424 2.421-.001 4.429.915 5.821 2.424 1.392 1.508 2.171 3.601 2.171 5.945 0 2.343-.779 4.436-2.171 5.943s-3.398 2.424-5.817 2.424zm0 3.378c-3.424 0-6.413-1.191-8.541-3.26-2.129-2.069-3.393-5.011-3.392-8.485-.001-3.474 1.263-6.418 3.392-8.487 2.128-2.069 5.117-3.261 8.541-3.26v.408c-6.659.009-11.518 4.594-11.526 11.339.008 6.744 4.867 11.327 11.526 11.337 6.66-.01 11.517-4.593 11.526-11.337-.009-6.745-4.866-11.33-11.526-11.339v-.408c3.426-.001 6.412 1.191 8.541 3.26 2.128 2.069 3.393 5.013 3.392 8.487.001 3.474-1.264 6.416-3.392 8.485-2.128 2.068-5.114 3.26-8.539 3.26zm0-3.582c4.739 0 7.788-3.565 7.788-8.163s-3.049-8.165-7.788-8.165c-4.738 0-7.788 3.567-7.788 8.165s3.05 8.163 7.788 8.163zm0-19.706c6.757 0 11.729 4.694 11.729 11.543s-4.972 11.541-11.729 11.541-11.73-4.692-11.73-11.541 4.973-11.543 11.73-11.543z" fill="#3e91c5"/></g></svg>