<svg fill="none" height="184" viewBox="0 0 660 184" width="660" xmlns="http://www.w3.org/2000/svg" xmlns:xlink="http://www.w3.org/1999/xlink"><linearGradient id="a" gradientUnits="userSpaceOnUse" x1="848.517" x2="-182.931" y1="103.197" y2="19.6401"><stop offset="0" stop-color="#b9eb6d"/><stop offset="1" stop-color="#61ce4b"/></linearGradient><path d="m659.357 149.261-659.35675586 34.424v-149.2614l659.35675586-34.42361526z" fill="url(#a)"/><g fill="#fff"><path d="m168.382 88.1131v-16.5212h-3.077c-4.872 0-8.59.6453-11.539 2.3233-2.821 1.6779-5.513 3.8721-7.949 7.0989l-1.154-9.4222h-16.411v66.3431h18.078v-32.526c0-5.292 1.282-9.5516 3.59-12.6494 2.436-3.0977 6.154-4.6465 11.282-4.6465zm-136.799-19.6189c-3.5898 6.9698-5.3848 15.1014-5.3848 24.2654 0 9.1644 1.795 17.1664 5.3848 24.1364 3.4616 6.97 8.4618 12.391 15.0004 16.134 6.4105 3.743 13.8466 5.679 22.3083 5.679 16.0261 0 27.8213-5.679 34.7443-14.972l1.026 14.198h14.488v-44.4009h-41.4119v15.2309h16.539c-3.7181 7.228-12.0516 13.552-24.1033 13.552-7.5643 0-13.5901-2.71-17.821-8.131-4.3591-5.421-6.5386-12.52-6.5386-21.4264 0-5.8082 1.0256-10.842 2.9488-15.3595 1.9231-4.5175 4.7437-8.0024 8.4618-10.4548 3.718-2.4524 7.9489-3.7431 12.949-3.7431 5.3848 0 10.5132 1.5489 13.8466 4.3885 5.0001 4.1303 8.4618 9.9385 8.4618 17.6828h20.0008c0-11.2292-4.103-17.8119-7.821-22.7166-3.846-5.0338-9.231-8.906-14.8722-11.6165s-12.0517-4.1303-19.1031-4.1303c-9.1028 0-16.9236 1.9361-23.5904 5.6792-6.7951 3.7431-11.9234 9.1641-15.5133 16.0049z"/><path d="m174.567 86.8753c-2.811 5.111-4.088 10.9886-4.088 17.7607 0 6.772 1.405 12.65 4.216 17.761s6.9 8.944 12.266 11.627c5.367 2.811 11.628 4.089 19.039 4.089 5.622 0 10.605-.894 14.95-2.939 4.344-2.044 7.794-4.727 10.477-8.305 2.556-3.45 4.217-7.411 4.983-11.755h-17.76c-.767 3.066-2.428 5.494-4.856 7.027s-5.494 2.3-9.072 2.3c-4.6 0-8.305-1.278-10.861-4.089-2.683-2.683-4.216-6.388-4.6-11.244v-.511h47.66c.256-1.789.512-3.833.512-6.133-.128-6.3889-1.662-11.8832-4.473-16.6109s-6.772-8.4331-11.883-10.9886-10.86-3.961-17.505-3.961c-6.644 0-12.394 1.4055-17.377 4.2165-4.983 2.8111-8.817 6.6443-11.628 11.7553zm44.849 9.9664h-29.771c.511-3.8332 2.044-6.772 4.727-9.072 2.684-2.2999 6.006-3.4499 9.967-3.4499 4.089 0 7.411 1.15 10.094 3.3222 2.683 2.1721 4.344 5.2387 4.983 9.1997z"/><path d="m246.256 86.8753c-2.811 5.111-4.089 10.9886-4.089 17.7607 0 6.772 1.406 12.65 4.217 17.761s6.9 8.944 12.266 11.627c5.367 2.811 11.628 4.089 19.039 4.089 5.622 0 10.605-.894 14.949-2.939 4.345-2.044 7.794-4.727 10.478-8.305 2.555-3.45 4.216-7.411 4.983-11.755h-17.761c-.766 3.066-2.427 5.494-4.855 7.027s-5.494 2.3-9.072 2.3c-4.6 0-8.306-1.278-10.861-4.089-2.683-2.683-4.217-6.388-4.6-11.244v-.511h47.66c.256-1.789.511-3.833.511-6.133-.128-6.3889-1.661-11.8832-4.472-16.6109s-6.772-8.4331-11.883-10.9886-10.861-3.961-17.505-3.961-12.394 1.4055-17.378 4.2165c-4.983 2.8111-8.816 6.6443-11.627 11.7553zm44.849 9.9664h-29.772c.512-3.8332 2.045-6.772 4.728-9.072 2.683-2.2999 6.005-3.4499 9.966-3.4499 4.089 0 7.411 1.15 10.095 3.3222 2.683 2.1721 4.344 5.2387 4.983 9.1997z"/><path d="m373.016 78.0588c-4.984-4.7276-11.245-7.1553-18.911-7.1553-4.856 0-8.817.8944-12.011 2.4277-3.322 1.5333-6.005 3.7054-8.305 6.5165l-1.661-8.1776h-15.717v65.6759h18.017v-33.604c0-5.6225 1.277-10.0946 3.833-13.289 2.555-3.0666 6.133-4.7277 10.861-4.7277 8.816 0 13.288 5.7499 13.288 16.9937v34.627h18.017v-35.649c0-10.9885-2.556-18.7827-7.411-23.6382z"/><path d="m389.223 47.904v89.442h18.016v-89.442z"/><path d="m433.722 47.2651c-2.045-1.9166-4.473-2.9388-7.411-2.9388-3.067 0-5.495 1.0222-7.539 2.9388s-2.939 4.3444-2.939 7.1554c0 2.9388.895 5.3665 2.939 7.2832 2.044 2.0444 4.472 2.9388 7.539 2.9388 2.938 0 5.366-.8944 7.411-2.9388 1.916-1.9167 2.938-4.3444 2.938-7.2832 0-2.811-1.022-5.2388-2.938-7.1554zm-16.483 24.405v65.6759h18.016v-65.6759z"/><path d="m510.93 71.6701h-15.844l-1.533 9.072c-5.111-6.6443-11.883-9.9664-20.444-9.9664-5.878 0-11.116 1.4055-15.716 4.0888-4.6 2.811-8.306 6.6443-10.861 11.6275-2.556 5.111-3.833 10.8608-3.833 17.377 0 6.645 1.277 12.522 3.833 17.505 2.555 4.984 6.261 8.817 10.861 11.5 4.6 2.811 9.711 4.089 15.588 4.089 8.689 0 15.461-2.939 20.317-9.072v6.9c0 5.111-1.406 8.816-4.217 11.372-2.811 2.555-6.772 3.833-11.883 3.833-4.089 0-7.411-.767-9.967-2.555-2.555-1.662-4.216-4.089-4.983-7.284h-18.144c.384 7.539 3.45 13.289 9.2 17.378 5.622 4.089 13.161 6.133 22.488 6.133 12.011 0 20.828-2.556 26.578-7.667 5.622-5.111 8.56-11.883 8.56-20.571zm-22.105 45.7429c-2.938 3.45-6.772 5.111-11.627 5.111-4.856 0-8.817-1.661-11.755-5.111-2.939-3.322-4.345-7.794-4.345-13.416 0-5.4942 1.406-9.9663 4.345-13.4162 2.938-3.4499 6.899-5.2388 11.755-5.2388 4.855 0 8.689 1.7889 11.627 5.2388 2.811 3.5777 4.345 8.0498 4.345 13.5442 0 5.494-1.534 9.966-4.345 13.288z"/><path d="m577.412 78.0588c-4.983-4.7276-11.372-7.1553-19.038-7.1553-8.178 0-14.566 2.9388-19.422 8.8164v-31.8159h-18.016v89.442h18.016v-33.732c0-5.6223 1.278-9.9666 3.833-13.161 2.556-3.0666 6.261-4.7277 10.861-4.7277 4.345 0 7.667 1.5333 9.967 4.3444 2.172 2.811 3.322 7.0276 3.322 12.3943v34.882h18.016v-35.649c0-10.9885-2.555-18.7827-7.539-23.6382z"/><path d="m597.964 86.8753v31.6877c0 12.522 6.261 18.783 18.783 18.783h14.95v-15.205h-9.328c-2.3 0-3.961-.511-4.983-1.533s-1.406-2.683-1.406-4.983v-28.7497h14.95v-15.2052h-14.95v-18.3996h-18.016v18.3996h-10.861v15.2052z"/></g></svg>
