<svg clip-rule="evenodd" fill-rule="evenodd" stroke-linejoin="round" stroke-miterlimit="1.41421" viewBox="0 0 850 850" xmlns="http://www.w3.org/2000/svg" xmlns:xlink="http://www.w3.org/1999/xlink"><clipPath id="a"><path clip-rule="evenodd" d="m121.077 214.285c0 26.043 21.111 47.154 47.153 47.154s47.153-21.111 47.153-47.154c0-26.042-21.111-47.153-47.153-47.153s-47.153 21.111-47.153 47.153z"/></clipPath><g clip-path="url(#a)" fill-rule="nonzero" transform="matrix(8.33333 0 0 8.33333 -988.483 -1360.79)"><path d="m171.672 197.565c-.687-.274-1.412-.504-2.172-.685.682.203 1.416.436 2.172.685" fill="#175071"/><path d="m165.741 169.21c.187-.192.183-.499-.009-.685-.192-.187-.499-.183-.684.009l-.741.759c-1.033 1.062-1.033 2.723 0 3.785.664.682.664 1.751 0 2.433l-.96.986c-.187.192-.182.498.01.685.094.091.216.137.337.137.127 0 .253-.049.347-.146l.961-.987c1.034-1.06 1.034-2.723 0-3.784-.664-.683-.664-1.752 0-2.434z" fill="#fff"/><path d="m169.427 169.21c.187-.192.183-.499-.01-.685-.191-.187-.498-.183-.684.009l-.74.759c-1.033 1.062-1.033 2.723 0 3.785.664.682.664 1.751 0 2.433l-.96.986c-.187.192-.182.498.009.685.094.091.217.137.338.137.126 0 .253-.049.347-.146l.96-.987c1.034-1.06 1.034-2.723 0-3.784-.664-.683-.664-1.752 0-2.434z" fill="#fff"/><path d="m173.114 169.21c.187-.192.183-.499-.01-.685-.191-.187-.498-.183-.684.009l-.74.759c-1.034 1.062-1.034 2.723 0 3.785.664.682.664 1.751 0 2.433l-.96.986c-.187.192-.182.498.009.685.094.091.216.137.338.137.126 0 .252-.049.347-.146l.96-.987c1.034-1.06 1.034-2.723 0-3.784-.664-.683-.664-1.752 0-2.434z" fill="#fff"/><path d="m171.672 197.565c-.687-.274-1.412-.504-2.172-.685.682.203 1.416.436 2.172.685" fill="#175071"/><path d="m165.741 169.21c.187-.192.183-.499-.009-.685-.192-.187-.499-.183-.684.009l-.741.759c-1.033 1.062-1.033 2.723 0 3.785.664.682.664 1.751 0 2.433l-.96.986c-.187.192-.182.498.01.685.094.091.216.137.337.137.127 0 .253-.049.347-.146l.961-.987c1.034-1.06 1.034-2.723 0-3.784-.664-.683-.664-1.752 0-2.434z" fill="#fff"/><path d="m169.427 169.21c.187-.192.183-.499-.01-.685-.191-.187-.498-.183-.684.009l-.74.759c-1.033 1.062-1.033 2.723 0 3.785.664.682.664 1.751 0 2.433l-.96.986c-.187.192-.182.498.009.685.094.091.217.137.338.137.126 0 .253-.049.347-.146l.96-.987c1.034-1.06 1.034-2.723 0-3.784-.664-.683-.664-1.752 0-2.434z" fill="#fff"/><path d="m173.114 169.21c.187-.192.183-.499-.01-.685-.191-.187-.498-.183-.684.009l-.74.759c-1.034 1.062-1.034 2.723 0 3.785.664.682.664 1.751 0 2.433l-.96.986c-.187.192-.182.498.009.685.094.091.216.137.338.137.126 0 .252-.049.347-.146l.96-.987c1.034-1.06 1.034-2.723 0-3.784-.664-.683-.664-1.752 0-2.434z" fill="#fff"/><path d="m118.618 163.295h101.887v101.906h-101.887z" fill="#33da97"/><path d="m205.007 240.523c-.167-.058-16.65-5.828-18.427-6.542-.41-.165-.94-.357-1.502-.562-1.199-.436-2.691-.978-3.571-1.46-.329-.18-.536-.538-.54-.933l-.083-8.272-11.326 2.536-11.837-2.527-.084 8.324c-.004.374-.194.722-.495.908-.89.548-2.43 1.143-3.668 1.622-.341.132-.658.254-.933.364-1.776.714-18.26 6.484-18.423 6.541-.328.113-8.058 2.854-9.762 10.615-.94 4.28-1.427 12.756-1.67 14.065h93.75c-.242-1.308-.73-9.783-1.669-14.065-1.704-7.761-9.436-10.502-9.76-10.614" fill="#fff"/><path d="m185.305 232.754c-1.179-.428-2.645-.961-3.479-1.418-.108-.06-.176-.182-.177-.319l-.075-7.406-.018-1.729-1.633.366-10.369 2.321-10.886-2.324-1.62-.346-.017 1.712-.076 7.469c-.001.129-.063.248-.162.309-.837.515-2.409 1.123-3.557 1.567-.34.131-.661.255-.942.368-.295.118-1.004.379-1.978.731.202.435.282.935.219 1.414 1.112-.401 1.925-.699 2.253-.831 1.28-.514 3.506-1.301 4.703-2.038.507-.313.82-.885.827-1.505l.076-7.469 11.167 2.384 10.65-2.384.074 7.407c.008.653.354 1.248.903 1.549 1.341.734 3.856 1.537 5.146 2.056.198.079.574.22 1.084.408.179-.477.508-.89.987-1.136-.767-.279-1.325-.485-1.578-.586-.42-.169-.956-.364-1.522-.57" fill="#0c5170"/><path d="m188.198 201.885c-.782 0-1.385.892-1.606 1.276l-.012.019-.188.378.813-10.272-5.11-7.78-10.758-4.297h-3.551l-10.759 4.297-5.109 7.78.812 10.272-.187-.378-.011-.019c-.223-.384-.824-1.276-1.607-1.276-.321 0-.903.15-1.188 1.155-.368 1.295.274 5.309.525 5.961l2.154 5.499c.081.204.828 1.99 2.236 1.99.098 0 .195-.008.293-.026.042.169.084.337.126.504.459 1.848.832 3.399 1.064 4.375.243 1.016.645 1.968 1.198 2.829.658 1.025 1.761 2.645 3.277 4.539 2.813 3.512 6.116 3.752 6.255 3.76l.021.002h5.352l.02-.002c.139-.008 3.442-.248 6.254-3.76 1.517-1.894 2.62-3.514 3.279-4.539.552-.861.955-1.813 1.196-2.829.232-.972.604-2.519 1.065-4.375.042-.167.084-.335.125-.504.098.018.196.026.293.026 1.41 0 2.157-1.786 2.238-1.992l2.152-5.497c.252-.652.895-4.666.526-5.961-.286-1.005-.867-1.155-1.188-1.155" fill="#fff"/><g fill="#0a322b"><path d="m190.039 202.842c-.426-1.5-1.43-1.662-1.842-1.662-.355 0-.675.108-.955.274l.111-1.409h-1.367l-.552 6.985 1.741-3.506s.541-.933 1.022-.933c.204 0 .399.168.534.649.31 1.087-.296 5.034-.503 5.497l-2.153 5.497s-.613 1.552-1.605 1.552c-.158 0-.326-.039-.501-.13-.099-.051-.184-.095-.259-.132-.108.425-.215.851-.318 1.269-.455 1.827-.826 3.367-1.067 4.382-.221.929-.592 1.81-1.103 2.607-.667 1.039-1.751 2.626-3.235 4.479-2.656 3.317-5.77 3.507-5.77 3.507h-5.313s-3.114-.19-5.77-3.507c-1.484-1.853-2.568-3.44-3.234-4.479-.512-.797-.882-1.678-1.104-2.607-.24-1.015-.612-2.555-1.067-4.382-.103-.418-.21-.844-.317-1.269-.075.037-.161.081-.26.132-.176.091-.343.13-.501.13-.992 0-1.605-1.552-1.605-1.552l-2.153-5.497c-.207-.463-.813-4.41-.503-5.497.136-.481.33-.649.534-.649.481 0 1.022.933 1.022.933l1.742 3.506-.552-6.985h-.64c-.274 0-.519-.045-.737-.122l.121 1.531c-.281-.166-.601-.274-.955-.274-.412 0-1.416.162-1.843 1.662-.42 1.483.233 5.578.549 6.424h-.001l2.153 5.497c.038.097.237.581.598 1.085.699.978 1.461 1.278 2.039 1.336.454 1.825.822 3.36 1.053 4.328.261 1.096.696 2.122 1.292 3.05.667 1.04 1.785 2.682 3.32 4.599 3 3.746 6.589 4.005 6.739 4.014l.04.003h5.394l.039-.003c.151-.009 3.74-.268 6.74-4.014 1.534-1.917 2.652-3.559 3.32-4.599.596-.928 1.031-1.954 1.291-3.05.231-.968.6-2.502 1.053-4.328.579-.058 1.341-.358 2.039-1.336.361-.504.561-.988.597-1.08l2.154-5.502h-.001c.316-.846.971-4.941.549-6.424"/><path d="m182.972 182.866s-2.61-5.9-6.731-6.468c-4.123-.569-14.083-.925-17.93 2.488-3.848 3.412-6.252 6.042-6.114 9.027 0 0-1.787 8.811-.138 15.706s2.198 7.677 2.198 7.677.069-13.932.894-15.852c.824-1.919 2.06-5.544 6.457-5.544 4.396 0 15.731.355 17.929-1.564 0 0 3.779 3.056 4.741 8.601s.877 12.25.877 13.387c0 0 1.259-3.483 1.901-8.316.569-4.299.725-13.171-.648-15.659-1.374-2.487-3.436-3.483-3.436-3.483"/><path d="m164.675 204.933c-1.505 1.132-4.46 1.131-5.965 0-.304-.229-.73-.159-.951.156-.222.315-.153.756.15.985.991.744 2.387 1.116 3.784 1.116 1.396 0 2.794-.372 3.783-1.116.304-.229.372-.67.151-.985-.222-.315-.647-.385-.952-.156"/><path d="m180.412 204.933c-1.505 1.131-4.461 1.131-5.966 0-.305-.229-.729-.159-.952.156-.221.315-.152.756.152.985.99.744 2.387 1.116 3.784 1.116 1.395 0 2.793-.372 3.782-1.116.304-.229.373-.67.15-.985-.221-.315-.645-.385-.95-.156"/></g><path d="m205.327 239.877c-.126-.044-12.682-4.439-17.072-6.037l-.678-.246-.684.549c-3.878 3.341-10.356 5.336-17.332 5.336-6.975 0-13.454-1.995-17.331-5.336l-.539-.694s-17.623 6.239-17.743 6.281c-.341.117-8.386 3.184-10.161 11.273-.978 4.452-1.469 12.887-1.709 14.199h94.967c-.239-1.309-.73-9.742-1.708-14.199-1.777-8.089-9.675-11.011-10.01-11.126" fill="#00a183"/><path d="m168.59 208c-3.983.216-18.067 16.277-18.067 16.277l18.212 16.035 18.999-16.165c-11.917-14.035-14.207-16.414-19.144-16.147" fill="#fff"/><path d="m168.744 239.331-17.174-15.121c5.436-6.135 14.466-15.329 17.062-15.469 4.465-.242 6.494 1.713 18.057 15.321zm-.193-32.071c-4.175.226-17.122 14.86-18.585 16.528-.27.307-.24.775.067 1.045l18.213 16.036c.14.123.314.185.489.185.171 0 .343-.059.482-.177l18.998-16.165c.311-.266.349-.733.085-1.045-11.94-14.061-14.354-16.703-19.749-16.407" fill="#0a322b"/><path d="m179.244 225.529c-.294-.155-.622-.236-.949-.232-.752.007-1.433.436-1.783 1.121l-4.702 7.998c-.018-.019-.038-.037-.056-.054l6.26-12.506.014-.031c.46-1.035.052-2.251-.93-2.767-.291-.154-.617-.233-.943-.23-.757.008-1.44.442-1.789 1.136l-6.7 12.066-.085-.043 6.405-12.844.014-.03c.461-1.036.053-2.251-.929-2.768-.292-.153-.618-.233-.943-.229-.758.007-1.442.442-1.79 1.136l-6.722 12.176 5.06-10.002.015-.034c.46-1.035.052-2.249-.927-2.766-.292-.154-.62-.233-.946-.23-.762.008-1.452.45-1.791 1.138l-8.467 16.302.371-5.036c.052-1.276-.866-2.382-2.091-2.519l-.577-.064-.182.571c-.085.263-.817 2.579-.931 3.571l-2.081 11.45-.003.031c-.006.056-.01.121-.012.178-.015.333.261 3.599.662 4.866l-8.914 18.317h17.63l4.246-11.559c2.562-.981 4.683-2.947 5.851-5.441.055-.118.109-.237.161-.36l9.48-19.554c.454-1.03.048-2.241-.926-2.758" fill="#fff"/><path d="m179.596 224.862c-.403-.214-.867-.329-1.31-.32-.292.003-.577.052-.845.142l1.256-2.509.02-.043c.621-1.397.066-3.041-1.267-3.743-.402-.211-.852-.332-1.302-.316-.428.005-.839.108-1.208.294.052-1.093-.512-2.16-1.518-2.69-.402-.211-.848-.325-1.303-.316-1.034.011-1.971.6-2.449 1.538l-.263.477c-.249-.592-.691-1.101-1.292-1.418-.403-.211-.854-.326-1.304-.317-1.051.011-1.993.609-2.453 1.546l-6.778 13.047.104-1.403c.069-1.67-1.144-3.119-2.762-3.3l-.577-.064c-.356-.042-.692.179-.802.521l-.181.57c-.139.433-.831 2.632-.959 3.689l-2.077 11.427c-.003.02-.006.041-.008.061l-.003.03c-.007.07-.013.151-.016.22-.015.349.229 3.328.613 4.834l-8.943 18.382h1.665l8.765-17.998c.08-.171.093-.366.036-.546-.358-1.133-.634-4.248-.628-4.607.001-.043.006-.093.01-.136l2.075-11.421c.003-.016.006-.033.008-.049.085-.748.617-2.544.893-3.408.814.111 1.418.864 1.384 1.709l-.369 5.036c-.026.357.202.684.547.781s.71-.06.875-.378l8.474-16.317c.215-.437.645-.712 1.121-.716.206.001.405.047.586.143.63.332.889 1.119.597 1.776l-5.066 10.018c-.186.367-.043.816.321 1.008.363.192.814.058 1.013-.303l6.721-12.176c.005-.008.01-.017.014-.026.222-.44.651-.716 1.124-.721.202-.003.402.047.585.143.63.332.89 1.12.596 1.781l-6.41 12.857c-.187.373-.036.825.336 1.011l.085.043c.362.181.802.045.998-.308l6.7-12.067.014-.028c.221-.439.652-.714 1.123-.719h.011c.198 0 .397.049.574.142.631.332.89 1.12.597 1.781l-6.266 12.518c-.15.298-.085.661.16.889l.045.043c.167.162.399.239.627.208.23-.031.433-.166.55-.366l4.701-7.998c.008-.012.015-.025.022-.038.222-.434.65-.706 1.118-.711.201-.002.406.048.588.144.623.331.883 1.109.595 1.777l-9.473 19.539c-.006.011-.011.022-.016.034-.048.114-.098.226-.15.336-1.079 2.304-3.061 4.147-5.437 5.056-.214.082-.378.256-.449.473l-4.321 11.791h1.586l4.062-10.991c2.587-1.089 4.734-3.144 5.925-5.688.057-.12.112-.243.165-.369l9.472-19.537c.005-.008.008-.016.012-.024.613-1.391.058-3.028-1.264-3.73" fill="#0a322b"/></g></svg>