<svg version="1" xmlns="http://www.w3.org/2000/svg" width="373.333" height="373.333" viewBox="0 0 280.000000 280.000000"><path d="M123.4 4.1C59.6 8 16 46.9 4.2 110.5c-2.3 12.9-2.3 48.4.1 61.5 8 43.6 30.9 76.5 65.5 93.9 27.3 13.8 66.5 17 101.2 8.5 24-5.9 44.7-18.1 58.6-34.4 2.7-3.2 4.6-4.7 4.8-3.8.3.7 1 10.2 1.7 21.1l1.2 19.7H280V144H157v45h24.5c13.5 0 24.5.4 24.5.8 0 1.2-7.6 12-10.9 15.6-8.1 8.7-22.3 17.2-35.6 21.2-8.2 2.5-10.5 2.7-25 2.8-14.8 0-16.6-.2-24.2-2.7-17.4-5.8-30.3-17.7-39.4-36.2-15.7-32.1-13.3-80.1 5.5-108.4 19.2-28.9 58.8-38.2 91.5-21.6 6.6 3.3 19.4 16 23.9 23.7 4.7 8 8.1 18.4 8.9 27.2l.6 7.6 28.6-.2c15.7-.1 29.1-.3 29.6-.5 1.4-.5.1-18.2-1.9-26.3-6.8-26.5-24.1-50.6-47.5-66.1C184.6 9 157 2.1 123.4 4.1z"/></svg>